Tilt-Prism-Separated.ufo
<glyph name="numbersign" format="2">
  <advance width="680"/>
  <unicode hex="0023"/>
  <outline>
    <contour>
      <point x="248.0" y="622.0" type="move" name="DMADCNOS"/>
      <point x="235" y="462" type="line" name="JZGXSDLB"/>
      <point x="215" y="218" type="line" name="LYVJSMDX"/>
      <point x="203.0" y="58.0" type="line" name="BVWMJXLZ"/>
    </contour>
    <contour>
      <point x="477.0" y="622.0" type="move" name="VBFJVHOS"/>
      <point x="465" y="462" type="line" name="EJUHNEPH"/>
      <point x="445" y="218" type="line" name="RGZSIFTZ"/>
      <point x="432.0" y="58.0" type="line" name="XZWUHNIC"/>
    </contour>
    <contour>
      <point x="563.0" y="218.0" type="move" name="IEDVRLVY"/>
      <point x="445" y="218" type="line" name="LZZDNXCS"/>
      <point x="215" y="218" type="line" name="RKMXCEYT"/>
      <point x="117.0" y="218.0" type="line" name="FKZJHWBE"/>
    </contour>
    <contour>
      <point x="563.0" y="462.0" type="move" name="HQVBFELL"/>
      <point x="465" y="462" type="line" name="GAXFMTND"/>
      <point x="235" y="462" type="line" name="VNJZYMBB"/>
      <point x="117.0" y="462.0" type="line" name="KRPYYSJJ"/>
    </contour>
    <contour>
      <point x="55.0" y="156.0" type="move" name="OGVPEWKI"/>
      <point x="117.0" y="218.0" type="line" name="ANNSMIKU"/>
      <point x="55.0" y="281.0" type="line" name="EHRZDERG"/>
    </contour>
    <contour>
      <point x="55.0" y="399.0" type="move" name="ZLWZQYHS"/>
      <point x="117.0" y="462.0" type="line" name="AQQWITOS"/>
      <point x="55.0" y="524.0" type="line" name="ZNCOPUKC"/>
    </contour>
    <contour>
      <point x="625.0" y="281.0" type="move" name="LZFRCYVM"/>
      <point x="563.0" y="218.0" type="line" name="FHLKEVIQ"/>
      <point x="625.0" y="156.0" type="line" name="BDHSZHNT"/>
    </contour>
    <contour>
      <point x="625.0" y="524.0" type="move" name="ZOEZUXCC"/>
      <point x="563.0" y="462.0" type="line" name="MCUIYBXQ"/>
      <point x="625.0" y="399.0" type="line" name="ZFZXGFGU"/>
    </contour>
    <contour>
      <point x="190.0" y="680.0" type="move" name="UNOIHJGI"/>
      <point x="248.0" y="622.0" type="line" name="XRJYOMCG"/>
      <point x="315.0" y="680.0" type="line" name="YSDVVAHL"/>
    </contour>
    <contour>
      <point x="419.0" y="680.0" type="move" name="KXXQDDYQ"/>
      <point x="477.0" y="622.0" type="line" name="JHEQYSVT"/>
      <point x="544.0" y="680.0" type="line" name="FWXVXNXI"/>
    </contour>
    <contour>
      <point x="490.0" y="0.0" type="move" name="IMDMQTTU"/>
      <point x="432.0" y="58.0" type="line" name="MTNWDVKM"/>
      <point x="365.0" y="0.0" type="line" name="YCHGNWEM"/>
    </contour>
    <contour>
      <point x="261.0" y="0.0" type="move" name="BRVSWSVB"/>
      <point x="203.0" y="58.0" type="line" name="TRADJPFC"/>
      <point x="136.0" y="0.0" type="line" name="LQWYJWJZ"/>
    </contour>
    <contour>
      <point x="303.0" y="524.0" type="move" name="JARNBHXZ"/>
      <point x="235.0" y="462.0" type="line" name="IWNUYSWS"/>
      <point x="168.0" y="399.0" type="line" name="SSKLHWUK"/>
    </contour>
    <contour>
      <point x="178.0" y="524.0" type="move" name="BFTXJYFO"/>
      <point x="235.0" y="462.0" type="line" name="STSYNOPB"/>
      <point x="293.0" y="399.0" type="line" name="UELUAQVA"/>
    </contour>
    <contour>
      <point x="532.0" y="524.0" type="move" name="JLNIXOIC"/>
      <point x="465.0" y="462.0" type="line" name="GFGYYRIN"/>
      <point x="397.0" y="399.0" type="line" name="TCGANDYK"/>
    </contour>
    <contour>
      <point x="407.0" y="524.0" type="move" name="RNZRHGMN"/>
      <point x="465.0" y="462.0" type="line" name="MNGNZNAM"/>
      <point x="522.0" y="399.0" type="line" name="HWNURHIR"/>
    </contour>
    <contour>
      <point x="283.0" y="281.0" type="move" name="NHGBRHSY"/>
      <point x="215.0" y="218.0" type="line" name="CJWBTRDY"/>
      <point x="148.0" y="156.0" type="line" name="PNRLVBES"/>
    </contour>
    <contour>
      <point x="158.0" y="281.0" type="move" name="JJPMSGXD"/>
      <point x="215.0" y="218.0" type="line" name="VQTFKTJW"/>
      <point x="273.0" y="156.0" type="line" name="XIVIYXVP"/>
    </contour>
    <contour>
      <point x="512.0" y="281.0" type="move" name="MRYLGACF"/>
      <point x="445.0" y="218.0" type="line" name="JCAAZSYV"/>
      <point x="377.0" y="156.0" type="line" name="LZPAFMGP"/>
    </contour>
    <contour>
      <point x="387.0" y="281.0" type="move" name="FTAYZWAG"/>
      <point x="445.0" y="218.0" type="line" name="MZIDKQXY"/>
      <point x="502.0" y="156.0" type="line" name="AXKBUUBF"/>
    </contour>
  </outline>
</glyph>
<glyph name="percent" format="2">
  <advance width="1023"/>
  <unicode hex="0025"/>
  <outline>
    <contour>
      <point x="239" y="314" type="curve" smooth="yes" name="KUGBPQBW"/>
      <point x="160" y="314" name="KJGDDUFS"/>
      <point x="108" y="382" name="YKURJUKD"/>
      <point x="108" y="478" type="curve" smooth="yes" name="EWBMYSLZ"/>
      <point x="108" y="573" name="ZQOQVBZL"/>
      <point x="160" y="640" name="GPWFMEMA"/>
      <point x="239" y="640" type="curve" smooth="yes" name="LRYHTYPC"/>
      <point x="318" y="640" name="UVBVNCVO"/>
      <point x="372" y="573" name="TGORLLIL"/>
      <point x="372" y="478" type="curve" smooth="yes" name="FAZWTZFU"/>
      <point x="372" y="382" name="HNTKSDLP"/>
      <point x="318" y="314" name="MQSPLMXH"/>
    </contour>
    <contour>
      <point x="784" y="40" type="curve" smooth="yes" name="CUDEBJSK"/>
      <point x="704" y="40" name="HVNHBCOL"/>
      <point x="652" y="108" name="ZTCBRFIR"/>
      <point x="652" y="204" type="curve" smooth="yes" name="AXDDEXFY"/>
      <point x="652" y="299" name="VVMTGQVP"/>
      <point x="704" y="366" name="AIXFFNKA"/>
      <point x="784" y="366" type="curve" smooth="yes" name="ISPOOYAA"/>
      <point x="864" y="366" name="KSXCRKEB"/>
      <point x="916" y="299" name="AZNNCQFO"/>
      <point x="916" y="204" type="curve" smooth="yes" name="UUVDQZDR"/>
      <point x="916" y="108" name="VDNPRDLC"/>
      <point x="864" y="40" name="TSQCYYJB"/>
    </contour>
    <contour>
      <point x="687.0" y="628.0" type="move" name="CVGMOIPZ"/>
      <point x="335.0" y="52.0" type="line" name="HAMZUUTH"/>
    </contour>
    <contour>
      <point x="367.0" y="0.0" type="move" name="JRLMZRMB"/>
      <point x="335.0" y="52.0" type="line" name="VWUMAPUP"/>
      <point x="239.0" y="0.0" type="line" name="XJBUXPFQ"/>
    </contour>
    <contour>
      <point x="655.0" y="680.0" type="move" name="ECUUNSVW"/>
      <point x="687.0" y="628.0" type="line" name="WZGBHWZC"/>
      <point x="783.0" y="680.0" type="line" name="SFLOLYUF"/>
    </contour>
  </outline>
</glyph>
<glyph name="greater" format="2">
  <advance width="447"/>
  <unicode hex="003E"/>
  <outline>
    <contour>
      <point x="102.0" y="178.0" type="move" name="WCXREDGS"/>
      <point x="322.0" y="308.0" type="line" name="HQDLVJTC"/>
      <point x="102.0" y="438.0" type="line" name="GLDWFHXW"/>
    </contour>
    <contour>
      <point x="40.0" y="396.0" type="move" name="VKIUOPCD"/>
      <point x="102.0" y="438.0" type="line" name="UKTBPAQX"/>
      <point x="40.0" y="554.0" type="line" name="FYKKWSQZ"/>
    </contour>
    <contour>
      <point x="40.0" y="64.0" type="move" name="UOFBULOU"/>
      <point x="102.0" y="178.0" type="line" name="MYPZCTWF"/>
      <point x="40.0" y="219.0" type="line" name="NJNWDDNY"/>
    </contour>
    <contour>
      <point x="437.0" y="309.0" type="move" name="QXYZNXAC"/>
      <point x="322.0" y="308.0" type="line" name="QZDZSNFR"/>
      <point x="201.0" y="307.0" type="line" name="OZCJQGLK"/>
    </contour>
  </outline>
</glyph>
<glyph name="A" format="2">
  <advance width="670"/>
  <unicode hex="0041"/>
  <outline>
    <contour>
      <point x="113" y="70" type="move" name="GICMEZCQ"/>
      <point x="162" y="208" type="line" name="QDVCQSNO"/>
      <point x="304.0" y="600.0" type="line" name="OXQKBGAT"/>
      <point x="360" y="600" type="line" name="EXEWBVRM"/>
      <point x="503" y="208" type="line" name="KTYDZKVY"/>
      <point x="550" y="70" type="line" name="SSJOSDEF"/>
    </contour>
    <contour>
      <point x="503" y="208" type="move" name="AYNQMHFI"/>
      <point x="162" y="208" type="line" name="BTTYPPUR"/>
    </contour>
    <contour>
      <point x="258.0" y="680.0" type="move" name="OPZYABCV"/>
      <point x="304" y="600" type="line" name="CQBSJRTU"/>
      <point x="328.0" y="483.0" type="line" name="XMYUAXWT"/>
      <point x="360" y="600" type="line" name="RMQWFWLY"/>
      <point x="412.0" y="680.0" type="line" name="DIZUAXXI"/>
    </contour>
    <contour>
      <point x="251" y="271" type="move" name="HXSFFLIG"/>
      <point x="162.0" y="208.0" type="line" name="DKAOHZWI"/>
      <point x="210.0" y="146.0" type="line" name="AHKOLEYK"/>
    </contour>
    <contour>
      <point x="405.0" y="271.0" type="move" name="PCRHERUK"/>
      <point x="503.0" y="208.0" type="line" name="XREZEBDK"/>
      <point x="446.0" y="146.0" type="line" name="TDGTECWF"/>
    </contour>
    <contour>
      <point x="200.0" y="0.0" type="move" name="VYPIWFWC"/>
      <point x="113" y="70" type="line" name="HDOGQIGX"/>
      <point x="-5.0" y="0.0" type="line" name="NZGOSKZA"/>
    </contour>
    <contour>
      <point x="675.0" y="0.0" type="move" name="CJOGMKGO"/>
      <point x="550.0" y="70.0" type="line" name="PSATSMVU"/>
      <point x="456.0" y="0.0" type="line" name="SYRAAAFE"/>
    </contour>
    <contour>
      <point x="304" y="600" type="move" name="YUMJSPXG"/>
    </contour>
    <contour>
      <point x="360" y="600" type="move" name="XAZLIEJS"/>
    </contour>
  </outline>
</glyph>
<glyph name="C" format="2">
  <advance width="610"/>
  <unicode hex="0043"/>
  <anchor x="349" y="-3" name="below"/>
  <anchor x="349" y="683.0" name="above"/>
  <outline>
    <contour>
      <point x="488" y="607" type="move" smooth="yes" name="DPEXBIPW"/>
      <point x="453" y="620" name="EQSYGSUQ"/>
      <point x="409" y="628" name="UEAMWQAD"/>
      <point x="374" y="628" type="curve" smooth="yes" name="KQUUYGGH"/>
      <point x="215" y="628" name="ZZZCHOTG"/>
      <point x="113" y="512" name="YHMSRLBE"/>
      <point x="113" y="339" type="curve" smooth="yes" name="URTIXGAW"/>
      <point x="113" y="166" name="ZKEMGPQX"/>
      <point x="216" y="52" name="MNUUPVSW"/>
      <point x="374" y="52" type="curve" smooth="yes" name="NBNNAADE"/>
      <point x="409" y="52" name="TCCYPWOU"/>
      <point x="456" y="59" name="XOXXAJYZ"/>
      <point x="488" y="71" type="curve" smooth="yes" name="ZRADGHXR"/>
    </contour>
    <contour>
      <point x="550.0" y="658.0" type="move" name="ZVSPBBMH"/>
      <point x="488.0" y="607.0" type="line" name="PJYICBXU"/>
      <point x="550.0" y="490.0" type="line" name="JTRIQKLW"/>
    </contour>
    <contour>
      <point x="550.0" y="190.0" type="move" name="IQVNJISR"/>
      <point x="488.0" y="71.0" type="line" name="MBLKTCQA"/>
      <point x="550.0" y="22.0" type="line" name="LMCNVRTT"/>
    </contour>
  </outline>
</glyph>
<glyph name="H" format="2">
  <advance width="703"/>
  <unicode hex="0048"/>
  <outline>
    <contour>
      <point x="156.0" y="618.0" type="move" name="JKIZUAWY"/>
      <point x="156" y="354" type="line" name="VVUDKNUD"/>
      <point x="156.0" y="62.0" type="line" name="IKYWWOLM"/>
    </contour>
    <contour>
      <point x="547.0" y="618.0" type="move" name="XGDMMTLW"/>
      <point x="548" y="354" type="line" name="ZEMYKHZL"/>
      <point x="548.0" y="62.0" type="line" name="UYOPCAZO"/>
    </contour>
    <contour>
      <point x="548.0" y="354.0" type="move" name="DTCUJTOO"/>
      <point x="156.0" y="354.0" type="line" name="XIGZJSSE"/>
    </contour>
    <contour>
      <point x="227.0" y="418.0" type="move" name="BHAZYCJU"/>
      <point x="156.0" y="354.0" type="line" name="LKPQIGAZ"/>
      <point x="227.0" y="291.0" type="line" name="CGSXIVVA"/>
    </contour>
    <contour>
      <point x="254.0" y="0.0" type="move" name="JRLMZRMB"/>
      <point x="156.0" y="62.0" type="line" name="VWUMAPUP"/>
      <point x="57" y="0" type="line" name="XJBUXPFQ"/>
    </contour>
    <contour>
      <point x="57.0" y="680.0" type="move" name="ECUUNSVW"/>
      <point x="156.0" y="618.0" type="line" name="WZGBHWZC"/>
      <point x="254.0" y="680.0" type="line" name="SFLOLYUF"/>
    </contour>
    <contour>
      <point x="476.0" y="291.0" type="move" name="YPKTMTLM"/>
      <point x="548.0" y="354.0" type="line" name="TMPWPBHT"/>
      <point x="476.0" y="418.0" type="line" name="CCFQGQHD"/>
    </contour>
    <contour>
      <point x="646.0" y="0.0" type="move" name="PXIBMFLN"/>
      <point x="548.0" y="62.0" type="line" name="YWMEWBPF"/>
      <point x="449.0" y="0.0" type="line" name="RZJHOCJT"/>
    </contour>
    <contour>
      <point x="449.0" y="680.0" type="move" name="NUKKCNGE"/>
      <point x="547.0" y="618.0" type="line" name="POROMZGU"/>
      <point x="646.0" y="680.0" type="line" name="FQNYHCGX"/>
    </contour>
  </outline>
</glyph>
<glyph name="I" format="2">
  <advance width="319"/>
  <unicode hex="0049"/>
  <anchor x="160" y="0" name="below"/>
  <anchor x="160" y="680.0" name="above"/>
  <outline>
    <contour>
      <point x="160.0" y="618.0" type="move" name="JKIZUAWY"/>
      <point x="160.0" y="62.0" type="line" name="IKYWWOLM"/>
    </contour>
    <contour>
      <point x="258.0" y="0.0" type="move" name="JRLMZRMB"/>
      <point x="160.0" y="62.0" type="line" name="VWUMAPUP"/>
      <point x="61.0" y="0.0" type="line" name="XJBUXPFQ"/>
    </contour>
    <contour>
      <point x="61.0" y="680.0" type="move" name="ECUUNSVW"/>
      <point x="160.0" y="618.0" type="line" name="WZGBHWZC"/>
      <point x="258.0" y="680.0" type="line" name="SFLOLYUF"/>
    </contour>
  </outline>
</glyph>
<glyph name="M" format="2">
  <advance width="864"/>
  <unicode hex="004D"/>
  <outline>
    <contour>
      <point x="240.0" y="0.0" type="move" name="MULFSODH"/>
      <point x="148.0" y="62.0" type="line" name="TCQYCOJQ"/>
      <point x="57" y="0" type="line" name="CMRVBPXT"/>
    </contour>
    <contour>
      <point x="807.0" y="0.0" type="move" name="OVNMQVHV"/>
      <point x="713.0" y="62.0" type="line" name="PHQTURTS"/>
      <point x="619.0" y="0.0" type="line" name="TGTXDCAV"/>
    </contour>
    <contour>
      <point x="214.0" y="504.0" type="move" name="KYXSLBUU"/>
      <point x="148" y="618" type="line" name="VDWODRNF"/>
      <point x="57" y="680" type="line" name="KFKGHAMG"/>
    </contour>
    <contour>
      <point x="807.0" y="680.0" type="move" name="GLWSIQOP"/>
      <point x="713.0" y="618.0" type="line" name="YGCKLYWJ"/>
      <point x="645.0" y="509.0" type="line" name="ILYDGLQQ"/>
    </contour>
    <contour>
      <point x="148" y="62" type="move" name="EYYRYAFS"/>
      <point x="148" y="618" type="line" name="KEXYAJRA"/>
      <point x="245" y="618" type="line" name="GPXJOLVL"/>
      <point x="430" y="68" type="line" name="POIVYQNH"/>
      <point x="620" y="618" type="line" name="UJKMHOXF"/>
      <point x="713.0" y="618.0" type="line" name="GGQUSHFH"/>
      <point x="713.0" y="62.0" type="line" name="MZJTEDIB"/>
    </contour>
    <contour>
      <point x="317.0" y="680.0" type="move" name="NROVVHPY"/>
      <point x="245.0" y="618.0" type="line" name="LOCPRGIW"/>
      <point x="214.0" y="504.0" type="line" name="NZUHTKJT"/>
    </contour>
    <contour>
      <point x="645.0" y="509.0" type="move" name="GGBHZQVY"/>
      <point x="620.0" y="618.0" type="line" name="OXAXLXEP"/>
      <point x="556.0" y="680.0" type="line" name="IDHVCEZA"/>
    </contour>
    <contour>
      <point x="467.0" y="0.0" type="move" name="GOFDRMUA"/>
      <point x="430.0" y="68.0" type="line" name="DOPXVAEI"/>
      <point x="386.0" y="0.0" type="line" name="JKVXRFXE"/>
    </contour>
    <contour>
      <point x="435.0" y="250.0" type="move" name="XYUNHDGJ"/>
      <point x="430.0" y="68.0" type="line" name="VBEPFZBF"/>
    </contour>
  </outline>
</glyph>
<glyph name="P" format="2">
  <advance width="593"/>
  <unicode hex="0050"/>
  <outline>
    <contour>
      <point x="156.0" y="292.0" type="move" name="XPHIOYUB"/>
      <point x="317" y="292" type="line" smooth="yes" name="PIHLOZVJ"/>
      <point x="428" y="292" name="XKIDYGEK"/>
      <point x="494" y="358" name="ONVLJSNS"/>
      <point x="494" y="455" type="curve" smooth="yes" name="TFSJXNTD"/>
      <point x="494" y="552" name="LQFLYRVB"/>
      <point x="428" y="618" name="MXRZRYJT"/>
      <point x="317" y="618" type="curve" smooth="yes" name="JCXZNUWA"/>
      <point x="156.0" y="618.0" type="line" name="MSDXNXFW"/>
      <point x="156.0" y="62.0" type="line" name="FDIELLBI"/>
    </contour>
    <contour>
      <point x="227.0" y="355.0" type="move" name="BHAZYCJU"/>
      <point x="156.0" y="292.0" type="line" name="LKPQIGAZ"/>
      <point x="228.0" y="230.0" type="line" name="CGSXIVVA"/>
    </contour>
    <contour>
      <point x="254.0" y="0.0" type="move" name="JRLMZRMB"/>
      <point x="156.0" y="62.0" type="line" name="VWUMAPUP"/>
      <point x="57" y="0" type="line" name="XJBUXPFQ"/>
    </contour>
    <contour>
      <point x="57" y="680" type="move" name="ECUUNSVW"/>
      <point x="156.0" y="618.0" type="line" name="UHMWTTEK"/>
      <point x="231.0" y="555.0" type="line" name="WZGBHWZC"/>
    </contour>
  </outline>
</glyph>
<glyph name="R" format="2">
  <advance width="643"/>
  <unicode hex="0052"/>
  <outline>
    <contour>
      <point x="156" y="62" type="move" name="NYTHRSXI"/>
      <point x="156" y="307" type="line" name="HOCYOXPP"/>
      <point x="156" y="618" type="line" name="QSVTQVBJ"/>
      <point x="317" y="618" type="line" smooth="yes" name="ZCBBUWDG"/>
      <point x="421" y="618" name="UJGVFWGM"/>
      <point x="484" y="556" name="GAOQKZSP"/>
      <point x="484" y="462" type="curve" smooth="yes" name="AIDJHMWL"/>
      <point x="484" y="378" name="JWHVCDSF"/>
      <point x="430" y="317" name="MDGCBNIT"/>
      <point x="352" y="307" type="curve" smooth="yes" name="MUWWNTPU"/>
      <point x="156" y="307" type="line" name="UJQKTSSJ"/>
    </contour>
    <contour>
      <point x="352" y="307" type="move" name="GAVRJUXP"/>
      <point x="513" y="62" type="line" name="AAOSVVWB"/>
    </contour>
    <contour>
      <point x="227.0" y="367.0" type="move" name="BHAZYCJU"/>
      <point x="156.0" y="307.0" type="line" name="LKPQIGAZ"/>
      <point x="228.0" y="247.0" type="line" name="CGSXIVVA"/>
    </contour>
    <contour>
      <point x="254.0" y="0.0" type="move" name="SEMGXOMG"/>
      <point x="156.0" y="62.0" type="line" name="TWORCRDR"/>
      <point x="57" y="0" type="line" name="RYWYTYKV"/>
    </contour>
    <contour>
      <point x="57" y="680" type="move" name="ECUUNSVW"/>
      <point x="156.0" y="618.0" type="line" name="UHMWTTEK"/>
      <point x="231.0" y="555.0" type="line" name="WZGBHWZC"/>
    </contour>
    <contour>
      <point x="315.0" y="247.0" type="move" name="HVCBTTLX"/>
      <point x="352.0" y="307.0" type="line" name="ZVGZSSSC"/>
      <point x="453.0" y="277.0" type="line" name="ZLWNKWDA"/>
    </contour>
    <contour>
      <point x="663.0" y="0.0" type="move" name="CDFOGWIS"/>
      <point x="513.0" y="62.0" type="line" name="HTUJLBCY"/>
      <point x="442.0" y="0.0" type="line" name="BRRIQBLH"/>
    </contour>
  </outline>
</glyph>
<glyph name="S" format="2">
  <advance width="533"/>
  <unicode hex="0053"/>
  <outline>
    <contour>
      <point x="412" y="608" type="move" smooth="yes" name="HGAOADUK"/>
      <point x="373" y="621" name="DIKFFTRL"/>
      <point x="333" y="628" name="LBDKAYGN"/>
      <point x="296" y="628" type="curve" smooth="yes" name="OWIVUKTQ"/>
      <point x="189" y="628" name="BXEWGFUP"/>
      <point x="124" y="575" name="ZWTUNPCV"/>
      <point x="124" y="490" type="curve" smooth="yes" name="ZSDEAYMY"/>
      <point x="124" y="412" name="ABDATWOE"/>
      <point x="200" y="376" name="IPDPFLNX"/>
      <point x="276" y="340" type="curve" smooth="yes" name="FELNGQYN"/>
      <point x="352" y="304" name="KWLVIZWL"/>
      <point x="428" y="269" name="TUJLLNGD"/>
      <point x="428" y="192" type="curve" smooth="yes" name="VJHJZLKX"/>
      <point x="428" y="102" name="MDLAWNKL"/>
      <point x="358" y="50" name="SWWNJWIN"/>
      <point x="248" y="50" type="curve" smooth="yes" name="PJHMPSFO"/>
      <point x="206" y="50" name="GCTGNPNH"/>
      <point x="159" y="57" name="YUGZKYSW"/>
      <point x="114" y="72" type="curve" smooth="yes" name="HLYAXCSJ"/>
    </contour>
    <contour>
      <point x="474.0" y="664.0" type="move" name="XYGWLLJZ"/>
      <point x="412.0" y="608.0" type="line" name="KMXAMPOA"/>
      <point x="474.0" y="500.0" type="line" name="NRFSNWVX"/>
    </contour>
    <contour>
      <point x="52.0" y="15.0" type="move" name="SFQYRYIF"/>
      <point x="114.0" y="72.0" type="line" name="CJMHXZGC"/>
      <point x="52.0" y="181.0" type="line" name="NKUKGJGC"/>
    </contour>
  </outline>
</glyph>
<glyph name="T" format="2">
  <advance width="549"/>
  <unicode hex="0054"/>
  <outline>
    <contour>
      <point x="462" y="616" type="move" name="RLUZWNJF"/>
      <point x="274" y="616" type="line" name="UZGLQPMJ"/>
      <point x="87" y="616" type="line" name="YSFMWLVM"/>
    </contour>
    <contour>
      <point x="274.0" y="616.0" type="move" name="HRXRESDS"/>
      <point x="274.0" y="62.0" type="line" name="WMPPKZET"/>
    </contour>
    <contour>
      <point x="373.0" y="0.0" type="move" name="JRLMZRMB"/>
      <point x="274.0" y="62.0" type="line" name="VWUMAPUP"/>
      <point x="176.0" y="0.0" type="line" name="XJBUXPFQ"/>
    </contour>
    <contour>
      <point x="524.0" y="680.0" type="move" name="QFBFVVBQ"/>
      <point x="462.0" y="616.0" type="line" name="GWSCPFCL"/>
      <point x="524.0" y="524.0" type="line" name="KYIHYDAS"/>
    </contour>
    <contour>
      <point x="25.0" y="524.0" type="move" name="RWPSSONW"/>
      <point x="87.0" y="616.0" type="line" name="QHYBUSFA"/>
      <point x="25.0" y="680.0" type="line" name="CNOHHEZW"/>
    </contour>
    <contour>
      <point x="200.0" y="553.0" type="move" name="HYTDVHZU"/>
      <point x="274.0" y="616.0" type="line" name="IRWMODBF"/>
      <point x="349.0" y="553.0" type="line" name="BCNEJYZE"/>
    </contour>
  </outline>
</glyph>
<glyph name="U" format="2">
  <advance width="684"/>
  <unicode hex="0055"/>
  <outline>
    <contour>
      <point x="538.0" y="618.0" type="move" name="XNTOXYFL"/>
      <point x="538" y="234" type="line" smooth="yes" name="UIKHKYFD"/>
      <point x="538" y="120" name="CRVPPERY"/>
      <point x="459" y="48" name="IEMLKHRX"/>
      <point x="342" y="48" type="curve" smooth="yes" name="SCXXWPPQ"/>
      <point x="225" y="48" name="FXVYQPWZ"/>
      <point x="146" y="120" name="OYJYTHHD"/>
      <point x="146" y="234" type="curve" smooth="yes" name="NLXIXJZD"/>
      <point x="146.0" y="618.0" type="line" name="ZFSGOLGC"/>
    </contour>
    <contour>
      <point x="47.0" y="680.0" type="move" name="ECUUNSVW"/>
      <point x="146.0" y="618.0" type="line" name="WZGBHWZC"/>
      <point x="244.0" y="680.0" type="line" name="SFLOLYUF"/>
    </contour>
    <contour>
      <point x="440.0" y="680.0" type="move" name="NUKKCNGE"/>
      <point x="538.0" y="618.0" type="line" name="POROMZGU"/>
      <point x="637.0" y="680.0" type="line" name="FQNYHCGX"/>
    </contour>
  </outline>
</glyph>
<glyph name="grave" format="2">
  <advance width="408"/>
  <unicode hex="0060"/>
  <anchor x="0" y="517" name="top"/>
  <anchor x="254" y="517" name="center"/>
  <outline>
    <contour>
      <point x="231.0" y="636.0" type="move" name="JMGOEJYY"/>
      <point x="171.0" y="728.0" type="line" name="BZWZQKAG"/>
    </contour>
    <contour>
      <point x="60.0" y="780.0" type="move" name="CSSRQEYN"/>
      <point x="171.0" y="728.0" type="line" name="OVHLHUYL"/>
      <point x="219.0" y="780.0" type="line" name="CNWFLDXU"/>
    </contour>
    <contour>
      <point x="328.0" y="584.0" type="move" name="JEGYSVFE"/>
      <point x="231.0" y="636.0" type="line" name="YMITEXIS"/>
      <point x="194.0" y="584.0" type="line" name="FTPSNQRM"/>
    </contour>
  </outline>
</glyph>
<glyph name="a" format="2">
  <advance width="614"/>
  <unicode hex="0061"/>
  <outline>
    <contour>
      <point x="112" y="70" type="move" name="DWBTBMBK"/>
      <point x="150" y="178" type="line" name="LENYTSVU"/>
      <point x="278" y="520" type="line" name="FHEUWBJW"/>
      <point x="329" y="520" type="line" name="SEEMRYEY"/>
      <point x="457" y="178" type="line" name="BEEWACMD"/>
      <point x="494" y="70" type="line" name="UQOTDQQS"/>
    </contour>
    <contour>
      <point x="457" y="178" type="move" name="BESIJXUO"/>
      <point x="150" y="178" type="line" name="VWYCIHYS"/>
    </contour>
    <contour>
      <point x="232.0" y="580.0" type="move" name="OPZYABCV"/>
      <point x="278.0" y="520.0" type="line" name="CQBSJRTU"/>
      <point x="300.0" y="403.0" type="line" name="XMYUAXWT"/>
      <point x="329.0" y="520.0" type="line" name="RMQWFWLY"/>
      <point x="382.0" y="580.0" type="line" name="DIZUAXXI"/>
    </contour>
    <contour>
      <point x="237.0" y="238.0" type="move" name="HXSFFLIG"/>
      <point x="150.0" y="178.0" type="line" name="DKAOHZWI"/>
      <point x="198.0" y="119.0" type="line" name="AHKOLEYK"/>
    </contour>
    <contour>
      <point x="363.0" y="238.0" type="move" name="PCRHERUK"/>
      <point x="457.0" y="178.0" type="line" name="XREZEBDK"/>
      <point x="402.0" y="119.0" type="line" name="TDGTECWF"/>
    </contour>
    <contour>
      <point x="194.0" y="0.0" type="move" name="VYPIWFWC"/>
      <point x="112" y="70" type="line" name="HDOGQIGX"/>
      <point x="-5.0" y="0.0" type="line" name="NZGOSKZA"/>
    </contour>
    <contour>
      <point x="619.0" y="0.0" type="move" name="CJOGMKGO"/>
      <point x="494.0" y="70.0" type="line" name="PSATSMVU"/>
      <point x="406.0" y="0.0" type="line" name="SYRAAAFE"/>
    </contour>
  </outline>
</glyph>
<glyph name="c" format="2">
  <advance width="541"/>
  <unicode hex="0063"/>
  <anchor x="289" y="0" name="center"/>
  <outline>
    <contour>
      <point x="424" y="509" type="move" smooth="yes" name="XKDNNISJ"/>
      <point x="393" y="522" name="JHGSHXTZ"/>
      <point x="358" y="531" name="NZYGLYIX"/>
      <point x="322" y="531" type="curve" smooth="yes" name="VBIECTLC"/>
      <point x="190" y="531" name="DUXSHEAK"/>
      <point x="102" y="434" name="YTCQMMWX"/>
      <point x="102" y="289" type="curve" smooth="yes" name="ICEUGGVM"/>
      <point x="102" y="144" name="FUXWZGHH"/>
      <point x="190" y="50" name="WOPMVIWM"/>
      <point x="322" y="50" type="curve" smooth="yes" name="EHZPPCDI"/>
      <point x="359" y="50" name="BFTXJBEV"/>
      <point x="393" y="58" name="GLRXLUZD"/>
      <point x="424" y="70" type="curve" smooth="yes" name="FCGFOXGR"/>
    </contour>
    <contour>
      <point x="486.0" y="558.0" type="move" name="ZVSPBBMH"/>
      <point x="424.0" y="509.0" type="line" name="PJYICBXU"/>
      <point x="486.0" y="396.0" type="line" name="JTRIQKLW"/>
    </contour>
    <contour>
      <point x="486.0" y="184.0" type="move" name="IQVNJISR"/>
      <point x="424.0" y="70.0" type="line" name="MBLKTCQA"/>
      <point x="486.0" y="22.0" type="line" name="LMCNVRTT"/>
    </contour>
  </outline>
</glyph>
<glyph name="d" format="2">
  <advance width="617"/>
  <unicode hex="0064"/>
  <outline>
    <contour>
      <point x="146.0" y="60.0" type="line"/>
      <point x="283" y="60" type="line" smooth="yes"/>
      <point x="420" y="60"/>
      <point x="515" y="150"/>
      <point x="515" y="291" type="curve" smooth="yes"/>
      <point x="515" y="430"/>
      <point x="420" y="520"/>
      <point x="283" y="520" type="curve" smooth="yes"/>
      <point x="146.0" y="520.0" type="line"/>
    </contour>
    <contour>
      <point x="218.0" y="119.0" type="move" name="MJVZATKE"/>
      <point x="146.0" y="60.0" type="line" name="ZWRNCKHQ"/>
      <point x="50" y="0" type="line" name="EFSHOVMG"/>
    </contour>
    <contour>
      <point x="50.0" y="580.0" type="move" name="PGAOAJGW"/>
      <point x="146.0" y="520.0" type="line" name="ZPXQPUIZ"/>
      <point x="217.0" y="461.0" type="line" name="MKNQWECE"/>
    </contour>
  </outline>
</glyph>
<glyph name="e" format="2">
  <advance width="484"/>
  <unicode hex="0065"/>
  <outline>
    <contour>
      <point x="331.0" y="300.0" type="move"/>
      <point x="146" y="300" type="line"/>
    </contour>
    <contour>
      <point x="358" y="514" type="move" smooth="yes"/>
      <point x="294" y="519"/>
      <point x="198" y="522"/>
      <point x="146" y="519" type="curve"/>
      <point x="146" y="300" type="line"/>
      <point x="146" y="61" type="line"/>
      <point x="198" y="58"/>
      <point x="291" y="60"/>
      <point x="356" y="66" type="curve" smooth="yes"/>
    </contour>
    <contour>
      <point x="420.0" y="580.0" type="move" name="IIYOJRYX"/>
      <point x="358.0" y="514.0" type="line" name="BUWWFJIJ"/>
      <point x="420.0" y="431.0" type="line" name="DMOCMXSX"/>
    </contour>
    <contour>
      <point x="438.0" y="160.0" type="move" name="NFCLXEKZ"/>
      <point x="356.0" y="66.0" type="line" name="DGWJLFZR"/>
      <point x="418.0" y="0.0" type="line" name="RDJQSJBO"/>
    </contour>
    <contour>
      <point x="393.0" y="379.0" type="move" name="UBWSCXEJ"/>
      <point x="331.0" y="300.0" type="line" name="OGPDTMUS"/>
      <point x="393.0" y="222.0" type="line" name="JMWBMAFS"/>
    </contour>
    <contour>
      <point x="50" y="580" type="move"/>
      <point x="146.0" y="519.0" type="line"/>
      <point x="217" y="461" type="line"/>
    </contour>
    <contour>
      <point x="50.0" y="0.0" type="move"/>
      <point x="146.0" y="61.0" type="line"/>
      <point x="218.0" y="119.0" type="line"/>
    </contour>
    <contour>
      <point x="214.0" y="357.0" type="move"/>
      <point x="146.0" y="300.0" type="line"/>
      <point x="214.0" y="243.0" type="line"/>
    </contour>
  </outline>
</glyph>
<glyph name="f" format="2">
  <advance width="463"/>
  <unicode hex="0066"/>
  <outline>
    <contour>
      <point x="146.0" y="62.0" type="move" name="ZOWTZWRX"/>
      <point x="146" y="282" type="line" name="LERTSGPD"/>
      <point x="146" y="520" type="line" name="PGIANGHH"/>
      <point x="219" y="521" name="NFBJWYZE"/>
      <point x="304" y="518" name="GXDJYOQL"/>
      <point x="361" y="514" type="curve" smooth="yes" name="DQZNILSX"/>
    </contour>
    <contour>
      <point x="334.0" y="282.0" type="move" name="GXZLUXGY"/>
      <point x="146.0" y="282.0" type="line" name="GUOPTDCV"/>
    </contour>
    <contour>
      <point x="423.0" y="580.0" type="move" name="IIYOJRYX"/>
      <point x="361.0" y="514.0" type="line" name="BUWWFJIJ"/>
      <point x="423.0" y="430.0" type="line" name="DMOCMXSX"/>
    </contour>
    <contour>
      <point x="396.0" y="360.0" type="move" name="UBWSCXEJ"/>
      <point x="334.0" y="282.0" type="line" name="OGPDTMUS"/>
      <point x="396.0" y="203.0" type="line" name="JMWBMAFS"/>
    </contour>
    <contour>
      <point x="50.0" y="580.0" type="move" name="UBANZNSJ"/>
      <point x="146.0" y="520.0" type="line" name="AFIEHJMV"/>
      <point x="217.0" y="461.0" type="line" name="UIYMDHKT"/>
    </contour>
    <contour>
      <point x="214.0" y="338.0" type="move" name="ELDPZOLK"/>
      <point x="146.0" y="282.0" type="line" name="HEZRROLU"/>
      <point x="214.0" y="224.0" type="line" name="PLXVYKZS"/>
    </contour>
    <contour>
      <point x="241.0" y="0.0" type="move" name="MJVZATKE"/>
      <point x="146.0" y="62.0" type="line" name="ZWRNCKHQ"/>
      <point x="50.0" y="0.0" type="line" name="EFSHOVMG"/>
    </contour>
  </outline>
</glyph>
<glyph name="g" format="2">
  <advance width="592"/>
  <unicode hex="0067"/>
  <outline>
    <contour>
      <point x="455" y="504" type="move" smooth="yes" name="SGAOLBOW"/>
      <point x="417" y="521" name="YISGHJFD"/>
      <point x="378" y="532" name="FVAHAGYQ"/>
      <point x="335" y="532" type="curve" smooth="yes" name="KXAXFTQE"/>
      <point x="196" y="532" name="XIXPJFCH"/>
      <point x="102" y="433" name="DWXPIJJT"/>
      <point x="102" y="288" type="curve" smooth="yes" name="SCEKPNBS"/>
      <point x="102" y="146" name="WMTMASSH"/>
      <point x="192" y="46" name="NGOUKZON"/>
      <point x="333" y="46" type="curve" smooth="yes" name="PKXGZMJX"/>
      <point x="380" y="46" name="BTQLOBHZ"/>
      <point x="424" y="60" name="NHMYXPJV"/>
      <point x="468" y="82" type="curve" name="QNCEOOHV"/>
      <point x="467" y="159" name="SXXSAUQH"/>
      <point x="466" y="206" name="GJNWTRRJ"/>
      <point x="465" y="238" type="curve" smooth="yes" name="XEFWLAHO"/>
    </contour>
    <contour>
      <point x="517.0" y="553.0" type="move" name="ZVSPBBMH"/>
      <point x="455.0" y="504.0" type="line" name="PJYICBXU"/>
      <point x="517.0" y="390.0" type="line" name="JTRIQKLW"/>
    </contour>
    <contour>
      <point x="373.0" y="300.0" type="move" name="EFSHOVMG"/>
      <point x="465.0" y="238.0" type="line" name="ZWRNCKHQ"/>
      <point x="545.0" y="300.0" type="line" name="MJVZATKE"/>
    </contour>
    <contour>
      <point x="402.0" y="119.0" type="move" name="BFJNLYWT"/>
      <point x="468.0" y="82.0" type="line" name="JBXGVBLG"/>
      <point x="533.0" y="40.0" type="line" name="PERFQIHH"/>
    </contour>
  </outline>
</glyph>
<glyph name="h" format="2">
  <advance width="633"/>
  <unicode hex="0068"/>
  <outline>
    <contour>
      <point x="146.0" y="518.0" type="move"/>
      <point x="146" y="304" type="line"/>
      <point x="146.0" y="62.0" type="line"/>
    </contour>
    <contour>
      <point x="488.0" y="518.0" type="move"/>
      <point x="488.0" y="304.0" type="line"/>
      <point x="488.0" y="62.0" type="line"/>
    </contour>
    <contour>
      <point x="488.0" y="304.0" type="move"/>
      <point x="146.0" y="304.0" type="line"/>
    </contour>
    <contour>
      <point x="241.0" y="0.0" type="move" name="JRLMZRMB"/>
      <point x="146.0" y="62.0" type="line" name="VWUMAPUP"/>
      <point x="50" y="0" type="line" name="XJBUXPFQ"/>
    </contour>
    <contour>
      <point x="50.0" y="580.0" type="move" name="XJBUXPFQ"/>
      <point x="146.0" y="518.0" type="line" name="VWUMAPUP"/>
      <point x="241.0" y="580.0" type="line" name="JRLMZRMB"/>
    </contour>
    <contour>
      <point x="392.0" y="580.0" type="move" name="XJBUXPFQ"/>
      <point x="488.0" y="518.0" type="line" name="VWUMAPUP"/>
      <point x="583.0" y="580.0" type="line" name="JRLMZRMB"/>
    </contour>
    <contour>
      <point x="583.0" y="0.0" type="move" name="XJBUXPFQ"/>
      <point x="488.0" y="62.0" type="line" name="VWUMAPUP"/>
      <point x="392.0" y="0.0" type="line" name="JRLMZRMB"/>
    </contour>
    <contour>
      <point x="50" y="0" type="curve"/>
      <point x="241" y="0" type="line"/>
      <point x="225" y="32"/>
      <point x="216" y="73"/>
      <point x="214" y="244" type="curve"/>
      <point x="419" y="244" type="line"/>
      <point x="417" y="73"/>
      <point x="408" y="32"/>
      <point x="392" y="0" type="curve"/>
      <point x="583" y="0" type="line"/>
      <point x="565" y="35"/>
      <point x="556" y="81"/>
      <point x="556" y="299" type="curve" smooth="yes"/>
      <point x="556" y="502"/>
      <point x="565" y="545"/>
      <point x="583" y="580" type="curve"/>
      <point x="392" y="580" type="line"/>
      <point x="408" y="549"/>
      <point x="417" y="512"/>
      <point x="419" y="365" type="curve"/>
      <point x="214" y="365" type="line"/>
      <point x="216" y="512"/>
      <point x="225" y="549"/>
      <point x="241" y="580" type="curve"/>
      <point x="50" y="580" type="line"/>
      <point x="68" y="545"/>
      <point x="77" y="502"/>
      <point x="77" y="299" type="curve" smooth="yes"/>
      <point x="77" y="81"/>
      <point x="68" y="35"/>
    </contour>
    <contour>
      <point x="419.0" y="244.0" type="move"/>
      <point x="488.0" y="304.0" type="line"/>
      <point x="419.0" y="365.0" type="line"/>
    </contour>
    <contour>
      <point x="214.0" y="365.0" type="move"/>
      <point x="146.0" y="304.0" type="line"/>
      <point x="214.0" y="244.0" type="line"/>
    </contour>
  </outline>
</glyph>
<glyph name="i" format="2">
  <advance width="301"/>
  <unicode hex="0069"/>
  <outline>
    <contour>
      <point x="151.0" y="518.0" type="move"/>
      <point x="151.0" y="62.0" type="line"/>
    </contour>
    <contour>
      <point x="246.0" y="0.0" type="move" name="JRLMZRMB"/>
      <point x="151.0" y="62.0" type="line" name="VWUMAPUP"/>
      <point x="55" y="0" type="line" name="XJBUXPFQ"/>
    </contour>
    <contour>
      <point x="55.0" y="580.0" type="move" name="XJBUXPFQ"/>
      <point x="151.0" y="518.0" type="line" name="VWUMAPUP"/>
      <point x="246.0" y="580.0" type="line" name="JRLMZRMB"/>
    </contour>
  </outline>
</glyph>
<glyph name="j" format="2">
  <advance width="432"/>
  <unicode hex="006A"/>
  <outline>
    <contour>
      <point x="83" y="62" type="move" smooth="yes" name="VNDSMEMM"/>
      <point x="106" y="54" name="ETOBFCSI"/>
      <point x="129" y="51" name="HAVFQPOY"/>
      <point x="150" y="51" type="curve" smooth="yes" name="SVOSDWFC"/>
      <point x="246" y="52" name="WYKOTPBT"/>
      <point x="300.0" y="114.0" name="BSWNXBFR"/>
      <point x="300" y="210" type="curve" smooth="yes" name="OPUNIANC"/>
      <point x="300" y="518" type="line" name="KYMHMFUM"/>
    </contour>
    <contour>
      <point x="204.0" y="580.0" type="move" name="NHCASXKF"/>
      <point x="300.0" y="518.0" type="line" name="UOIGNJPG"/>
      <point x="395.0" y="580.0" type="line" name="NLMIVDCT"/>
    </contour>
    <contour>
      <point x="21.0" y="10.0" type="move" name="WGXFBORU"/>
      <point x="83.0" y="62.0" type="line" name="GUZZEJWJ"/>
      <point x="21.0" y="175.0" type="line" name="PDOQBCMQ"/>
    </contour>
  </outline>
</glyph>
<glyph name="l" format="2">
  <advance width="451"/>
  <unicode hex="006C"/>
  <outline>
    <contour>
      <point x="146.0" y="518.0" type="move"/>
      <point x="146.0" y="64.0" type="line"/>
      <point x="243" y="62"/>
      <point x="313" y="64"/>
      <point x="354" y="68" type="curve" smooth="yes"/>
    </contour>
    <contour>
      <point x="50.0" y="580.0" type="move" name="GRZQCAGM"/>
      <point x="146.0" y="518.0" type="line" name="LXMSTDXV"/>
      <point x="241.0" y="580.0" type="line" name="MENRSPSU"/>
    </contour>
    <contour>
      <point x="416.0" y="0.0" type="move" name="RDJQSJBO"/>
      <point x="354.0" y="68.0" type="line" name="DGWJLFZR"/>
      <point x="436.0" y="165.0" type="line" name="NFCLXEKZ"/>
    </contour>
    <contour>
      <point x="50.0" y="0.0" type="move"/>
      <point x="146.0" y="64.0" type="line"/>
      <point x="217.0" y="126.0" type="line"/>
    </contour>
  </outline>
</glyph>
<glyph name="m" format="2">
  <advance width="786"/>
  <unicode hex="006D"/>
  <outline>
    <contour>
      <point x="645.0" y="62.0" type="move"/>
      <point x="645" y="519" type="line"/>
      <point x="557" y="519" type="line"/>
      <point x="391" y="63" type="line"/>
      <point x="230" y="519" type="line"/>
      <point x="138" y="519" type="line"/>
      <point x="138" y="62" type="line"/>
    </contour>
    <contour>
      <point x="227.0" y="0.0" type="move" name="MULFSODH"/>
      <point x="138.0" y="62.0" type="line" name="TCQYCOJQ"/>
      <point x="50.0" y="0.0" type="line" name="CMRVBPXT"/>
    </contour>
    <contour>
      <point x="736.0" y="0.0" type="move" name="OVNMQVHV"/>
      <point x="645.0" y="62.0" type="line" name="PHQTURTS"/>
      <point x="554.0" y="0.0" type="line" name="TGTXDCAV"/>
    </contour>
    <contour>
      <point x="50.0" y="580.0" type="move"/>
      <point x="138.0" y="519.0" type="line"/>
      <point x="201.0" y="412.0" type="line"/>
      <point x="230.0" y="519.0" type="line"/>
      <point x="296.0" y="580.0" type="line"/>
    </contour>
    <contour>
      <point x="499" y="580" type="move"/>
      <point x="557" y="519" type="line"/>
      <point x="580.0" y="417.0" type="line"/>
      <point x="645" y="519" type="line"/>
      <point x="645" y="519" type="line"/>
      <point x="736" y="580" type="line"/>
    </contour>
    <contour>
      <point x="344.0" y="0.0" type="move"/>
      <point x="391.0" y="63.0" type="line"/>
      <point x="429.0" y="0.0" type="line"/>
    </contour>
    <contour>
      <point x="391.0" y="63.0" type="move"/>
      <point x="395.0" y="230.0" type="line"/>
    </contour>
  </outline>
</glyph>
<glyph name="n" format="2">
  <advance width="629"/>
  <unicode hex="006E"/>
  <outline>
    <contour>
      <point x="140.0" y="62.0" type="move"/>
      <point x="140" y="519" type="line"/>
      <point x="488" y="60" type="line"/>
      <point x="488.0" y="518.0" type="line"/>
    </contour>
    <contour>
      <point x="231.0" y="0.0" type="move" name="VSXLDNKZ"/>
      <point x="140.0" y="62.0" type="line" name="SUKSFYIY"/>
      <point x="50.0" y="0.0" type="line" name="HDGFSUZS"/>
    </contour>
    <contour>
      <point x="398.0" y="580.0" type="move" name="ZLEMENNY"/>
      <point x="488.0" y="518.0" type="line" name="OXQATKAG"/>
      <point x="579.0" y="580.0" type="line" name="BUSIROAB"/>
    </contour>
    <contour>
      <point x="50.0" y="580.0" type="move" name="JYHUHSXA"/>
      <point x="140.0" y="519.0" type="line" name="OHDQCNUI"/>
      <point x="177.0" y="580.0" type="line" name="YQCUMHNN"/>
    </contour>
    <contour>
      <point x="569.0" y="0.0" type="move" name="AXQSEQZU"/>
      <point x="488.0" y="60.0" type="line" name="FIQCBHOY"/>
      <point x="442.0" y="0.0" type="line" name="ZJLCBJAV"/>
    </contour>
    <contour>
      <point x="140.0" y="518.0" type="move"/>
      <point x="204.0" y="315.0" type="line"/>
    </contour>
    <contour>
      <point x="425.0" y="257.0" type="move"/>
      <point x="488.0" y="60.0" type="line"/>
    </contour>
  </outline>
</glyph>
<glyph name="o" format="2">
  <advance width="638"/>
  <unicode hex="006F"/>
  <anchor x="319" y="585" name="top"/>
  <outline>
    <contour>
      <point x="319" y="48" type="curve" smooth="yes"/>
      <point x="191" y="48"/>
      <point x="102" y="146"/>
      <point x="102" y="291" type="curve" smooth="yes"/>
      <point x="102" y="436"/>
      <point x="191" y="532"/>
      <point x="319" y="532" type="curve" smooth="yes"/>
      <point x="446" y="532"/>
      <point x="536" y="435"/>
      <point x="536" y="291" type="curve" smooth="yes"/>
      <point x="536" y="146"/>
      <point x="446" y="48"/>
    </contour>
  </outline>
</glyph>
<glyph name="p" format="2">
  <advance width="541"/>
  <unicode hex="0070"/>
  <outline>
    <contour>
      <point x="146.0" y="62.0" type="move"/>
      <point x="146.0" y="520.0" type="line"/>
      <point x="296" y="520" type="line" smooth="yes"/>
      <point x="396" y="520"/>
      <point x="456" y="462"/>
      <point x="456" y="375" type="curve" smooth="yes"/>
      <point x="456" y="288"/>
      <point x="396" y="230"/>
      <point x="296" y="230" type="curve" smooth="yes"/>
      <point x="146.0" y="230.0" type="line"/>
    </contour>
    <contour>
      <point x="241.0" y="0.0" type="move" name="JRLMZRMB"/>
      <point x="146.0" y="62.0" type="line" name="VWUMAPUP"/>
      <point x="50" y="0" type="line" name="XJBUXPFQ"/>
    </contour>
    <contour>
      <point x="214.0" y="289.0" type="move"/>
      <point x="146.0" y="230.0" type="line"/>
      <point x="215.0" y="170.0" type="line"/>
    </contour>
    <contour>
      <point x="50.0" y="580.0" type="move"/>
      <point x="146.0" y="520.0" type="line"/>
      <point x="218.0" y="461.0" type="line"/>
    </contour>
  </outline>
</glyph>
<glyph name="q" format="2">
  <advance width="638"/>
  <unicode hex="0071"/>
  <outline>
    <contour>
      <point x="319" y="48" type="curve" smooth="yes"/>
      <point x="191" y="48"/>
      <point x="102" y="146"/>
      <point x="102" y="291" type="curve" smooth="yes"/>
      <point x="102" y="436"/>
      <point x="191" y="532"/>
      <point x="319" y="532" type="curve" smooth="yes"/>
      <point x="446" y="532"/>
      <point x="536" y="435"/>
      <point x="536" y="291" type="curve" smooth="yes"/>
      <point x="536" y="190"/>
      <point x="492" y="112"/>
      <point x="423" y="74" type="curve" smooth="yes"/>
      <point x="393" y="57"/>
      <point x="358" y="48"/>
    </contour>
    <contour>
      <point x="719" y="-61" type="move"/>
      <point x="615" y="-92"/>
      <point x="507" y="-60"/>
      <point x="423" y="74" type="curve" smooth="yes"/>
    </contour>
    <contour>
      <point x="392.0" y="-4.0" type="move"/>
      <point x="423.0" y="74.0" type="line"/>
      <point x="516.0" y="62.0" type="line"/>
    </contour>
  </outline>
</glyph>
<glyph name="r" format="2">
  <advance width="574"/>
  <unicode hex="0072"/>
  <outline>
    <contour>
      <point x="146.0" y="62.0" type="move"/>
      <point x="146" y="260" type="line"/>
      <point x="146" y="520" type="line"/>
      <point x="277" y="520" type="line" smooth="yes"/>
      <point x="376" y="520"/>
      <point x="436" y="468"/>
      <point x="436" y="390" type="curve" smooth="yes"/>
      <point x="436" y="322"/>
      <point x="390" y="272"/>
      <point x="321" y="260" type="curve"/>
      <point x="146" y="260" type="line"/>
    </contour>
    <contour>
      <point x="321" y="260" type="move"/>
      <point x="449.0" y="62.0" type="line"/>
    </contour>
    <contour>
      <point x="241.0" y="0.0" type="move" name="JRLMZRMB"/>
      <point x="146.0" y="62.0" type="line" name="VWUMAPUP"/>
      <point x="50" y="0" type="line" name="XJBUXPFQ"/>
    </contour>
    <contour>
      <point x="599.0" y="0.0" type="move" name="XJBUXPFQ"/>
      <point x="449.0" y="62.0" type="line" name="VWUMAPUP"/>
      <point x="379.0" y="0.0" type="line" name="JRLMZRMB"/>
    </contour>
    <contour>
      <point x="50.0" y="580.0" type="move"/>
      <point x="146.0" y="520.0" type="line"/>
      <point x="217.0" y="461.0" type="line"/>
    </contour>
    <contour>
      <point x="214.0" y="317.0" type="move"/>
      <point x="146.0" y="260.0" type="line"/>
      <point x="215.0" y="203.0" type="line"/>
    </contour>
    <contour>
      <point x="282.0" y="203.0" type="move"/>
      <point x="321.0" y="260.0" type="line"/>
      <point x="415.0" y="233.0" type="line"/>
    </contour>
  </outline>
</glyph>
<glyph name="s" format="2">
  <advance width="495"/>
  <unicode hex="0073"/>
  <outline>
    <contour>
      <point x="372" y="513" type="move" smooth="yes"/>
      <point x="340" y="524"/>
      <point x="307" y="531"/>
      <point x="276" y="531" type="curve" smooth="yes"/>
      <point x="181" y="531"/>
      <point x="121" y="486"/>
      <point x="121" y="418" type="curve" smooth="yes"/>
      <point x="121" y="346"/>
      <point x="190" y="317"/>
      <point x="256" y="290" type="curve" smooth="yes"/>
      <point x="323" y="263"/>
      <point x="391" y="234"/>
      <point x="391" y="164" type="curve" smooth="yes"/>
      <point x="391" y="92"/>
      <point x="326" y="46"/>
      <point x="228" y="47" type="curve" smooth="yes"/>
      <point x="192" y="47"/>
      <point x="153" y="55"/>
      <point x="114" y="69" type="curve" smooth="yes"/>
    </contour>
    <contour>
      <point x="319" y="160" type="curve" smooth="yes"/>
      <point x="319" y="131"/>
      <point x="290" y="107"/>
      <point x="234" y="107" type="curve" smooth="yes"/>
      <point x="175" y="107"/>
      <point x="107" y="132"/>
      <point x="52" y="175" type="curve"/>
      <point x="52" y="15" type="line"/>
      <point x="112" y="-1"/>
      <point x="168" y="-13"/>
      <point x="222" y="-13" type="curve" smooth="yes"/>
      <point x="362" y="-14"/>
      <point x="463" y="53"/>
      <point x="463" y="169" type="curve" smooth="yes"/>
      <point x="463" y="272"/>
      <point x="377" y="313"/>
      <point x="302" y="344" type="curve" smooth="yes"/>
      <point x="245" y="368"/>
      <point x="194" y="386"/>
      <point x="194" y="421" type="curve" smooth="yes"/>
      <point x="194" y="450"/>
      <point x="220" y="472"/>
      <point x="270" y="472" type="curve" smooth="yes"/>
      <point x="323" y="472"/>
      <point x="383" y="447"/>
      <point x="434" y="406" type="curve"/>
      <point x="434" y="564" type="line"/>
      <point x="380" y="579"/>
      <point x="331" y="590"/>
      <point x="283" y="590" type="curve" smooth="yes"/>
      <point x="142" y="590"/>
      <point x="48" y="521"/>
      <point x="48" y="414" type="curve" smooth="yes"/>
      <point x="48" y="307"/>
      <point x="136" y="266"/>
      <point x="211" y="236" type="curve" smooth="yes"/>
      <point x="269" y="213"/>
      <point x="319" y="195"/>
    </contour>
    <contour>
      <point x="434.0" y="564.0" type="move" name="XYGWLLJZ"/>
      <point x="372.0" y="513.0" type="line" name="KMXAMPOA"/>
      <point x="434.0" y="406.0" type="line" name="NRFSNWVX"/>
    </contour>
    <contour>
      <point x="52.0" y="15.0" type="move" name="SFQYRYIF"/>
      <point x="114.0" y="69.0" type="line" name="CJMHXZGC"/>
      <point x="52.0" y="175.0" type="line" name="NKUKGJGC"/>
    </contour>
  </outline>
</glyph>
<glyph name="t" format="2">
  <advance width="513"/>
  <unicode hex="0074"/>
  <outline>
    <contour>
      <point x="431" y="514" type="move" smooth="yes" name="NKHVAWFK"/>
      <point x="391" y="518" name="PLELAUPC"/>
      <point x="336" y="520" name="NSWTNSCK"/>
      <point x="256" y="520" type="curve" name="OTOUSEXD"/>
      <point x="177" y="520" name="KBQXGEUE"/>
      <point x="122" y="518" name="QWTEAYNH"/>
      <point x="82" y="514" type="curve" smooth="yes" name="OOJKFXCG"/>
    </contour>
    <contour>
      <point x="256.0" y="520.0" type="move" name="XDGNPDEP"/>
      <point x="256.0" y="62.0" type="line" name="XPVSQQSM"/>
    </contour>
    <contour>
      <point x="352.0" y="0.0" type="move" name="CEZKNGQM"/>
      <point x="256.0" y="62.0" type="line" name="PWIUNWLZ"/>
      <point x="161.0" y="0.0" type="line" name="PNQEINOA"/>
    </contour>
    <contour>
      <point x="493.0" y="580.0" type="move" name="OROOLRBM"/>
      <point x="431.0" y="514.0" type="line" name="WNRRHRKG"/>
      <point x="493.0" y="430.0" type="line" name="EPFSEUTY"/>
    </contour>
    <contour>
      <point x="20.0" y="430.0" type="move" name="VJVFZWUB"/>
      <point x="82.0" y="514.0" type="line" name="ACLETCGV"/>
      <point x="20.0" y="580.0" type="line" name="EAHZROVQ"/>
    </contour>
    <contour>
      <point x="185.0" y="459.0" type="move" name="GQRRFPDD"/>
      <point x="256.0" y="520.0" type="line" name="SIHADPNE"/>
      <point x="328.0" y="459.0" type="line" name="GXNTQBMM"/>
    </contour>
  </outline>
</glyph>
<glyph name="u" format="2">
  <advance width="620"/>
  <unicode hex="0075"/>
  <outline>
    <contour>
      <point x="484.0" y="518.0" type="move" name="UXUMBWAC"/>
      <point x="484" y="214" type="line" smooth="yes" name="FLWRLTFV"/>
      <point x="484" y="112" name="KLNHEYQM"/>
      <point x="414" y="48" name="VHEBRJZS"/>
      <point x="310" y="48" type="curve" smooth="yes" name="JNHIYEKA"/>
      <point x="206" y="48" name="IRPPFYFD"/>
      <point x="136" y="112" name="VTANEAMA"/>
      <point x="136" y="214" type="curve" smooth="yes" name="WQZNRNOZ"/>
      <point x="136.0" y="518.0" type="line" name="QIBKBWZR"/>
    </contour>
    <contour>
      <point x="40.0" y="580.0" type="move" name="XILHXCDH"/>
      <point x="136.0" y="518.0" type="line" name="RIZIZSMX"/>
      <point x="231.0" y="580.0" type="line" name="SQLLXOYY"/>
    </contour>
    <contour>
      <point x="389.0" y="580.0" type="move" name="WUBTDLXF"/>
      <point x="484.0" y="518.0" type="line" name="EZNWXIRW"/>
      <point x="580.0" y="580.0" type="line" name="TUMDPWAE"/>
    </contour>
  </outline>
</glyph>
<glyph name="v" format="2">
  <advance width="604"/>
  <unicode hex="0076"/>
  <outline>
    <contour>
      <point x="405.0" y="580.0" type="move" name="VYPIWFWC"/>
      <point x="488.0" y="510.0" type="line" name="HDOGQIGX"/>
      <point x="604.0" y="580.0" type="line" name="NZGOSKZA"/>
    </contour>
    <contour>
      <point x="0.0" y="580.0" type="move" name="CJOGMKGO"/>
      <point x="123.0" y="510.0" type="line" name="PSATSMVU"/>
      <point x="213.0" y="580.0" type="line" name="SYRAAAFE"/>
    </contour>
    <contour>
      <point x="123" y="510" type="move" smooth="yes"/>
      <point x="135" y="467"/>
      <point x="158" y="400"/>
      <point x="203" y="281" type="curve" smooth="yes"/>
      <point x="225" y="224"/>
      <point x="252" y="149"/>
      <point x="272" y="90" type="curve"/>
      <point x="338" y="90" type="line"/>
      <point x="358" y="148"/>
      <point x="386" y="224"/>
      <point x="408" y="281" type="curve" smooth="yes"/>
      <point x="453" y="401"/>
      <point x="476" y="468"/>
      <point x="488" y="510" type="curve" smooth="yes"/>
    </contour>
    <contour>
      <point x="227.0" y="0.0" type="move"/>
      <point x="272.0" y="90.0" type="line"/>
      <point x="309.0" y="186.0" type="line"/>
      <point x="338.0" y="90.0" type="line"/>
      <point x="377.0" y="0.0" type="line"/>
    </contour>
  </outline>
</glyph>
<glyph name="x" format="2">
  <advance width="595"/>
  <unicode hex="0078"/>
  <outline>
    <contour>
      <point x="134" y="62" type="move" name="MJUYIPEF"/>
      <point x="296" y="296" type="line" name="PNEEYJFV"/>
      <point x="449" y="518" type="line" name="IYMSHQXC"/>
    </contour>
    <contour>
      <point x="449" y="62" type="move" name="ADXSMPII"/>
      <point x="296" y="296" type="line" name="HVQSFQDU"/>
      <point x="155" y="518" type="line" name="LPYAMWGX"/>
    </contour>
    <contour>
      <point x="199.0" y="0.0" type="move" name="CESADCPM"/>
      <point x="134.0" y="62.0" type="line" name="UYRRNFBI"/>
      <point x="0.0" y="0.0" type="line" name="UFJPNAPW"/>
    </contour>
    <contour>
      <point x="9.0" y="580.0" type="move" name="LQUCHTKV"/>
      <point x="155.0" y="518.0" type="line" name="TFGPGBMT"/>
      <point x="226.0" y="580.0" type="line" name="PTZCKVNQ"/>
    </contour>
    <contour>
      <point x="595.0" y="0.0" type="move" name="KUAMPCNC"/>
      <point x="449.0" y="62.0" type="line" name="HBQDXPAG"/>
      <point x="378.0" y="0.0" type="line" name="JINXGVGP"/>
    </contour>
    <contour>
      <point x="384.0" y="580.0" type="move" name="AYTYSUYM"/>
      <point x="449.0" y="518.0" type="line" name="SFOVAORE"/>
      <point x="583.0" y="580.0" type="line" name="RXVFPTDF"/>
    </contour>
    <contour>
      <point x="221.0" y="290.0" type="move" name="AOYATBDS"/>
      <point x="296.0" y="296.0" type="line" name="RQGYOYTU"/>
      <point x="372.0" y="303.0" type="line" name="LYIZLTUO"/>
    </contour>
    <contour>
      <point x="303.0" y="411.0" type="move" name="AZIPQTIG"/>
      <point x="296.0" y="296.0" type="line" name="GGBIDWIU"/>
      <point x="289.0" y="185.0" type="line" name="JWVXDWZB"/>
    </contour>
  </outline>
</glyph>
<glyph name="y" format="2">
  <advance width="563"/>
  <unicode hex="0079"/>
  <outline>
    <contour>
      <point x="123.0" y="518.0" type="move"/>
      <point x="288" y="228" type="line"/>
      <point x="449.0" y="518.0" type="line"/>
    </contour>
    <contour>
      <point x="289.0" y="348.0" type="move"/>
      <point x="288.0" y="228.0" type="line"/>
      <point x="288.0" y="62.0" type="line"/>
    </contour>
    <contour>
      <point x="383.0" y="0.0" type="move" name="JRLMZRMB"/>
      <point x="288.0" y="62.0" type="line" name="VWUMAPUP"/>
      <point x="193.0" y="0.0" type="line" name="XJBUXPFQ"/>
    </contour>
    <contour>
      <point x="-5.0" y="580.0" type="move" name="ECUUNSVW"/>
      <point x="123.0" y="518.0" type="line" name="WZGBHWZC"/>
      <point x="196.0" y="580.0" type="line" name="SFLOLYUF"/>
    </contour>
    <contour>
      <point x="382.0" y="580.0" type="move" name="NUKKCNGE"/>
      <point x="449.0" y="518.0" type="line" name="POROMZGU"/>
      <point x="568.0" y="580.0" type="line" name="FQNYHCGX"/>
    </contour>
    <contour>
      <point x="216.0" y="232.0" type="move"/>
      <point x="288.0" y="228.0" type="line"/>
      <point x="360.0" y="232.0" type="line"/>
    </contour>
  </outline>
</glyph>
<glyph name="z" format="2">
  <advance width="516"/>
  <unicode hex="007A"/>
  <outline>
    <contour>
      <point x="111" y="514" type="move" smooth="yes"/>
      <point x="150" y="518"/>
      <point x="207.0" y="520.0"/>
      <point x="383" y="520" type="curve"/>
      <point x="132" y="60" type="line"/>
      <point x="297.0" y="60.0"/>
      <point x="354" y="62"/>
      <point x="394" y="66" type="curve" smooth="yes"/>
    </contour>
    <contour>
      <point x="49" y="430" type="move" name="DMOCMXSX"/>
      <point x="111" y="514" type="line"/>
      <point x="111" y="514" type="line" name="BUWWFJIJ"/>
      <point x="111" y="514" type="line"/>
      <point x="49" y="580" type="line" name="IIYOJRYX"/>
    </contour>
    <contour>
      <point x="476.0" y="160.0" type="move" name="NFCLXEKZ"/>
      <point x="394.0" y="66.0" type="line" name="DGWJLFZR"/>
      <point x="456.0" y="0.0" type="line" name="RDJQSJBO"/>
    </contour>
    <contour>
      <point x="22.0" y="0.0" type="move"/>
      <point x="132.0" y="60.0" type="line"/>
      <point x="242.0" y="120.0" type="line"/>
    </contour>
    <contour>
      <point x="274.0" y="460.0" type="move"/>
      <point x="383.0" y="520.0" type="line"/>
      <point x="494.0" y="580.0" type="line"/>
    </contour>
  </outline>
</glyph>
<glyph name="guillemetleft" format="2">
  <advance width="752"/>
  <unicode hex="00AB"/>
  <outline>
    <contour>
      <point x="392" y="580" type="move" name="RNPUBRYE"/>
      <point x="314" y="468" name="WWPBCIID"/>
      <point x="229" y="380" name="OPGHCQQZ"/>
      <point x="130" y="303" type="curve" name="XFVDEHYM"/>
      <point x="229" y="226" name="PIDYREUH"/>
      <point x="314" y="138" name="MXJMYGOB"/>
      <point x="392" y="26" type="curve" name="USFRIIDQ"/>
    </contour>
    <contour>
      <point x="5.0" y="303.0" type="move" name="EEAYBLZO"/>
      <point x="130.0" y="303.0" type="line" name="ZHQKIGWZ"/>
      <point x="255.0" y="303.0" type="line" name="BEYUIEYU"/>
    </contour>
    <contour>
      <point x="712.0" y="580.0" type="move" name="JEOFKJKQ"/>
      <point x="634.0" y="468.0" name="TZHVNBBU"/>
      <point x="549.0" y="380.0" name="TCYUDNQO"/>
      <point x="450.0" y="303.0" type="curve" name="FYUVCZHA"/>
      <point x="549.0" y="226.0" name="NBJXTDTL"/>
      <point x="634.0" y="138.0" name="UMFDQUJM"/>
      <point x="712.0" y="26.0" type="curve" name="JJHWDRJY"/>
    </contour>
    <contour>
      <point x="325.0" y="303.0" type="move" name="OTQWZOHN"/>
      <point x="450.0" y="303.0" type="line" name="OYFPIRYA"/>
      <point x="575.0" y="303.0" type="line" name="HOZCWOLS"/>
    </contour>
  </outline>
</glyph>
<glyph name="registered" format="2">
  <advance width="614"/>
  <unicode hex="00AE"/>
  <outline>
    <contour>
      <point x="239.0" y="355.0" type="move" name="ADAYMUCK"/>
      <point x="239.0" y="558.0" type="line" name="VQBWEGIT"/>
      <point x="307" y="558" type="line" smooth="yes" name="BNYIZYHA"/>
      <point x="354" y="558" name="RTJLDJEN"/>
      <point x="382" y="533" name="FEGNGUBY"/>
      <point x="382" y="494" type="curve" smooth="yes" name="LZBVDZGG"/>
      <point x="382" y="456" name="NTLPQSRT"/>
      <point x="354" y="431" name="HKNNXEQX"/>
      <point x="312" y="431" type="curve" smooth="yes" name="KCBIZWPX"/>
      <point x="239.0" y="431.0" type="line" name="TIEBDKAE"/>
    </contour>
    <contour>
      <point x="331" y="433" type="move" name="MEISDTZU"/>
      <point x="381" y="355" type="line" name="WHBHKJZN"/>
    </contour>
    <contour>
      <point x="287.0" y="313.0" type="move" name="KOJIMKWT"/>
      <point x="239.0" y="355.0" type="line" name="JVOHTAMY"/>
      <point x="190" y="313" type="line" name="RYQUQNTU"/>
    </contour>
    <contour>
      <point x="463.0" y="313.0" type="move" name="FVKEQWFC"/>
      <point x="381.0" y="355.0" type="line" name="YYVLVRXQ"/>
      <point x="354.0" y="313.0" type="line" name="HINVZEIF"/>
    </contour>
    <contour>
      <point x="276" y="461" type="move" name="AKLNOJPJ"/>
      <point x="239.0" y="431.0" type="line" name="NVKGGERG"/>
      <point x="276.0" y="401.0" type="line" name="XROWJQUK"/>
    </contour>
    <contour>
      <point x="313.0" y="401.0" type="move" name="QCHDLCZC"/>
      <point x="331.0" y="433.0" type="line" name="NQXSDAID"/>
      <point x="380.0" y="418.0" type="line" name="XHYJHUWG"/>
    </contour>
    <contour>
      <point x="190.0" y="589.0" type="move" name="FIFRNYND"/>
      <point x="239.0" y="558.0" type="line" name="PHIOXHUR"/>
      <point x="277.0" y="527.0" type="line" name="FVXFHINW"/>
    </contour>
  </outline>
</glyph>
<glyph name="macron" format="2">
  <advance width="490"/>
  <unicode hex="00AF"/>
  <anchor x="0" y="517" name="top"/>
  <anchor x="245" y="517" name="center"/>
  <outline>
    <contour>
      <point x="368.0" y="668.0" type="move" name="LOIGIQNO"/>
      <point x="122.0" y="668.0" type="line" name="SGSNEWGP"/>
    </contour>
    <contour>
      <point x="60.0" y="605.0" type="move" name="ISFROYVW"/>
      <point x="122.0" y="668.0" type="line" name="TTJRLDDN"/>
      <point x="60.0" y="730.0" type="line" name="WTSDMXAI"/>
    </contour>
    <contour>
      <point x="430.0" y="730.0" type="move" name="LULLFCSI"/>
      <point x="368.0" y="668.0" type="line" name="YDOCFSLH"/>
      <point x="430.0" y="605.0" type="line" name="KOWDZLFV"/>
    </contour>
  </outline>
</glyph>
<glyph name="twosuperior" format="2">
  <advance width="409"/>
  <unicode hex="00B2"/>
  <outline>
    <contour>
      <point x="295" y="323" type="move" smooth="yes" name="GHASQSRJ"/>
      <point x="255" y="319" name="IUSGEBQW"/>
      <point x="199" y="318" name="QXVKZFDZ"/>
      <point x="116" y="320" type="curve" name="ZQWDJGUT"/>
      <point x="168" y="432" name="YAXGVCBA"/>
      <point x="291" y="467" name="XOFAFDTX"/>
      <point x="291" y="562" type="curve" smooth="yes" name="IJTCSEFS"/>
      <point x="291" y="616" name="SXOELCQO"/>
      <point x="246" y="642" name="GLHWOSNT"/>
      <point x="175" y="642" type="curve" smooth="yes" name="KIVYLECJ"/>
      <point x="153" y="642" name="JCUBUTBD"/>
      <point x="130" y="639" name="XMAUUFKX"/>
      <point x="108" y="634" type="curve" smooth="yes" name="GBUAMFHQ"/>
    </contour>
    <contour>
      <point x="58.0" y="556.0" type="move" name="LEGWCFIG"/>
      <point x="108.0" y="634.0" type="line" name="NLYQWXVD"/>
      <point x="58.0" y="676.0" type="line" name="XXZQGZAX"/>
    </contour>
    <contour>
      <point x="359.0" y="392.0" type="move" name="FBVKOYGF"/>
      <point x="295.0" y="323.0" type="line" name="MWPUUIWI"/>
      <point x="345.0" y="271.0" type="line" name="KLBSXAKD"/>
    </contour>
    <contour>
      <point x="208.0" y="367.0" type="move" name="JSECTOTJ"/>
      <point x="116.0" y="320.0" type="line" name="KROWKOKR"/>
      <point x="42.0" y="271.0" type="line" name="FQMPGUQD"/>
    </contour>
  </outline>
</glyph>
<glyph name="acute" format="2">
  <advance width="408"/>
  <unicode hex="00B4"/>
  <anchor x="0" y="517" name="top"/>
  <anchor x="154" y="517" name="center"/>
  <outline>
    <contour>
      <point x="237.0" y="728.0" type="move" name="BZWZQKAG"/>
      <point x="177.0" y="636.0" type="line" name="JMGOEJYY"/>
    </contour>
    <contour>
      <point x="189.0" y="780.0" type="move" name="CNWFLDXU"/>
      <point x="237.0" y="728.0" type="line" name="OVHLHUYL"/>
      <point x="348.0" y="780.0" type="line" name="CSSRQEYN"/>
    </contour>
    <contour>
      <point x="214.0" y="584.0" type="move" name="FTPSNQRM"/>
      <point x="177.0" y="636.0" type="line" name="YMITEXIS"/>
      <point x="80.0" y="584.0" type="line" name="JEGYSVFE"/>
    </contour>
  </outline>
</glyph>
<glyph name="mu.math" format="2">
  <advance width="593"/>
  <unicode hex="00B5"/>
  <outline>
    <contour>
      <point x="130.0" y="-98.0" type="move" name="TBVDMASS"/>
      <point x="130.0" y="455.0" type="line" name="DNVIFFCF"/>
    </contour>
    <contour>
      <point x="456.0" y="62.0" type="move" name="IZKSHPBJ"/>
      <point x="456.0" y="455.0" type="line" name="MTIJPFXD"/>
    </contour>
    <contour>
      <point x="130.0" y="231.0" type="move" name="OCGIMCIV"/>
      <point x="130.0" y="121" name="MDWVMDLA"/>
      <point x="199" y="51.0" name="BBWZWYTK"/>
      <point x="293.0" y="51.0" type="curve" name="NNPUSCOF"/>
      <point x="387" y="51.0" name="EIGHZRGQ"/>
      <point x="456.0" y="121" name="QBLTCVTK"/>
      <point x="456.0" y="231.0" type="curve" name="OJIXUGQB"/>
    </contour>
    <contour>
      <point x="383" y="14" type="move" name="OADEEPPG"/>
      <point x="430" y="49" name="QLYTGWEP"/>
      <point x="456" y="120" name="CDMTAIKO"/>
      <point x="456" y="231" type="curve" name="CTASGFJT"/>
    </contour>
    <contour>
      <point x="130" y="231" type="move" name="HGCOQAYA"/>
      <point x="130" y="120" name="HCACWGSQ"/>
      <point x="155" y="50" name="UJTMGKCZ"/>
      <point x="202" y="15" type="curve" name="DUPBMZWP"/>
    </contour>
    <contour>
      <point x="202.0" y="-160.0" type="move" name="OFHERQHV"/>
      <point x="130.0" y="-98.0" type="line" name="DLHOZUPF"/>
      <point x="57.0" y="-160.0" type="line" name="WEDHULYX"/>
    </contour>
    <contour>
      <point x="528.0" y="0.0" type="move" name="RLVABTNK"/>
      <point x="456.0" y="62.0" type="line" name="XWQUDHIJ"/>
      <point x="383.0" y="0.0" type="line" name="XVWMQOXE"/>
    </contour>
    <contour>
      <point x="57.0" y="517.0" type="move" name="ZCQAVCVV"/>
      <point x="130.0" y="455.0" type="line" name="DDATYWUB"/>
      <point x="202.0" y="517.0" type="line" name="NDXMRVCN"/>
    </contour>
    <contour>
      <point x="383.0" y="517.0" type="move" name="IHCBEBGK"/>
      <point x="456.0" y="455.0" type="line" name="MQQYDVXP"/>
      <point x="528.0" y="517.0" type="line" name="PHGTJRWL"/>
    </contour>
  </outline>
</glyph>
<glyph name="onehalf" format="2">
  <advance width="940"/>
  <unicode hex="00BD"/>
  <outline>
    <contour>
      <point x="90" y="608" type="move" smooth="yes" name="LGAWLIOF"/>
      <point x="120" y="616" name="FPELBJBQ"/>
      <point x="156" y="624" name="RTEOSXII"/>
      <point x="197" y="631" type="curve" name="KSZPWNFU"/>
      <point x="195" y="603" name="MVMHRIMX"/>
      <point x="194" y="575" name="WZORDRQK"/>
      <point x="194" y="484" type="curve" smooth="yes" name="ZVAXMOYV"/>
      <point x="194" y="323" type="line" name="ECEMLJVK"/>
    </contour>
    <contour>
      <point x="272" y="271" type="move" name="HMCBDXWQ"/>
      <point x="194" y="323" type="line" name="NKQGKGLT"/>
      <point x="108" y="271" type="line" name="AHVUZJUJ"/>
    </contour>
    <contour>
      <point x="40" y="529" type="move" name="YKSBPDZL"/>
      <point x="90" y="608" type="line" name="SJSBMLGJ"/>
      <point x="40" y="653" type="line" name="EVCDMOCG"/>
    </contour>
    <contour>
      <point x="132" y="567" type="move" name="FBAXOHBA"/>
      <point x="197" y="631" type="line" name="PARNAAAU"/>
      <point x="265" y="694" type="line" name="LGHUHPJI"/>
    </contour>
    <contour>
      <point x="599" y="628" type="move" name="CVGMOIPZ"/>
      <point x="249" y="52" type="line" name="HAMZUUTH"/>
    </contour>
    <contour>
      <point x="281" y="0" type="move" name="JRLMZRMB"/>
      <point x="249" y="52" type="line" name="VWUMAPUP"/>
      <point x="155" y="0" type="line" name="XJBUXPFQ"/>
    </contour>
    <contour>
      <point x="567" y="680" type="move" name="ECUUNSVW"/>
      <point x="599" y="628" type="line" name="WZGBHWZC"/>
      <point x="693" y="680" type="line" name="SFLOLYUF"/>
    </contour>
    <contour>
      <point x="805" y="52" type="move" smooth="yes" name="GHASQSRJ"/>
      <point x="765" y="48" name="IUSGEBQW"/>
      <point x="709" y="47" name="QXVKZFDZ"/>
      <point x="626" y="49" type="curve" name="ZQWDJGUT"/>
      <point x="678" y="161" name="YAXGVCBA"/>
      <point x="801" y="196" name="XOFAFDTX"/>
      <point x="801" y="291" type="curve" smooth="yes" name="IJTCSEFS"/>
      <point x="801" y="345" name="SXOELCQO"/>
      <point x="756" y="371" name="GLHWOSNT"/>
      <point x="685" y="371" type="curve" smooth="yes" name="KIVYLECJ"/>
      <point x="663" y="371" name="JCUBUTBD"/>
      <point x="640" y="368" name="XMAUUFKX"/>
      <point x="618" y="363" type="curve" smooth="yes" name="GBUAMFHQ"/>
    </contour>
    <contour>
      <point x="568" y="285" type="move" name="LEGWCFIG"/>
      <point x="618" y="363" type="line" name="NLYQWXVD"/>
      <point x="568" y="405" type="line" name="XXZQGZAX"/>
    </contour>
    <contour>
      <point x="869" y="121" type="move" name="FBVKOYGF"/>
      <point x="805" y="52" type="line" name="MWPUUIWI"/>
      <point x="855" y="0" type="line" name="KLBSXAKD"/>
    </contour>
    <contour>
      <point x="718" y="96" type="move" name="JSECTOTJ"/>
      <point x="626" y="49" type="line" name="KROWKOKR"/>
      <point x="552" y="0" type="line" name="FQMPGUQD"/>
    </contour>
  </outline>
</glyph>
<glyph name="AE" format="2">
  <advance width="888"/>
  <unicode hex="00C6"/>
  <outline>
    <contour>
      <point x="751" y="69" type="move" smooth="yes" name="WQTISNDK"/>
      <point x="680" y="63" name="HUEQRWOZ"/>
      <point x="566" y="60" name="XASQUJDO"/>
      <point x="495" y="62" type="curve" name="BZBSRBAL"/>
      <point x="495" y="618" type="line" name="DARGRHBN"/>
    </contour>
    <contour>
      <point x="726.0" y="350.0" type="move" name="GRLQYXQK"/>
      <point x="495" y="350" type="line" name="GHHEYZBI"/>
    </contour>
    <contour>
      <point x="570.0" y="125.0" type="move" name="MJVZATKE"/>
      <point x="495.0" y="62.0" type="line" name="ZWRNCKHQ"/>
      <point x="396" y="0" type="line" name="EFSHOVMG"/>
    </contour>
    <contour>
      <point x="815.0" y="680.0" type="move" name="IIYOJRYX"/>
      <point x="753.0" y="611.0" type="line" name="BUWWFJIJ"/>
      <point x="815.0" y="524.0" type="line" name="DMOCMXSX"/>
    </contour>
    <contour>
      <point x="833.0" y="166.0" type="move" name="NFCLXEKZ"/>
      <point x="751.0" y="69.0" type="line" name="DGWJLFZR"/>
      <point x="813.0" y="0.0" type="line" name="RDJQSJBO"/>
    </contour>
    <contour>
      <point x="788.0" y="432.0" type="move" name="UBWSCXEJ"/>
      <point x="726.0" y="350.0" type="line" name="OGPDTMUS"/>
      <point x="788.0" y="269.0" type="line" name="JMWBMAFS"/>
    </contour>
    <contour>
      <point x="566.0" y="410.0" type="move" name="HAWFMGNR"/>
      <point x="495.0" y="350.0" type="line" name="ROFWTZTV"/>
      <point x="566.0" y="290.0" type="line" name="GOKVVXDN"/>
    </contour>
    <contour>
      <point x="495.0" y="202.0" type="move" name="XDNVSZHE"/>
      <point x="184" y="202" type="line" name="JZAWZJHR"/>
    </contour>
    <contour>
      <point x="124" y="70" type="move" smooth="yes" name="UXPHOCGC"/>
      <point x="136" y="100" name="CRPRVBMS"/>
      <point x="154" y="141" name="DBJCVQVE"/>
      <point x="184" y="202" type="curve" smooth="yes" name="WQJZXJHW"/>
      <point x="233" y="302" name="IYAWJIDS"/>
      <point x="330" y="500" name="JOLEZWUV"/>
      <point x="380" y="618" type="curve" name="EZKPJDVQ"/>
      <point x="495" y="618" type="line" smooth="yes" name="ZBZTEFBK"/>
      <point x="575" y="618" name="ZBUJAOGE"/>
      <point x="685" y="616" name="GQBFPDWB"/>
      <point x="753" y="611" type="curve" smooth="yes" name="PSTPYLRZ"/>
    </contour>
    <contour>
      <point x="210.0" y="0.0" type="move" name="VYPIWFWC"/>
      <point x="124" y="70" type="line" name="HDOGQIGX"/>
      <point x="-5.0" y="0.0" type="line" name="NZGOSKZA"/>
    </contour>
    <contour>
      <point x="329.0" y="680.0" type="move" name="FRQNRQUI"/>
      <point x="380.0" y="618.0" type="line" name="BASSKSOR"/>
      <point x="420.0" y="549.0" type="line" name="FMQQCCRM"/>
      <point x="495.0" y="618.0" type="line" name="BRYINAFI"/>
      <point x="570.0" y="555.0" type="line" name="SGUPTAKX"/>
    </contour>
    <contour>
      <point x="0" y="520" type="move" name="PQFFLUHC"/>
    </contour>
    <contour>
      <point x="287.0" y="265.0" type="move" name="QYFKFJMG"/>
      <point x="184.0" y="202.0" type="line" name="CGKBAATW"/>
      <point x="234.0" y="140.0" type="line" name="SBOVUESM"/>
    </contour>
    <contour>
      <point x="420.0" y="140.0" type="move" name="YMBZTOBS"/>
      <point x="495.0" y="202.0" type="line" name="GYGUFTND"/>
      <point x="423.0" y="265.0" type="line" name="NUDUHIGH"/>
    </contour>
  </outline>
</glyph>
<glyph name="Oslash" format="2">
  <advance width="740"/>
  <unicode hex="00D8"/>
  <outline>
    <contour>
      <point x="370" y="52" type="curve" smooth="yes" name="RPYKWFCD"/>
      <point x="318" y="52" name="IROWJNCH"/>
      <point x="271" y="66" name="PQXZNLYU"/>
      <point x="232" y="91" type="curve" smooth="yes" name="MXMUOLJZ"/>
      <point x="158" y="139" name="HAMKMHKH"/>
      <point x="113" y="228" name="NSRZYRQI"/>
      <point x="113" y="341" type="curve" smooth="yes" name="QANHAYHB"/>
      <point x="113" y="514" name="DMBFWVUC"/>
      <point x="218" y="628" name="GKBWTOYS"/>
      <point x="370" y="628" type="curve" smooth="yes" name="MNHMGCAT"/>
      <point x="421" y="628" name="HUCMDTZT"/>
      <point x="466" y="615" name="NUGZKYFZ"/>
      <point x="504" y="591" type="curve" smooth="yes" name="NLDUTOAL"/>
      <point x="580" y="544" name="NHKWTXID"/>
      <point x="627" y="455" name="PDVFKUWQ"/>
      <point x="627" y="341" type="curve" smooth="yes" name="VQTHJLGI"/>
      <point x="627" y="168" name="QTKOWZWI"/>
      <point x="521" y="52" name="WEQXORUT"/>
    </contour>
    <contour>
      <point x="180" y="-5" type="move" name="DBUPDOEV"/>
      <point x="232" y="91" type="line" name="NOUMVBWE"/>
      <point x="504" y="591" type="line" name="ITASRKSZ"/>
      <point x="556" y="686" type="line" name="VZLORXAS"/>
    </contour>
    <contour>
      <point x="203.0" y="-91.0" type="move" name="BWEIJSQE"/>
      <point x="180.0" y="-5.0" type="line" name="JMGOIMWV"/>
      <point x="95.0" y="-33.0" type="line" name="IHASKTEJ"/>
    </contour>
    <contour>
      <point x="533.0" y="772.0" type="move" name="RUQIUVVV"/>
      <point x="556.0" y="686.0" type="line" name="QJAJOXWH"/>
      <point x="641.0" y="714.0" type="line" name="YQGOYYFM"/>
    </contour>
    <contour>
      <point x="256.0" y="6.0" type="move" name="XLNRVPHJ"/>
      <point x="232.0" y="91.0" type="line" name="XEXFWLIJ"/>
      <point x="222.0" y="200.0" type="line" name="FBIDWFGM"/>
    </contour>
    <contour>
      <point x="150.0" y="68.0" type="move" name="KJKMLKIX"/>
      <point x="232.0" y="91.0" type="line" name="TWFWSKDY"/>
      <point x="319.0" y="122.0" type="line" name="EIHEWXUF"/>
    </contour>
    <contour>
      <point x="480.0" y="675.0" type="move" name="JPMWRXKP"/>
      <point x="504.0" y="591.0" type="line" name="MKEDBLEB"/>
      <point x="516.0" y="484.0" type="line" name="PBMPGKGS"/>
    </contour>
    <contour>
      <point x="587.0" y="615.0" type="move" name="FFBZCAKI"/>
      <point x="504.0" y="591.0" type="line" name="GNBGXYNF"/>
      <point x="417.0" y="559.0" type="line" name="AJZVJJZJ"/>
    </contour>
  </outline>
</glyph>
<glyph name="Thorn" format="2">
  <advance width="588"/>
  <unicode hex="00DE"/>
  <outline>
    <contour>
      <point x="156.0" y="618.0" type="move" name="HQEHAJOS"/>
      <point x="156.0" y="62.0" type="line" name="UQXBUTTQ"/>
    </contour>
    <contour>
      <point x="254.0" y="0.0" type="move" name="GZTAQTDC"/>
      <point x="156.0" y="62.0" type="line" name="BSXSTAWL"/>
      <point x="57" y="0" type="line" name="CJICGPNM"/>
    </contour>
    <contour>
      <point x="57.0" y="680.0" type="move" name="LFTGNCYU"/>
      <point x="156.0" y="618.0" type="line" name="VDZHMZNB"/>
      <point x="254.0" y="680.0" type="line" name="ERHQUYSQ"/>
    </contour>
    <contour>
      <point x="156.0" y="177.0" type="move" name="WDSCKCJO"/>
      <point x="317" y="177" type="line" smooth="yes" name="VVGZBLQG"/>
      <point x="428" y="177" name="CSOVNLCU"/>
      <point x="494" y="243" name="MGXXUPHU"/>
      <point x="494" y="340" type="curve" smooth="yes" name="FULSUMDG"/>
      <point x="494" y="437" name="WLSCMGWN"/>
      <point x="428" y="503" name="NEMYBFLD"/>
      <point x="317" y="503" type="curve" smooth="yes" name="GKQEDVPI"/>
      <point x="156.0" y="503.0" type="line" name="FSPABJHW"/>
    </contour>
    <contour>
      <point x="228.0" y="240.0" type="move" name="XEDMBOTE"/>
      <point x="156.0" y="177.0" type="line" name="VNVHKABN"/>
      <point x="231.0" y="115.0" type="line" name="HOEUMIDX"/>
    </contour>
    <contour>
      <point x="231.0" y="565.0" type="move" name="TXRLMBRZ"/>
      <point x="156.0" y="503.0" type="line" name="BQLWCUGI"/>
      <point x="227.0" y="440.0" type="line" name="GWJCSGHC"/>
    </contour>
  </outline>
</glyph>
<glyph name="ae" format="2">
  <advance width="777"/>
  <unicode hex="00E6"/>
  <outline>
    <contour>
      <point x="624" y="300" type="move"/>
      <point x="438" y="300" type="line"/>
    </contour>
    <contour>
      <point x="280.0" y="580.0" type="move"/>
      <point x="327.0" y="520.0" type="line"/>
      <point x="367.0" y="460.0" type="line"/>
      <point x="438" y="520" type="line"/>
      <point x="510.0" y="461.0" type="line"/>
    </contour>
    <contour>
      <point x="649" y="66" type="move" smooth="yes"/>
      <point x="607" y="61"/>
      <point x="533.0" y="59.0"/>
      <point x="438.0" y="60.0" type="curve"/>
      <point x="438" y="176" type="line"/>
      <point x="438" y="300" type="line"/>
      <point x="438" y="520" type="line"/>
    </contour>
    <contour>
      <point x="165" y="176" type="move"/>
      <point x="438.0" y="176.0" type="line"/>
    </contour>
    <contour>
      <point x="118" y="70" type="move" smooth="yes"/>
      <point x="165" y="176" type="line"/>
      <point x="327" y="520" type="line"/>
      <point x="438" y="520" type="line"/>
      <point x="479" y="520" type="line" smooth="yes"/>
      <point x="560" y="520"/>
      <point x="614" y="518"/>
      <point x="651" y="514" type="curve"/>
    </contour>
    <contour>
      <point x="713" y="580" type="move" name="IIYOJRYX"/>
      <point x="651" y="514" type="line"/>
      <point x="651" y="514" type="line" name="BUWWFJIJ"/>
      <point x="713" y="431" type="line" name="DMOCMXSX"/>
    </contour>
    <contour>
      <point x="731.0" y="160.0" type="move" name="NFCLXEKZ"/>
      <point x="649.0" y="66.0" type="line" name="DGWJLFZR"/>
      <point x="711.0" y="0.0" type="line" name="RDJQSJBO"/>
    </contour>
    <contour>
      <point x="686.0" y="379.0" type="move" name="UBWSCXEJ"/>
      <point x="624.0" y="300.0" type="line" name="OGPDTMUS"/>
      <point x="686.0" y="222.0" type="line" name="JMWBMAFS"/>
    </contour>
    <contour>
      <point x="192.0" y="0.0" type="move" name="VYPIWFWC"/>
      <point x="118" y="70" type="line" name="HDOGQIGX"/>
      <point x="-5.0" y="0.0" type="line" name="NZGOSKZA"/>
    </contour>
    <contour>
      <point x="343" y="0" type="curve"/>
      <point x="711" y="0" type="line"/>
      <point x="731" y="160" type="line"/>
      <point x="698" y="134"/>
      <point x="660" y="117"/>
      <point x="511" y="119" type="curve"/>
      <point x="509" y="151"/>
      <point x="508" y="190"/>
      <point x="507" y="243" type="curve"/>
      <point x="635" y="241"/>
      <point x="661" y="235"/>
      <point x="686" y="222" type="curve"/>
      <point x="686" y="379" type="line"/>
      <point x="660" y="365"/>
      <point x="635" y="359"/>
      <point x="507" y="357" type="curve"/>
      <point x="508" y="400"/>
      <point x="509" y="434"/>
      <point x="510" y="461" type="curve"/>
      <point x="653" y="462"/>
      <point x="685" y="445"/>
      <point x="713" y="430" type="curve"/>
      <point x="713" y="580" type="line"/>
      <point x="280" y="580" type="line"/>
      <point x="275" y="546"/>
      <point x="252" y="501"/>
      <point x="154" y="298" type="curve" smooth="yes"/>
      <point x="50" y="81"/>
      <point x="24" y="34"/>
      <point x="-5" y="0" type="curve"/>
      <point x="192" y="0" type="line"/>
      <point x="185" y="25"/>
      <point x="186" y="50"/>
      <point x="211" y="116" type="curve"/>
      <point x="366" y="116" type="line"/>
      <point x="362" y="48"/>
      <point x="354" y="22"/>
    </contour>
    <contour>
      <point x="367" y="460" type="line"/>
      <point x="370" y="408"/>
      <point x="370.0" y="314"/>
      <point x="370" y="236" type="curve"/>
      <point x="262" y="236" type="line"/>
    </contour>
    <contour>
      <point x="370.0" y="236.0" type="move"/>
      <point x="438.0" y="176.0" type="line"/>
      <point x="366.0" y="116.0" type="line"/>
    </contour>
    <contour>
      <point x="211.0" y="116.0" type="move"/>
      <point x="165.0" y="176.0" type="line"/>
      <point x="262.0" y="236.0" type="line"/>
    </contour>
    <contour>
      <point x="343.0" y="0.0" type="move"/>
      <point x="438.0" y="60.0" type="line"/>
      <point x="511.0" y="119.0" type="line"/>
    </contour>
    <contour>
      <point x="507.0" y="243.0" type="move"/>
      <point x="438.0" y="300.0" type="line"/>
      <point x="507.0" y="357.0" type="line"/>
    </contour>
  </outline>
</glyph>
<glyph name="ccedilla" format="2">
  <advance width="541"/>
  <unicode hex="00E7"/>
  <outline>
    <contour>
      <point x="424" y="509" type="move" smooth="yes"/>
      <point x="393" y="522"/>
      <point x="358" y="531"/>
      <point x="322" y="531" type="curve" smooth="yes"/>
      <point x="190" y="531"/>
      <point x="102" y="434"/>
      <point x="102" y="289" type="curve" smooth="yes"/>
      <point x="102" y="167"/>
      <point x="165" y="81"/>
      <point x="263" y="57" type="curve" smooth="yes"/>
      <point x="315.4761904761905" y="43.19047619047619"/>
      <point x="375.4054054054054" y="51.18918918918919"/>
      <point x="424" y="70" type="curve" smooth="yes"/>
    </contour>
    <contour>
      <point x="486.0" y="558.0" type="move" name="ZVSPBBMH"/>
      <point x="424.0" y="509.0" type="line" name="PJYICBXU"/>
      <point x="486.0" y="396.0" type="line" name="JTRIQKLW"/>
    </contour>
    <contour>
      <point x="486.0" y="184.0" type="move" name="IQVNJISR"/>
      <point x="424.0" y="70.0" type="line" name="MBLKTCQA"/>
      <point x="486.0" y="22.0" type="line" name="LMCNVRTT"/>
    </contour>
    <contour>
      <point x="140.0" y="-240.0" type="move" name="YKSBPDZL"/>
      <point x="202.0" y="-199.0" type="line" name="SJSBMLGJ"/>
      <point x="140.0" y="-114.0" type="line" name="EVCDMOCG"/>
    </contour>
    <contour>
      <point x="263" y="57" type="move" smooth="yes"/>
      <point x="240" y="-85"/>
      <point x="370" y="-52"/>
      <point x="370" y="-138" type="curve" smooth="yes"/>
      <point x="370" y="-204"/>
      <point x="302" y="-227"/>
      <point x="202" y="-199" type="curve"/>
    </contour>
    <contour>
      <point x="203" y="9" type="move"/>
      <point x="263.0" y="57.0" type="line"/>
      <point x="329" y="-12" type="line"/>
    </contour>
  </outline>
</glyph>
<glyph name="eth" format="2">
  <advance width="617"/>
  <unicode hex="00F0"/>
  <outline>
    <contour>
      <point x="256.0" y="290.0" type="move"/>
      <point x="146" y="290" type="line"/>
      <point x="67.0" y="290.0" type="line"/>
    </contour>
    <contour>
      <point x="146" y="60" type="line"/>
      <point x="283" y="60" type="line" smooth="yes"/>
      <point x="420" y="60"/>
      <point x="515" y="150"/>
      <point x="515" y="291" type="curve" smooth="yes"/>
      <point x="515" y="430"/>
      <point x="420" y="520"/>
      <point x="283" y="520" type="curve" smooth="yes"/>
      <point x="146" y="520" type="line"/>
      <point x="146" y="290" type="line"/>
    </contour>
    <contour>
      <point x="218" y="119" type="move" name="MJVZATKE"/>
      <point x="146" y="60" type="line" name="ZWRNCKHQ"/>
      <point x="50" y="0" type="line" name="EFSHOVMG"/>
    </contour>
    <contour>
      <point x="50" y="580" type="move" name="PGAOAJGW"/>
      <point x="146" y="520" type="line" name="ZPXQPUIZ"/>
      <point x="217" y="461" type="line" name="MKNQWECE"/>
    </contour>
    <contour>
      <point x="8.0" y="230.0" type="move" name="QXYCFKZZ"/>
      <point x="67.0" y="290.0" type="line" name="VKBDRAMS"/>
      <point x="8.0" y="351.0" type="line" name="ANSDBWON"/>
    </contour>
    <contour>
      <point x="318.0" y="351.0" type="move" name="AORGRKMK"/>
      <point x="256.0" y="290.0" type="line" name="KMRKYDKC"/>
      <point x="318.0" y="230.0" type="line" name="GHOKTHSE"/>
    </contour>
    <contour>
      <point x="214.0" y="351.0" type="move" name="QZHBYWVM"/>
      <point x="146.0" y="290.0" type="line" name="YCHSLTLB"/>
      <point x="77.0" y="230.0" type="line" name="ITLFGEOH"/>
    </contour>
    <contour>
      <point x="77.0" y="351.0" type="move" name="PNZWWWPV"/>
      <point x="146.0" y="290.0" type="line" name="TNRPUJAE"/>
      <point x="214.0" y="230.0" type="line" name="ETOPYSIG"/>
    </contour>
  </outline>
</glyph>
<glyph name="divide" format="2">
  <advance width="540"/>
  <unicode hex="00F7"/>
  <outline>
    <contour>
      <point x="438.0" y="310.0" type="move" name="JOXGGLFQ"/>
      <point x="102.0" y="310.0" type="line" name="VIEZJCLD"/>
    </contour>
    <contour>
      <point x="40.0" y="247.0" type="move" name="VBDMNSEC"/>
      <point x="102.0" y="310.0" type="line" name="QPJIXPYD"/>
      <point x="40.0" y="374.0" type="line" name="UMKHDELL"/>
    </contour>
    <contour>
      <point x="500.0" y="374.0" type="move" name="KAIYGMHE"/>
      <point x="438.0" y="310.0" type="line" name="BKPOULTT"/>
      <point x="500.0" y="247.0" type="line" name="OGJVPXWV"/>
    </contour>
    <contour>
      <point x="194.0" y="196.0" type="move" name="KQGWRPRS"/>
      <point x="269.0" y="121.0" type="line" name="LMYMNBDA"/>
      <point x="345.0" y="45.0" type="line" name="AKXMVJVB"/>
    </contour>
    <contour>
      <point x="194.0" y="45.0" type="move" name="PBMQSRWR"/>
      <point x="269.0" y="121.0" type="line" name="ZCZZPIFX"/>
      <point x="345.0" y="196.0" type="line" name="JTBASNNS"/>
    </contour>
    <contour>
      <point x="194.0" y="576.0" type="move" name="ASMEBPQP"/>
      <point x="269.0" y="501.0" type="line" name="NDZVQMDA"/>
      <point x="345.0" y="425.0" type="line" name="SSRCWBTC"/>
    </contour>
    <contour>
      <point x="194.0" y="425.0" type="move" name="ESERZDCK"/>
      <point x="269.0" y="501.0" type="line" name="NUGSHTGZ"/>
      <point x="345.0" y="576.0" type="line" name="AFUSJNNO"/>
    </contour>
  </outline>
</glyph>
<glyph name="oslash" format="2">
  <advance width="638"/>
  <unicode hex="00F8"/>
  <outline>
    <contour>
      <point x="80" y="-27" type="line"/>
      <point x="454" y="660" type="line"/>
      <point x="556" y="605" type="line"/>
      <point x="182" y="-82" type="line"/>
    </contour>
    <component base="o"/>
  </outline>
</glyph>
<glyph name="thorn" format="2">
  <advance width="541"/>
  <unicode hex="00FE"/>
  <outline>
    <contour>
      <point x="146.0" y="518.0" type="move"/>
      <point x="146" y="438" type="line"/>
      <point x="146" y="146" type="line"/>
      <point x="146.0" y="62.0" type="line"/>
    </contour>
    <contour>
      <point x="146.0" y="438.0" type="move"/>
      <point x="296" y="438" type="line" smooth="yes"/>
      <point x="396" y="438"/>
      <point x="456" y="380"/>
      <point x="456" y="292" type="curve" smooth="yes"/>
      <point x="456" y="204"/>
      <point x="396" y="146"/>
      <point x="296" y="146" type="curve" smooth="yes"/>
      <point x="146.0" y="146.0" type="line"/>
    </contour>
    <contour>
      <point x="241.0" y="0.0" type="move" name="JRLMZRMB"/>
      <point x="146.0" y="62.0" type="line" name="VWUMAPUP"/>
      <point x="50" y="0" type="line" name="XJBUXPFQ"/>
    </contour>
    <contour>
      <point x="50.0" y="580.0" type="move" name="XJBUXPFQ"/>
      <point x="146.0" y="518.0" type="line" name="VWUMAPUP"/>
      <point x="241.0" y="580.0" type="line" name="JRLMZRMB"/>
    </contour>
    <contour>
      <point x="219.0" y="87.0" type="move"/>
      <point x="146.0" y="146.0" type="line"/>
      <point x="214.0" y="206.0" type="line"/>
    </contour>
    <contour>
      <point x="221.0" y="497.0" type="move"/>
      <point x="146.0" y="438.0" type="line"/>
      <point x="215.0" y="378.0" type="line"/>
    </contour>
  </outline>
</glyph>
<glyph name="Aogonek" format="2">
  <advance width="670"/>
  <unicode hex="0104"/>
  <outline>
    <contour>
      <point x="113" y="70" type="move" name="GICMEZCQ"/>
      <point x="162" y="208" type="line" name="QDVCQSNO"/>
      <point x="304" y="600" type="line" name="OXQKBGAT"/>
      <point x="360" y="600" type="line" name="EXEWBVRM"/>
      <point x="503" y="208" type="line" name="KTYDZKVY"/>
      <point x="581" y="0" type="line" name="SSJOSDEF"/>
      <point x="536" y="-23" name="EGTMRWWP"/>
      <point x="514" y="-51" name="WDHGFABF"/>
      <point x="514" y="-80" type="curve" smooth="yes" name="WEIMKETS"/>
      <point x="514" y="-124" name="EXJEPRDG"/>
      <point x="550" y="-149" name="SSAFOUYI"/>
      <point x="612" y="-139" type="curve" smooth="yes" name="LZFNJBZV"/>
    </contour>
    <contour>
      <point x="503" y="208" type="move" name="AYNQMHFI"/>
      <point x="162" y="208" type="line" name="BTTYPPUR"/>
    </contour>
    <contour>
      <point x="258" y="680" type="move" name="OPZYABCV"/>
      <point x="304" y="600" type="line" name="CQBSJRTU"/>
      <point x="328" y="483" type="line" name="XMYUAXWT"/>
      <point x="360" y="600" type="line" name="RMQWFWLY"/>
      <point x="412" y="680" type="line" name="DIZUAXXI"/>
    </contour>
    <contour>
      <point x="251" y="271" type="move" name="HXSFFLIG"/>
      <point x="162" y="208" type="line" name="DKAOHZWI"/>
      <point x="210" y="146" type="line" name="AHKOLEYK"/>
    </contour>
    <contour>
      <point x="405" y="271" type="move" name="PCRHERUK"/>
      <point x="503" y="208" type="line" name="XREZEBDK"/>
      <point x="446" y="146" type="line" name="TDGTECWF"/>
    </contour>
    <contour>
      <point x="200" y="0" type="move" name="VYPIWFWC"/>
      <point x="113" y="70" type="line" name="HDOGQIGX"/>
      <point x="-5" y="0" type="line" name="NZGOSKZA"/>
    </contour>
    <contour>
      <point x="304" y="600" type="move" name="YUMJSPXG"/>
    </contour>
    <contour>
      <point x="360" y="600" type="move" name="XAZLIEJS"/>
    </contour>
    <contour>
      <point x="665" y="-179" type="move" name="ODNGPBPP"/>
      <point x="612" y="-139" type="line" name="ANKKAKBP"/>
      <point x="675" y="-66" type="line" name="QHQDLZZD"/>
    </contour>
    <contour>
      <point x="495" y="-5" type="move" name="GNATEMUD"/>
      <point x="581.0" y="0.0" type="line" name="KPPCEDNV"/>
      <point x="675" y="0" type="line" name="FBBEEMBR"/>
    </contour>
  </outline>
</glyph>
<glyph name="aogonek" format="2">
  <advance width="614"/>
  <unicode hex="0105"/>
  <outline>
    <contour>
      <point x="457" y="178" type="move" name="BESIJXUO"/>
      <point x="150" y="178" type="line" name="VWYCIHYS"/>
    </contour>
    <contour>
      <point x="232" y="580" type="move" name="OPZYABCV"/>
      <point x="278" y="520" type="line" name="CQBSJRTU"/>
      <point x="300" y="403" type="line" name="XMYUAXWT"/>
      <point x="329" y="520" type="line" name="RMQWFWLY"/>
      <point x="382" y="580" type="line" name="DIZUAXXI"/>
    </contour>
    <contour>
      <point x="237" y="238" type="move" name="HXSFFLIG"/>
      <point x="150" y="178" type="line" name="DKAOHZWI"/>
      <point x="198" y="119" type="line" name="AHKOLEYK"/>
    </contour>
    <contour>
      <point x="363" y="238" type="move" name="PCRHERUK"/>
      <point x="457" y="178" type="line" name="XREZEBDK"/>
      <point x="402" y="119" type="line" name="TDGTECWF"/>
    </contour>
    <contour>
      <point x="194" y="0" type="move" name="VYPIWFWC"/>
      <point x="112" y="70" type="line" name="HDOGQIGX"/>
      <point x="-5" y="0" type="line" name="NZGOSKZA"/>
    </contour>
    <contour>
      <point x="112" y="70" type="move" name="DWBTBMBK"/>
      <point x="150" y="178" type="line" name="LENYTSVU"/>
      <point x="278" y="520" type="line" name="FHEUWBJW"/>
      <point x="329" y="520" type="line" name="SEEMRYEY"/>
      <point x="457" y="178" type="line" name="BEEWACMD"/>
      <point x="525" y="0" type="line" name="UQOTDQQS"/>
      <point x="480" y="-23" name="EGTMRWWP"/>
      <point x="458" y="-51" name="WDHGFABF"/>
      <point x="458" y="-80" type="curve" smooth="yes" name="WEIMKETS"/>
      <point x="458" y="-124" name="EXJEPRDG"/>
      <point x="494" y="-149" name="SSAFOUYI"/>
      <point x="556" y="-139" type="curve" smooth="yes" name="LZFNJBZV"/>
    </contour>
    <contour>
      <point x="609" y="-179" type="move" name="ODNGPBPP"/>
      <point x="556" y="-139" type="line" name="ANKKAKBP"/>
      <point x="619" y="-66" type="line" name="QHQDLZZD"/>
    </contour>
    <contour>
      <point x="442" y="-5" type="move" name="GNATEMUD"/>
      <point x="525.0" y="0.0" type="line" name="KPPCEDNV"/>
      <point x="619" y="0" type="line" name="FBBEEMBR"/>
    </contour>
  </outline>
</glyph>
<glyph name="eogonek" format="2">
  <advance width="484"/>
  <unicode hex="0119"/>
  <outline>
    <contour>
      <point x="331" y="300" type="move" name="CICHUSXK"/>
      <point x="146" y="300" type="line" name="NJETCQRE"/>
    </contour>
    <contour>
      <point x="358" y="514" type="move" smooth="yes" name="YIJRQYXC"/>
      <point x="294" y="519" name="VJEHZRKQ"/>
      <point x="198" y="522" name="IANXWSND"/>
      <point x="146" y="519" type="curve" name="BTUNAMTW"/>
      <point x="146" y="300" type="line" name="OQDOSWDY"/>
      <point x="146" y="61" type="line" name="LQNMDNKK"/>
      <point x="198" y="58" name="SDYDOOYS"/>
      <point x="291" y="60" name="DQYVUWFN"/>
      <point x="356" y="66" type="curve" smooth="yes" name="AQNNCKZT"/>
    </contour>
    <contour>
      <point x="420" y="580" type="move" name="IIYOJRYX"/>
      <point x="358" y="514" type="line" name="BUWWFJIJ"/>
      <point x="420" y="431" type="line" name="DMOCMXSX"/>
    </contour>
    <contour>
      <point x="438" y="160" type="move" name="NFCLXEKZ"/>
      <point x="356" y="66" type="line" name="DGWJLFZR"/>
      <point x="418" y="0" type="line" name="RDJQSJBO"/>
    </contour>
    <contour>
      <point x="393" y="379" type="move" name="UBWSCXEJ"/>
      <point x="331" y="300" type="line" name="OGPDTMUS"/>
      <point x="393" y="222" type="line" name="JMWBMAFS"/>
    </contour>
    <contour>
      <point x="50" y="580" type="move" name="LZXKDDDL"/>
      <point x="146" y="519" type="line" name="XKKFLDUD"/>
      <point x="217" y="461" type="line" name="UIJAQXHG"/>
    </contour>
    <contour>
      <point x="50" y="0" type="move" name="MDSIAWQI"/>
      <point x="146" y="61" type="line" name="HDDCNYEO"/>
      <point x="218" y="119" type="line" name="APMWXQKH"/>
    </contour>
    <contour>
      <point x="214" y="357" type="move" name="YKWNNPJU"/>
      <point x="146" y="300" type="line" name="QLSMBTNH"/>
      <point x="214" y="243" type="line" name="ZFXAFKKW"/>
    </contour>
    <contour>
      <point x="356" y="66" type="move" smooth="yes" name="NUMFMCUI"/>
      <point x="283" y="31" name="PEIQWEPF"/>
      <point x="257" y="-11" name="RMLXMLDM"/>
      <point x="257" y="-63" type="curve" smooth="yes" name="XSQPFQPJ"/>
      <point x="257" y="-123" name="BIWPZCOX"/>
      <point x="293" y="-149" name="RRVQMMNG"/>
      <point x="355" y="-140" type="curve" smooth="yes" name="EQOUNWFB"/>
    </contour>
    <contour>
      <point x="408.0" y="-179.0" type="move" name="BCZEFWIW"/>
      <point x="355.0" y="-140.0" type="line" name="FMNHULSM"/>
      <point x="418.0" y="-66.0" type="line" name="SJTLXCVS"/>
    </contour>
    <contour>
      <point x="219.0" y="0.0" type="move" name="RVIABPMT"/>
      <point x="356.0" y="66.0" type="line" name="WXHBBEKB"/>
    </contour>
  </outline>
</glyph>
<glyph name="Hbar" format="2">
  <advance width="723"/>
  <unicode hex="0126"/>
  <outline>
    <contour>
      <point x="166.0" y="618.0" type="move"/>
      <point x="166" y="477" type="line"/>
      <point x="166" y="284" type="line"/>
      <point x="166.0" y="62.0" type="line"/>
    </contour>
    <contour>
      <point x="558.0" y="618.0" type="move"/>
      <point x="558" y="477" type="line"/>
      <point x="558" y="284" type="line"/>
      <point x="558.0" y="62.0" type="line"/>
    </contour>
    <contour>
      <point x="637.0" y="477.0" type="move"/>
      <point x="558" y="477" type="line"/>
      <point x="166" y="477" type="line"/>
      <point x="86.0" y="477.0" type="line"/>
    </contour>
    <contour>
      <point x="558" y="284" type="move"/>
      <point x="166" y="284" type="line"/>
    </contour>
    <contour>
      <point x="237.0" y="348.0" type="move" name="BHAZYCJU"/>
      <point x="166.0" y="284.0" type="line" name="LKPQIGAZ"/>
      <point x="238.0" y="221.0" type="line" name="CGSXIVVA"/>
    </contour>
    <contour>
      <point x="264.0" y="0.0" type="move" name="JRLMZRMB"/>
      <point x="166.0" y="62.0" type="line" name="VWUMAPUP"/>
      <point x="67" y="0" type="line" name="XJBUXPFQ"/>
    </contour>
    <contour>
      <point x="67.0" y="680.0" type="move" name="ECUUNSVW"/>
      <point x="166.0" y="618.0" type="line" name="WZGBHWZC"/>
      <point x="264.0" y="680.0" type="line" name="SFLOLYUF"/>
    </contour>
    <contour>
      <point x="656.0" y="0.0" type="move" name="PXIBMFLN"/>
      <point x="558.0" y="62.0" type="line" name="YWMEWBPF"/>
      <point x="459.0" y="0.0" type="line" name="RZJHOCJT"/>
    </contour>
    <contour>
      <point x="459.0" y="680.0" type="move" name="NUKKCNGE"/>
      <point x="558.0" y="618.0" type="line" name="POROMZGU"/>
      <point x="656.0" y="680.0" type="line" name="FQNYHCGX"/>
    </contour>
    <contour>
      <point x="485.0" y="221.0" type="move" name="CGSXIVVA"/>
      <point x="558.0" y="284.0" type="line" name="LKPQIGAZ"/>
      <point x="486.0" y="348.0" type="line" name="BHAZYCJU"/>
    </contour>
    <contour>
      <point x="91.0" y="537.0" type="move" name="BHAZYCJU"/>
      <point x="166.0" y="477.0" type="line" name="LKPQIGAZ"/>
      <point x="237.0" y="417.0" type="line" name="CGSXIVVA"/>
    </contour>
    <contour>
      <point x="94.0" y="417.0" type="move" name="CGSXIVVA"/>
      <point x="166.0" y="477.0" type="line" name="LKPQIGAZ"/>
      <point x="240.0" y="537.0" type="line" name="BHAZYCJU"/>
    </contour>
    <contour>
      <point x="486.0" y="417.0" type="move" name="CGSXIVVA"/>
      <point x="558.0" y="477.0" type="line" name="LKPQIGAZ"/>
      <point x="632.0" y="537.0" type="line" name="BHAZYCJU"/>
    </contour>
    <contour>
      <point x="483.0" y="537.0" type="move" name="BHAZYCJU"/>
      <point x="558.0" y="477.0" type="line" name="LKPQIGAZ"/>
      <point x="629.0" y="417.0" type="line" name="CGSXIVVA"/>
    </contour>
    <contour>
      <point x="24.0" y="417.0" type="move" name="QXYCFKZZ"/>
      <point x="86.0" y="477.0" type="line" name="VKBDRAMS"/>
      <point x="24.0" y="537.0" type="line" name="ANSDBWON"/>
    </contour>
    <contour>
      <point x="699.0" y="537.0" type="move" name="ANSDBWON"/>
      <point x="637.0" y="477.0" type="line" name="VKBDRAMS"/>
      <point x="699.0" y="417.0" type="line" name="QXYCFKZZ"/>
    </contour>
  </outline>
</glyph>
<glyph name="hbar" format="2">
  <advance width="653"/>
  <unicode hex="0127"/>
  <outline>
    <contour>
      <point x="498.0" y="518.0" type="move" name="RJRSANOG"/>
      <point x="498" y="420" type="line" name="AZVMCRWR"/>
      <point x="498" y="244" type="line" name="TGQVJHIE"/>
      <point x="498.0" y="62.0" type="line" name="IGYVEEIQ"/>
    </contour>
    <contour>
      <point x="573.0" y="420.0" type="move" name="EFBRRSJQ"/>
      <point x="498" y="420" type="line" name="VYNFYBJF"/>
      <point x="156" y="420" type="line" name="ACPEXBZH"/>
      <point x="80.0" y="420.0" type="line" name="KZYBCZNZ"/>
    </contour>
    <contour>
      <point x="498" y="244" type="move" name="GSCLUQLU"/>
      <point x="156" y="244" type="line" name="UXNQHSPO"/>
    </contour>
    <contour>
      <point x="156.0" y="518.0" type="move" name="VUBSWUUY"/>
      <point x="156" y="420" type="line" name="BRCENSQC"/>
      <point x="156" y="244" type="line" name="VQOVQLFH"/>
      <point x="156.0" y="62.0" type="line" name="CPVANCQX"/>
    </contour>
    <contour>
      <point x="251.0" y="0.0" type="move" name="MSPVXIVA"/>
      <point x="156.0" y="62.0" type="line" name="XJDXIOAJ"/>
      <point x="60" y="0" type="line" name="ILSEGKGD"/>
    </contour>
    <contour>
      <point x="60.0" y="580.0" type="move" name="BEBWNKAO"/>
      <point x="156.0" y="518.0" type="line" name="TJIBJVRP"/>
      <point x="251.0" y="580.0" type="line" name="RRLQSTOY"/>
    </contour>
    <contour>
      <point x="402.0" y="580.0" type="move" name="DSDQXQKO"/>
      <point x="498.0" y="518.0" type="line" name="BLWQSAVY"/>
      <point x="593.0" y="580.0" type="line" name="XYYREBFR"/>
    </contour>
    <contour>
      <point x="593.0" y="0.0" type="move" name="HMUPUYID"/>
      <point x="498.0" y="62.0" type="line" name="CSUSZCRF"/>
      <point x="402.0" y="0.0" type="line" name="ERHHQCVX"/>
    </contour>
    <contour>
      <point x="428.0" y="184.0" type="move" name="MZHGWMOA"/>
      <point x="498.0" y="244.0" type="line" name="HNIVCQBC"/>
      <point x="429.0" y="305.0" type="line" name="ESOQFXBZ"/>
    </contour>
    <contour>
      <point x="224.0" y="305.0" type="move" name="ZDEVMIEV"/>
      <point x="156.0" y="244.0" type="line" name="DKEKAWTN"/>
      <point x="225.0" y="184.0" type="line" name="EPHRJWKL"/>
    </contour>
    <contour>
      <point x="228.0" y="475.0" type="move" name="UQJJKDRX"/>
      <point x="156.0" y="420.0" type="line" name="FJXLBDCS"/>
      <point x="87.0" y="364.0" type="line" name="BTCHKBJG"/>
    </contour>
    <contour>
      <point x="224.0" y="364.0" type="move" name="YXWMEEYV"/>
      <point x="156.0" y="420.0" type="line" name="ZCIPKHWE"/>
      <point x="83.0" y="475.0" type="line" name="ZUUGPIJI"/>
    </contour>
    <contour>
      <point x="566.0" y="364.0" type="move" name="GXKHHSOW"/>
      <point x="498.0" y="420.0" type="line" name="PDNBYBCS"/>
      <point x="425.0" y="475.0" type="line" name="ZPFJMDYA"/>
    </contour>
    <contour>
      <point x="570.0" y="475.0" type="move" name="LGWVUSPB"/>
      <point x="498.0" y="420.0" type="line" name="TAVZRLLT"/>
      <point x="429.0" y="364.0" type="line" name="NQCQKULN"/>
    </contour>
    <contour>
      <point x="18.0" y="475.0" type="move" name="GYKTTQZL"/>
      <point x="80.0" y="420.0" type="line" name="VCSCYDIV"/>
      <point x="18.0" y="364.0" type="line" name="QMMOFCIA"/>
    </contour>
    <contour>
      <point x="635.0" y="364.0" type="move" name="MUOMQQEP"/>
      <point x="573.0" y="420.0" type="line" name="JTLNXEIG"/>
      <point x="635.0" y="475.0" type="line" name="SMLAQZTB"/>
    </contour>
  </outline>
</glyph>
<glyph name="Iogonek" format="2">
  <advance width="319"/>
  <unicode hex="012E"/>
  <outline>
    <contour>
      <point x="61" y="680" type="move" name="ECUUNSVW"/>
      <point x="160" y="618" type="line" name="WZGBHWZC"/>
      <point x="258" y="680" type="line" name="SFLOLYUF"/>
    </contour>
    <contour>
      <point x="247" y="-179" type="move"/>
      <point x="194" y="-139" type="line"/>
      <point x="257" y="-66" type="line"/>
    </contour>
    <contour>
      <point x="160" y="618" type="move" name="JKIZUAWY"/>
      <point x="160" y="0" type="line"/>
      <point x="115" y="-24"/>
      <point x="96" y="-51"/>
      <point x="96" y="-80" type="curve" smooth="yes"/>
      <point x="96" y="-124"/>
      <point x="132" y="-149"/>
      <point x="194" y="-139" type="curve" smooth="yes"/>
    </contour>
    <contour>
      <point x="258" y="0" type="move"/>
      <point x="160.0" y="0.0" type="line"/>
      <point x="82" y="-4" type="line"/>
    </contour>
  </outline>
</glyph>
<glyph name="iogonek" format="2">
  <advance width="301"/>
  <unicode hex="012F"/>
  <outline>
    <contour>
      <point x="151" y="518" type="move" name="NGQIBTUD"/>
      <point x="151.0" y="0.0" type="line" name="ANENNTSD"/>
      <point x="106" y="-24" name="XYOIQTTN"/>
      <point x="85" y="-51" name="EFWKDPEW"/>
      <point x="85" y="-80" type="curve" smooth="yes" name="OTQXPXYY"/>
      <point x="85" y="-124" name="PATWCFIQ"/>
      <point x="121" y="-149" name="VMHWVLNM"/>
      <point x="183" y="-139" type="curve" smooth="yes" name="DTEFPQTF"/>
    </contour>
    <contour>
      <point x="55" y="580" type="move" name="VBAJLJFP"/>
      <point x="151" y="518" type="line" name="LAGTBZLV"/>
      <point x="246" y="580" type="line" name="WBBMDHZA"/>
    </contour>
    <contour>
      <point x="236.0" y="-179.0" type="move" name="BCZEFWIW"/>
      <point x="183.0" y="-139.0" type="line" name="FMNHULSM"/>
      <point x="246.0" y="-66.0" type="line" name="SJTLXCVS"/>
    </contour>
    <contour>
      <point x="247" y="0" type="move" name="XNBONXZA"/>
      <point x="151.0" y="0.0" type="line" name="EYKBIHSN"/>
      <point x="71" y="-4" type="line" name="FIBJRZXC"/>
    </contour>
  </outline>
</glyph>
<glyph name="Lslash" format="2">
  <advance width="514"/>
  <unicode hex="0141"/>
  <outline>
    <contour>
      <point x="166" y="66" type="move" name="ZWRNCKHQ"/>
      <point x="67" y="0" type="line" name="EFSHOVMG"/>
    </contour>
    <contour>
      <point x="241" y="132" type="move" name="MJVZATKE"/>
      <point x="166" y="66" type="line" name="NIRFAUYK"/>
    </contour>
    <contour>
      <point x="67" y="680" type="move" name="GRZQCAGM"/>
      <point x="166" y="618" type="line" name="LXMSTDXV"/>
      <point x="264" y="680" type="line" name="MENRSPSU"/>
    </contour>
    <contour>
      <point x="469" y="0" type="move" name="RDJQSJBO"/>
      <point x="407" y="74" type="line" name="DGWJLFZR"/>
      <point x="489" y="171" type="line" name="NFCLXEKZ"/>
    </contour>
    <contour>
      <point x="166" y="618" type="move" name="DARGRHBN"/>
      <point x="166" y="381" type="line"/>
      <point x="166" y="66" type="line" name="BZBSRBAL"/>
      <point x="407" y="74" type="line" name="NYOGKXYE"/>
    </contour>
    <contour>
      <point x="307.0" y="422.0" type="move"/>
      <point x="166" y="381" type="line"/>
      <point x="86.0" y="358.0" type="line"/>
    </contour>
    <contour>
      <point x="24" y="272" type="move" name="QXYCFKZZ"/>
      <point x="86" y="358" type="line" name="VKBDRAMS"/>
      <point x="24" y="407" type="line" name="ANSDBWON"/>
    </contour>
    <contour>
      <point x="369.0" y="507.0" type="move" name="ANSDBWON"/>
      <point x="307.0" y="422.0" type="line" name="VKBDRAMS"/>
      <point x="369.0" y="372.0" type="line" name="QXYCFKZZ"/>
    </contour>
    <contour>
      <point x="94.0" y="292.0" type="move" name="QXYCFKZZ"/>
      <point x="166.0" y="381.0" type="line" name="VKBDRAMS"/>
      <point x="238.0" y="469.0" type="line" name="ANSDBWON"/>
    </contour>
    <contour>
      <point x="94.0" y="427.0" type="move" name="ANSDBWON"/>
      <point x="166.0" y="381.0" type="line" name="VKBDRAMS"/>
      <point x="237.0" y="334.0" type="line" name="QXYCFKZZ"/>
    </contour>
  </outline>
</glyph>
<glyph name="lslash" format="2">
  <advance width="461"/>
  <unicode hex="0142"/>
  <outline>
    <contour>
      <point x="156" y="518" type="move" name="SFCYOLAK"/>
      <point x="156" y="326" type="line" name="BDISPIUW"/>
      <point x="156" y="64" type="line" name="QBLAKGEF"/>
      <point x="253" y="62" name="VWUQWQXO"/>
      <point x="323" y="64" name="YCDHSZJN"/>
      <point x="364" y="68" type="curve" smooth="yes" name="MVZJAAVR"/>
    </contour>
    <contour>
      <point x="60" y="580" type="move" name="KXMIKRGB"/>
      <point x="156" y="518" type="line" name="LTKQYIAH"/>
      <point x="251" y="580" type="line" name="EYIDYGUA"/>
    </contour>
    <contour>
      <point x="426" y="0" type="move" name="EAJLMKUL"/>
      <point x="364" y="68" type="line" name="WFLPYOKA"/>
      <point x="446" y="165" type="line" name="HCCVQFGB"/>
    </contour>
    <contour>
      <point x="60" y="0" type="move" name="LMARIZVP"/>
      <point x="156" y="64" type="line" name="LYLLUWZU"/>
      <point x="227" y="126" type="line" name="FYZTITQS"/>
    </contour>
    <contour>
      <point x="290.0" y="367.0" type="move" name="FYEBZBYX"/>
      <point x="156.0" y="326.0" type="line" name="HLPRUFYA"/>
      <point x="79.0" y="303.0" type="line" name="LMRCCARX"/>
    </contour>
    <contour>
      <point x="17.0" y="222.0" type="move" name="KCWFADSJ"/>
      <point x="79.0" y="303.0" type="line" name="NBIOYVLP"/>
      <point x="17.0" y="347.0" type="line" name="IZBHAJEP"/>
    </contour>
    <contour>
      <point x="352.0" y="447.0" type="move" name="WGVPBZVF"/>
      <point x="290.0" y="367.0" type="line" name="JYCGOJAR"/>
      <point x="352.0" y="322.0" type="line" name="SFPBYSXC"/>
    </contour>
    <contour>
      <point x="87.0" y="242.0" type="move" name="KFEAAYQS"/>
      <point x="156.0" y="326.0" type="line" name="YWOTRZPB"/>
      <point x="225.0" y="409.0" type="line" name="TRUSJQLK"/>
    </contour>
    <contour>
      <point x="87.0" y="367.0" type="move" name="YCTPJADU"/>
      <point x="156.0" y="326.0" type="line" name="UMRSPBKD"/>
      <point x="224.0" y="284.0" type="line" name="PHSQNDHS"/>
    </contour>
  </outline>
</glyph>
<glyph name="Eng" format="2">
  <advance width="699"/>
  <unicode hex="014A"/>
  <outline>
    <contour>
      <point x="244.0" y="0.0" type="move" name="VSXLDNKZ"/>
      <point x="150.0" y="62.0" type="line" name="SUKSFYIY"/>
      <point x="57" y="0" type="line" name="HDGFSUZS"/>
    </contour>
    <contour>
      <point x="455.0" y="680.0" type="move" name="ZLEMENNY"/>
      <point x="548.0" y="618.0" type="line" name="OXQATKAG"/>
      <point x="642.0" y="680.0" type="line" name="BUSIROAB"/>
    </contour>
    <contour>
      <point x="57.0" y="680.0" type="move" name="JYHUHSXA"/>
      <point x="150.0" y="628.0" type="line" name="OHDQCNUI"/>
      <point x="213.0" y="680.0" type="line" name="YQCUMHNN"/>
    </contour>
    <contour>
      <point x="548.0" y="57.0" type="move" name="FIQCBHOY"/>
      <point x="482.0" y="21.0" type="line" name="ZJLCBJAV"/>
    </contour>
    <contour>
      <point x="150" y="62" type="move" name="VNZQNFRY"/>
      <point x="150" y="628" type="line" name="TAUYIJYN"/>
      <point x="185" y="585" name="HGQQMFIK"/>
      <point x="225" y="533" name="MLGHPHNB"/>
      <point x="286" y="442" type="curve" smooth="yes" name="EXISWEPF"/>
      <point x="439.0" y="212.0" type="line" smooth="yes" name="BYEWLAEP"/>
      <point x="492" y="133" name="TZTMTWLM"/>
      <point x="522.0" y="91.0" name="MOZDOBOR"/>
      <point x="548.0" y="57.0" type="curve" name="ORWYJUUF"/>
      <point x="548" y="618" type="line" name="XZYVBHUK"/>
    </contour>
    <contour>
      <point x="482.0" y="279.0" type="move" name="UJWXPRAI"/>
      <point x="548.0" y="57.0" type="line" name="ZMFESRGD"/>
    </contour>
    <contour>
      <point x="150.0" y="628.0" type="move" name="FBKNOFAU"/>
      <point x="217.0" y="414.0" type="line" name="EQSWRIWZ"/>
    </contour>
    <contour>
      <point x="384" y="-102" type="move"/>
      <point x="478" y="-134"/>
      <point x="548" y="-108"/>
      <point x="548" y="3" type="curve" smooth="yes"/>
      <point x="548.0" y="618.0" type="line"/>
    </contour>
  </outline>
</glyph>
<glyph name="eng" format="2">
  <advance width="629"/>
  <unicode hex="014B"/>
  <outline>
    <contour>
      <point x="50.0" y="580.0" type="move" name="LTAUJVMK"/>
      <point x="140.0" y="527.0" type="line" name="ARXXHUOE"/>
      <point x="197.0" y="580.0" type="line" name="UTCXXCDY"/>
    </contour>
    <contour>
      <point x="488.0" y="57.0" type="move" name="IRMVXLWS"/>
      <point x="425.0" y="24.0" type="line" name="RTNWTVWM"/>
    </contour>
    <contour>
      <point x="140" y="62" type="move" name="AALEDQOQ"/>
      <point x="140" y="527" type="line" name="ZLBTBUCF"/>
      <point x="488.0" y="57.0" type="line" name="JCIFDFMS"/>
    </contour>
    <contour>
      <point x="425.0" y="263.0" type="move" name="ZTVEDSHC"/>
      <point x="488.0" y="57.0" type="line" name="HQEEZTSW"/>
    </contour>
    <contour>
      <point x="140.0" y="527.0" type="move" name="BBLYSTIJ"/>
      <point x="204.0" y="338.0" type="line" name="JNSZZTCS"/>
    </contour>
    <contour>
      <point x="389" y="-115" type="move" smooth="yes" name="JCMFEEWZ"/>
      <point x="450" y="-117" name="PGOTYOQL"/>
      <point x="488" y="-78" name="KFRAIVRS"/>
      <point x="488" y="3" type="curve" smooth="yes" name="BSIGAEOF"/>
      <point x="488.0" y="57.0" type="line" name="ZGTWTJKD"/>
      <point x="488" y="518" type="line" name="DEVZUMUY"/>
    </contour>
    <contour>
      <point x="327.0" y="-166.0" type="move" name="FHSWSOFY"/>
      <point x="389.0" y="-115.0" type="line" name="FMDLQUKU"/>
      <point x="327.0" y="-38.0" type="line" name="YEXYIINA"/>
    </contour>
    <contour>
      <point x="231.0" y="0.0" type="move" name="DXNYCTGV"/>
      <point x="140.0" y="62.0" type="line" name="XXHYBWOV"/>
      <point x="50.0" y="0.0" type="line" name="YUCRETBA"/>
    </contour>
    <contour>
      <point x="398.0" y="580.0" type="move" name="EILKZTUR"/>
      <point x="488.0" y="518.0" type="line" name="DTJRKPNP"/>
      <point x="579.0" y="580.0" type="line" name="ZPMGBLSB"/>
    </contour>
  </outline>
</glyph>
<glyph name="Scedilla" format="2">
  <advance width="533"/>
  <unicode hex="015E"/>
  <outline>
    <contour>
      <point x="412" y="608" type="move" smooth="yes" name="HGAOADUK"/>
      <point x="373" y="621" name="DIKFFTRL"/>
      <point x="333" y="628" name="LBDKAYGN"/>
      <point x="296" y="628" type="curve" smooth="yes" name="OWIVUKTQ"/>
      <point x="189" y="628" name="BXEWGFUP"/>
      <point x="124" y="575" name="ZWTUNPCV"/>
      <point x="124" y="490" type="curve" smooth="yes" name="ZSDEAYMY"/>
      <point x="124" y="412" name="ABDATWOE"/>
      <point x="200" y="376" name="IPDPFLNX"/>
      <point x="276" y="340" type="curve" smooth="yes" name="FELNGQYN"/>
      <point x="352" y="304" name="KWLVIZWL"/>
      <point x="428" y="269" name="TUJLLNGD"/>
      <point x="428" y="192" type="curve" smooth="yes" name="VJHJZLKX"/>
      <point x="428" y="102" name="MDLAWNKL"/>
      <point x="358" y="50" name="SWWNJWIN"/>
      <point x="248" y="50" type="curve" smooth="yes" name="PJHMPSFO"/>
      <point x="206" y="50" name="GCTGNPNH"/>
      <point x="159" y="57" name="YUGZKYSW"/>
      <point x="114" y="72" type="curve" smooth="yes" name="HLYAXCSJ"/>
    </contour>
    <contour>
      <point x="474" y="664" type="move" name="XYGWLLJZ"/>
      <point x="412" y="608" type="line" name="KMXAMPOA"/>
      <point x="474" y="500" type="line" name="NRFSNWVX"/>
    </contour>
    <contour>
      <point x="52" y="15" type="move" name="SFQYRYIF"/>
      <point x="114" y="72" type="line" name="CJMHXZGC"/>
      <point x="52" y="181" type="line" name="NKUKGJGC"/>
    </contour>
    <contour>
      <point x="248" y="50" type="move"/>
      <point x="245.0" y="-20"/>
      <point x="265" y="-44"/>
      <point x="299" y="-67" type="curve" smooth="yes"/>
      <point x="321" y="-82"/>
      <point x="344" y="-95"/>
      <point x="344" y="-129" type="curve" smooth="yes"/>
      <point x="344" y="-171"/>
      <point x="314" y="-195"/>
      <point x="266" y="-195" type="curve" smooth="yes"/>
      <point x="246" y="-195"/>
      <point x="222" y="-191"/>
      <point x="196" y="-183" type="curve" smooth="yes"/>
    </contour>
    <contour>
      <point x="146" y="-107" type="move"/>
      <point x="196" y="-183" type="line"/>
      <point x="146" y="-220" type="line"/>
    </contour>
    <contour>
      <point x="202" y="-12" type="move"/>
      <point x="248.0" y="50.0" type="line"/>
      <point x="306" y="-8" type="line"/>
    </contour>
  </outline>
</glyph>
<glyph name="Tbar" format="2">
  <advance width="549"/>
  <unicode hex="0166"/>
  <outline>
    <contour>
      <point x="462" y="616" type="move" name="UJLWRITG"/>
      <point x="274" y="616" type="line" name="PNXBZOHM"/>
      <point x="87" y="616" type="line" name="WLXHXCUM"/>
    </contour>
    <contour>
      <point x="274" y="616" type="move" name="UKEYFBSF"/>
      <point x="274" y="340" type="line" name="QVLFLSUZ"/>
      <point x="274" y="62" type="line" name="OLKOGYZE"/>
    </contour>
    <contour>
      <point x="373" y="0" type="move" name="AWZJUCSK"/>
      <point x="274" y="62" type="line" name="RUFQDUPK"/>
      <point x="176" y="0" type="line" name="FBHRGLXT"/>
    </contour>
    <contour>
      <point x="524" y="680" type="move" name="HKYQNQYR"/>
      <point x="462" y="616" type="line" name="GDPHFZDC"/>
      <point x="524" y="524" type="line" name="QNLGPLID"/>
    </contour>
    <contour>
      <point x="25" y="524" type="move" name="UWAIASBC"/>
      <point x="87" y="616" type="line" name="HRWZJDYI"/>
      <point x="25" y="680" type="line" name="GXJIHHGZ"/>
    </contour>
    <contour>
      <point x="200" y="553" type="move" name="PLULHQOE"/>
      <point x="274" y="616" type="line" name="LRZGTWPR"/>
      <point x="349" y="553" type="line" name="CQRPRBQL"/>
    </contour>
    <contour>
      <point x="399" y="340" type="move" name="FAGEQFYM"/>
      <point x="274" y="340" type="line" name="ZFRDETDG"/>
      <point x="148" y="340" type="line" name="VSUXIJJD"/>
    </contour>
    <contour>
      <point x="86.0" y="276.0" type="move" name="ENJCVZWE"/>
      <point x="148.0" y="340.0" type="line" name="GEXRKELV"/>
      <point x="86.0" y="403.0" type="line" name="JSDVNTUO"/>
    </contour>
    <contour>
      <point x="461.0" y="403.0" type="move" name="DCLRFTLZ"/>
      <point x="399.0" y="340.0" type="line" name="PCZKBLFT"/>
      <point x="461.0" y="276.0" type="line" name="CFZONUCO"/>
    </contour>
    <contour>
      <point x="203.0" y="403.0" type="move" name="ZPPPYRHI"/>
      <point x="274.0" y="340.0" type="line" name="NRLOENSG"/>
      <point x="346.0" y="276.0" type="line" name="CRDXPDHW"/>
    </contour>
    <contour>
      <point x="203.0" y="276.0" type="move" name="TYTMXXNS"/>
      <point x="274.0" y="340.0" type="line" name="NTLUWVWV"/>
      <point x="346.0" y="403.0" type="line" name="GQVEBRXV"/>
    </contour>
  </outline>
</glyph>
<glyph name="tbar" format="2">
  <advance width="513"/>
  <unicode hex="0167"/>
  <outline>
    <contour>
      <point x="79.0" y="226.0" type="line"/>
      <point x="434.0" y="226.0" type="line"/>
      <point x="434.0" y="343.0" type="line"/>
      <point x="79.0" y="343.0" type="line"/>
    </contour>
    <component base="t"/>
  </outline>
</glyph>
<glyph name="Uogonek" format="2">
  <advance width="684"/>
  <unicode hex="0172"/>
  <outline>
    <contour>
      <point x="146" y="618" type="move" name="ROEAWHPT"/>
      <point x="146" y="234" type="line" smooth="yes" name="LEJRTZKL"/>
      <point x="146" y="120" name="GIVCAIHQ"/>
      <point x="225" y="48" name="XLSYETGA"/>
      <point x="342" y="48" type="curve" smooth="yes" name="PBXKRRQD"/>
      <point x="373" y="48" name="LOEXUNWI"/>
      <point x="400" y="53" name="HLRKEDJU"/>
      <point x="425" y="62" type="curve" name="FMFXBAUU"/>
      <point x="495" y="88" name="LJTKBLKB"/>
      <point x="538" y="150" name="EDITSKKD"/>
      <point x="538" y="234" type="curve" smooth="yes" name="HPSNHFKC"/>
      <point x="538" y="618" type="line" name="YLXIGGDP"/>
    </contour>
    <contour>
      <point x="47.0" y="680.0" type="move" name="GJCMLDKR"/>
      <point x="146.0" y="618.0" type="line" name="KCLPTGVW"/>
      <point x="244.0" y="680.0" type="line" name="LGVLKCCL"/>
    </contour>
    <contour>
      <point x="440.0" y="680.0" type="move" name="HBFFTHAT"/>
      <point x="538.0" y="618.0" type="line" name="VZAETSCD"/>
      <point x="637.0" y="680.0" type="line" name="DHOMLNZB"/>
    </contour>
    <contour>
      <point x="443.0" y="-176.0" type="move" name="KCYBJNZY"/>
      <point x="390.0" y="-137.0" type="line" name="PHAFXCXF"/>
      <point x="453.0" y="-63.0" type="line" name="ICWUZGVP"/>
    </contour>
    <contour>
      <point x="268" y="-9" type="move" name="GHPEWKGX"/>
      <point x="317" y="20" name="PBPJEABR"/>
      <point x="370" y="43" name="SFXZZMXY"/>
      <point x="425" y="62" type="curve" name="YHNRUFSE"/>
      <point x="338" y="31" name="JFJIOMJE"/>
      <point x="292" y="-25" name="CIWFBHJM"/>
      <point x="292.0" y="-71" type="curve" smooth="yes" name="GFQWMEHQ"/>
      <point x="292" y="-120" name="PGIGLLIM"/>
      <point x="328" y="-146" name="FOWOEFNW"/>
      <point x="390" y="-137" type="curve" smooth="yes" name="LYMAMILK"/>
    </contour>
  </outline>
</glyph>
<glyph name="uogonek" format="2">
  <advance width="620"/>
  <unicode hex="0173"/>
  <outline>
    <contour>
      <point x="484" y="518" type="move" name="UXUMBWAC"/>
      <point x="484" y="214" type="line" smooth="yes" name="FLWRLTFV"/>
      <point x="484" y="136" name="VBRGVSPD"/>
      <point x="443" y="80" name="KRYREKNE"/>
      <point x="377" y="58" type="curve" smooth="yes" name="WTVKPRBF"/>
      <point x="357" y="52" name="FPMXIENG"/>
      <point x="334" y="48" name="PGHLQHZX"/>
      <point x="310" y="48" type="curve" smooth="yes" name="JNHIYEKA"/>
      <point x="206" y="48" name="IRPPFYFD"/>
      <point x="136" y="112" name="VTANEAMA"/>
      <point x="136" y="214" type="curve" smooth="yes" name="WQZNRNOZ"/>
      <point x="136" y="518" type="line" name="QIBKBWZR"/>
    </contour>
    <contour>
      <point x="40.0" y="580.0" type="move" name="XILHXCDH"/>
      <point x="136.0" y="518.0" type="line" name="RIZIZSMX"/>
      <point x="231.0" y="580.0" type="line" name="SQLLXOYY"/>
    </contour>
    <contour>
      <point x="389.0" y="580.0" type="move" name="WUBTDLXF"/>
      <point x="484.0" y="518.0" type="line" name="EZNWXIRW"/>
      <point x="580.0" y="580.0" type="line" name="TUMDPWAE"/>
    </contour>
    <contour>
      <point x="408.0" y="-176.0" type="move" name="KCYBJNZY"/>
      <point x="355.0" y="-137.0" type="line" name="PHAFXCXF"/>
      <point x="418.0" y="-63.0" type="line" name="ICWUZGVP"/>
    </contour>
    <contour>
      <point x="224" y="-5" type="move" name="GHPEWKGX"/>
      <point x="269" y="19" name="FROFPYWT"/>
      <point x="324" y="41" name="QHDZHPXO"/>
      <point x="377" y="58" type="curve" name="HPHEPJUP"/>
      <point x="298" y="27" name="GQLYLXEC"/>
      <point x="257" y="-27" name="IINTJLSU"/>
      <point x="257" y="-71" type="curve" smooth="yes" name="GFQWMEHQ"/>
      <point x="257" y="-120" name="PGIGLLIM"/>
      <point x="293" y="-146" name="FOWOEFNW"/>
      <point x="355" y="-137" type="curve" smooth="yes" name="LYMAMILK"/>
    </contour>
  </outline>
</glyph>
<glyph name="Ohorn" format="2">
  <advance width="740"/>
  <unicode hex="01A0"/>
  <anchor x="360" y="680.0" name="above"/>
  <anchor x="370" y="1" name="below"/>
  <outline>
    <contour>
      <point x="370" y="52" type="curve" smooth="yes" name="EFQPWELV"/>
      <point x="218" y="52" name="GRKGCCRI"/>
      <point x="113" y="168" name="LBCRQIFV"/>
      <point x="113" y="341" type="curve" smooth="yes" name="DCCFITAN"/>
      <point x="113" y="514" name="HPAETVAF"/>
      <point x="218" y="628" name="CXAOFQHW"/>
      <point x="370" y="628" type="curve" smooth="yes" name="PUBPBTQF"/>
      <point x="521" y="628" name="YARFZGSN"/>
      <point x="627" y="513" name="OWBEQURN"/>
      <point x="627" y="341" type="curve" smooth="yes" name="WHXMCOZP"/>
      <point x="627" y="168" name="HSEIVIPG"/>
      <point x="521" y="52" name="SQXTXMXB"/>
    </contour>
    <contour>
      <point x="562" y="815" type="move" name="RXDTOCPJ"/>
      <point x="632" y="755" type="line" name="RDJRVATT"/>
      <point x="703" y="815" type="line" name="LEZOABWJ"/>
    </contour>
    <contour>
      <point x="370" y="628" type="move" name="SNGDNMSN"/>
      <point x="535" y="628.0" name="PYJRSJGQ"/>
      <point x="622" y="654" name="EIKCOMVK"/>
      <point x="632" y="755" type="curve" name="DFYIQBVT"/>
    </contour>
    <contour>
      <point x="370.0" y="628.0" type="move" name="PHYNBPKQ"/>
      <point x="440" y="628" name="MXZHBLQK"/>
      <point x="512" y="624" name="GOCPOBDG"/>
      <point x="588" y="614" type="curve" name="BKWQABLA"/>
    </contour>
  </outline>
</glyph>
<glyph name="ohorn" format="2">
  <advance width="638"/>
  <unicode hex="01A1"/>
  <anchor x="314" y="582" name="above"/>
  <anchor x="323" y="-1" name="below"/>
  <outline>
    <contour>
      <point x="319" y="48" type="curve" smooth="yes" name="DFKCAXCA"/>
      <point x="191" y="48" name="ELPILGRR"/>
      <point x="102" y="146" name="UDOOMFQR"/>
      <point x="102" y="291" type="curve" smooth="yes" name="LFRBSEFU"/>
      <point x="102" y="436" name="EBGAXWTF"/>
      <point x="191" y="532" name="XIVSCLDP"/>
      <point x="319" y="532" type="curve" smooth="yes" name="MBNTYKZP"/>
      <point x="446" y="532" name="HUGGUWLD"/>
      <point x="536" y="435" name="ENGAXZNP"/>
      <point x="536" y="291" type="curve" smooth="yes" name="SZMJQQHS"/>
      <point x="536" y="146" name="UHKYOQNW"/>
      <point x="446" y="48" name="QRUYFMRF"/>
    </contour>
    <contour>
      <point x="475" y="717" type="move" name="BREVLGAS"/>
      <point x="545" y="657" type="line" name="EKPYHYHX"/>
      <point x="616" y="717" type="line" name="CPNROXOB"/>
    </contour>
    <contour>
      <point x="545" y="657" type="move" name="DFYIQBVT"/>
      <point x="536" y="564" name="ANIOKYMO"/>
      <point x="479" y="536" name="VFMVKKDE"/>
      <point x="319" y="532" type="curve" name="WNXJAMSB"/>
      <point x="378" y="532" name="DQMONRCC"/>
      <point x="451" y="527" name="ZYNCUBUO"/>
      <point x="514" y="521" type="curve" name="BKWQABLA"/>
    </contour>
  </outline>
</glyph>
<glyph name="Uhorn" format="2">
  <advance width="684"/>
  <unicode hex="01AF"/>
  <anchor x="341" y="-5" name="below"/>
  <anchor x="341" y="680.0" name="above"/>
  <outline>
    <contour>
      <point x="146" y="618" type="move" name="BATZYDHE"/>
      <point x="146" y="234" type="line" smooth="yes" name="EDIIWDMT"/>
      <point x="146" y="120" name="DDAPFHMI"/>
      <point x="225" y="48" name="PJMECILE"/>
      <point x="342" y="48" type="curve" smooth="yes" name="GVYUIFRE"/>
      <point x="459" y="48" name="TVEWCLQX"/>
      <point x="538" y="120" name="ZEMPTWXK"/>
      <point x="538" y="234" type="curve" smooth="yes" name="ZKYWIXKS"/>
      <point x="538" y="650" type="line" name="RMOJKSDU"/>
      <point x="589" y="668" name="MVXOMYAI"/>
      <point x="615" y="703" name="ZSTKNMHJ"/>
      <point x="622" y="755" type="curve" smooth="yes" name="RUOCHKPW"/>
    </contour>
    <contour>
      <point x="47" y="680" type="move" name="QJKSYZHJ"/>
      <point x="146" y="618" type="line" name="TBRIXQSZ"/>
      <point x="244" y="680" type="line" name="PKLWUEJD"/>
    </contour>
    <contour>
      <point x="440" y="680" type="move" name="BPXTOADR"/>
      <point x="538.0" y="650.0" type="line" name="PQYNGGXE"/>
      <point x="622" y="637" type="line" name="DDCSZWRI"/>
    </contour>
    <contour>
      <point x="552" y="815" type="move" name="WICIEYFW"/>
      <point x="622" y="755" type="line" name="WIISWTTI"/>
      <point x="693" y="815" type="line" name="DZYQYVGY"/>
    </contour>
  </outline>
</glyph>
<glyph name="Oogonek" format="2">
  <advance width="740"/>
  <unicode hex="01EA"/>
  <outline>
    <contour>
      <point x="476" y="74" type="move"/>
      <point x="365" y="24"/>
      <point x="312" y="-14"/>
      <point x="312" y="-77" type="curve" smooth="yes"/>
      <point x="312" y="-120"/>
      <point x="348" y="-146"/>
      <point x="410" y="-137" type="curve" smooth="yes"/>
    </contour>
    <contour>
      <point x="370" y="52" type="curve" smooth="yes" name="TGYHFSCK"/>
      <point x="218" y="52" name="ONKJSEFG"/>
      <point x="113" y="168" name="UVCWUNGU"/>
      <point x="113" y="341" type="curve" smooth="yes" name="WVMTCVTA"/>
      <point x="113" y="514" name="VZIGQVHF"/>
      <point x="218" y="628" name="BHLIENHV"/>
      <point x="370" y="628" type="curve" smooth="yes" name="BXQKAXJF"/>
      <point x="521" y="628" name="FUEAXBFE"/>
      <point x="627" y="513" name="RCIKBTHC"/>
      <point x="627" y="341" type="curve" smooth="yes" name="XEUAKIWH"/>
      <point x="627" y="212"/>
      <point x="568" y="115"/>
      <point x="476" y="74" type="curve" smooth="yes"/>
      <point x="445" y="60"/>
      <point x="409" y="52"/>
    </contour>
    <contour>
      <point x="463.0" y="-176.0" type="move"/>
      <point x="410.0" y="-137.0" type="line"/>
      <point x="473.0" y="-63.0" type="line"/>
    </contour>
    <contour>
      <point x="285" y="-2" type="move"/>
      <point x="353" y="22"/>
      <point x="416" y="48"/>
      <point x="476.0" y="74.0" type="curve"/>
    </contour>
  </outline>
</glyph>
<glyph name="oogonek" format="2">
  <advance width="638"/>
  <unicode hex="01EB"/>
  <outline>
    <contour>
      <point x="417.0" y="-176.0" type="move" name="TVHHRNOQ"/>
      <point x="364.0" y="-137.0" type="line" name="LSBCAGQW"/>
      <point x="427.0" y="-63.0" type="line" name="TSHKQLNC"/>
    </contour>
    <contour>
      <point x="404" y="64" type="move" smooth="yes" name="TUDSFRTB"/>
      <point x="378" y="54" name="BLNQJMNF"/>
      <point x="350" y="48" name="RYNDIBIO"/>
      <point x="319" y="48" type="curve" smooth="yes" name="DFKCAXCA"/>
      <point x="191" y="48" name="ELPILGRR"/>
      <point x="102" y="146" name="UDOOMFQR"/>
      <point x="102" y="291" type="curve" smooth="yes" name="LFRBSEFU"/>
      <point x="102" y="436" name="EBGAXWTF"/>
      <point x="191" y="532" name="XIVSCLDP"/>
      <point x="319" y="532" type="curve" smooth="yes" name="MBNTYKZP"/>
      <point x="446" y="532" name="HUGGUWLD"/>
      <point x="536" y="435" name="ENGAXZNP"/>
      <point x="536" y="291" type="curve" smooth="yes" name="SZMJQQHS"/>
      <point x="536" y="181" name="WKFCAZZT"/>
      <point x="484" y="98" name="FWPNJEHZ"/>
      <point x="404" y="64" type="curve" smooth="yes" name="FESZZRPU"/>
    </contour>
    <contour>
      <point x="235" y="-1" type="move" name="FDWJHOSI"/>
      <point x="294" y="20" name="XIGHZCKF"/>
      <point x="351" y="42" name="XATXBBEB"/>
      <point x="404" y="64" type="curve" name="WTKWOBTU"/>
      <point x="310" y="20" name="MLCTQEBI"/>
      <point x="266" y="-19" name="UKUORNRA"/>
      <point x="266" y="-77" type="curve" smooth="yes" name="IEFIEMXW"/>
      <point x="266" y="-120" name="ALWWUILQ"/>
      <point x="302" y="-146" name="THVROHEQ"/>
      <point x="364" y="-137" type="curve" smooth="yes" name="WEBPNVCS"/>
    </contour>
  </outline>
</glyph>
<glyph name="Ecedilla" format="2">
  <advance width="549"/>
  <unicode hex="0228"/>
  <anchor x="276" y="680.0" name="above"/>
  <outline>
    <contour>
      <point x="414" y="611" type="move" smooth="yes" name="PSTPYLRZ"/>
      <point x="343" y="616" name="SKEEOTAO"/>
      <point x="225" y="620" name="TDJFVIIW"/>
      <point x="156" y="618" type="curve" name="DARGRHBN"/>
      <point x="156" y="62" type="line" name="BZBSRBAL"/>
      <point x="188" y="61"/>
      <point x="229" y="61"/>
      <point x="271" y="62" type="curve" smooth="yes"/>
      <point x="321" y="63"/>
      <point x="373" y="66"/>
      <point x="412" y="69" type="curve" smooth="yes" name="WQTISNDK"/>
    </contour>
    <contour>
      <point x="387" y="350" type="move" name="GRLQYXQK"/>
      <point x="156" y="350" type="line" name="GHHEYZBI"/>
    </contour>
    <contour>
      <point x="231" y="125" type="move" name="MJVZATKE"/>
      <point x="156" y="62" type="line" name="ZWRNCKHQ"/>
      <point x="57" y="0" type="line" name="EFSHOVMG"/>
    </contour>
    <contour>
      <point x="57" y="680" type="move" name="GRZQCAGM"/>
      <point x="156" y="618" type="line" name="LXMSTDXV"/>
      <point x="231" y="555" type="line" name="MENRSPSU"/>
    </contour>
    <contour>
      <point x="476" y="680" type="move" name="IIYOJRYX"/>
      <point x="414" y="611" type="line" name="BUWWFJIJ"/>
      <point x="476" y="524" type="line" name="DMOCMXSX"/>
    </contour>
    <contour>
      <point x="494" y="166" type="move" name="NFCLXEKZ"/>
      <point x="412" y="69" type="line" name="DGWJLFZR"/>
      <point x="474" y="0" type="line" name="RDJQSJBO"/>
    </contour>
    <contour>
      <point x="449" y="432" type="move" name="UBWSCXEJ"/>
      <point x="387" y="350" type="line" name="OGPDTMUS"/>
      <point x="449" y="269" type="line" name="JMWBMAFS"/>
    </contour>
    <contour>
      <point x="227" y="410" type="move" name="HAWFMGNR"/>
      <point x="156" y="350" type="line" name="ROFWTZTV"/>
      <point x="227" y="290" type="line" name="GOKVVXDN"/>
    </contour>
    <contour>
      <point x="271" y="62" type="move" smooth="yes"/>
      <point x="252" y="-3"/>
      <point x="273" y="-39"/>
      <point x="308" y="-62" type="curve" smooth="yes"/>
      <point x="338" y="-82"/>
      <point x="360" y="-95"/>
      <point x="360" y="-129" type="curve" smooth="yes"/>
      <point x="360" y="-171"/>
      <point x="330" y="-195"/>
      <point x="282" y="-195" type="curve" smooth="yes"/>
      <point x="262" y="-195"/>
      <point x="238" y="-191"/>
      <point x="212" y="-183" type="curve"/>
    </contour>
    <contour>
      <point x="162" y="-107" type="move"/>
      <point x="212" y="-183" type="line"/>
      <point x="162" y="-220" type="line"/>
    </contour>
    <contour>
      <point x="217.0" y="0.0" type="move"/>
      <point x="271.0" y="62.0" type="line"/>
      <point x="318.0" y="0.0" type="line"/>
    </contour>
  </outline>
</glyph>
<glyph name="schwa" format="2">
  <advance width="593"/>
  <unicode hex="0259"/>
  <outline>
    <contour>
      <point x="138" y="509" type="move" smooth="yes" name="BMJZFBXI"/>
      <point x="333" y="574" name="AWWFHUWH"/>
      <point x="491" y="499" name="FNCXBHGR"/>
      <point x="491" y="300" type="curve" smooth="yes" name="LXZZHUHZ"/>
      <point x="491" y="144" name="SUTCKKVS"/>
      <point x="405" y="50" name="LXVNNETT"/>
      <point x="288" y="50" type="curve" smooth="yes" name="CQYDTEHS"/>
      <point x="168" y="50" name="QOZUOFIX"/>
      <point x="93" y="154" name="AAQEJWJO"/>
      <point x="104" y="300" type="curve" name="CNTWFCGE"/>
      <point x="491" y="300" type="line" name="SYCHQESQ"/>
    </contour>
    <contour>
      <point x="76.0" y="417.0" type="move" name="WKQKAAJP"/>
      <point x="138.0" y="509.0" type="line" name="TZVJVNTG"/>
      <point x="76.0" y="551.0" type="line" name="OKVFBFVI"/>
    </contour>
    <contour>
      <point x="43.0" y="357.0" type="move" name="DGEMQWAD"/>
      <point x="104.0" y="300.0" type="line" name="AUITEDDY"/>
      <point x="172.0" y="243.0" type="line" name="OVXAZZXQ"/>
    </contour>
    <contour>
      <point x="411.0" y="357.0" type="move" name="OVMHVDAY"/>
      <point x="491.0" y="300.0" type="line" name="FKWCRPKO"/>
      <point x="414.0" y="243.0" type="line" name="CJZGQXPL"/>
    </contour>
  </outline>
</glyph>
<glyph name="verticallinelowmod" format="2">
  <advance width="300"/>
  <unicode hex="02CC"/>
  <outline>
    <contour>
      <point x="150.0" y="71.0" type="move" name="OQZTLUWC"/>
      <point x="150.0" y="-119.0" type="line" name="JQBIVPMN"/>
    </contour>
    <contour>
      <point x="84.0" y="122.0" type="move" name="NFKXKFDW"/>
      <point x="150.0" y="71.0" type="line" name="PYMDWJPO"/>
      <point x="217.0" y="122.0" type="line" name="RMRDICNL"/>
    </contour>
    <contour>
      <point x="187.0" y="-160.0" type="move" name="NOSHYYHM"/>
      <point x="150.0" y="-119.0" type="line" name="FWXFBRLA"/>
      <point x="114.0" y="-160.0" type="line" name="BBMPVFUQ"/>
    </contour>
  </outline>
</glyph>
<glyph name="ring" format="2">
  <advance width="420"/>
  <unicode hex="02DA"/>
  <anchor x="0" y="517" name="top"/>
  <anchor x="210" y="517" name="center"/>
  <outline>
    <contour>
      <point x="209" y="582" type="curve" smooth="yes" name="HHMFTAMQ"/>
      <point x="270" y="582" name="VFATWUJL"/>
      <point x="312" y="623" name="BRQJWCST"/>
      <point x="312" y="681" type="curve" smooth="yes" name="OBIOFBBA"/>
      <point x="312" y="738" name="WIOZFHLB"/>
      <point x="270" y="779" name="JOGKENBO"/>
      <point x="209" y="779" type="curve" smooth="yes" name="EBIXPZPA"/>
      <point x="150" y="779" name="BCGVZHKU"/>
      <point x="110" y="738" name="ALNTWANU"/>
      <point x="110" y="681" type="curve" smooth="yes" name="TAIGPFQU"/>
      <point x="110" y="623" name="BNFKICBX"/>
      <point x="150" y="582" name="CXOKEGYB"/>
    </contour>
  </outline>
</glyph>
<glyph name="tilde" format="2">
  <advance width="565"/>
  <unicode hex="02DC"/>
  <anchor x="0" y="517" name="top"/>
  <anchor x="282" y="517" name="center"/>
  <outline>
    <contour>
      <point x="165.0" y="578.0" type="move" name="QCPOLWYD"/>
      <point x="121.0" y="630.0" type="line" name="FJNMUWTQ"/>
      <point x="80.0" y="578.0" type="line" name="GPKWJZET"/>
    </contour>
    <contour>
      <point x="400.0" y="774.0" type="move" name="VJIZZDNK"/>
      <point x="444.0" y="722.0" type="line" name="CTDXBEAF"/>
      <point x="485.0" y="774.0" type="line" name="DVRFTJRK"/>
    </contour>
    <contour>
      <point x="444" y="722" type="move" smooth="yes" name="RCVBIGFE"/>
      <point x="440" y="660" name="WKNFQWDQ"/>
      <point x="409" y="633" name="OGEMSRJD"/>
      <point x="365" y="633" type="curve" smooth="yes" name="CEMUNGDD"/>
      <point x="302" y="633" name="KWVGBZNF"/>
      <point x="263" y="714" name="SGAMFANH"/>
      <point x="200" y="714" type="curve" smooth="yes" name="HJXDWVYY"/>
      <point x="157" y="714" name="SMNHZVNV"/>
      <point x="127" y="688" name="YYWYXTAP"/>
      <point x="121" y="630" type="curve" smooth="yes" name="QSBBYBJG"/>
    </contour>
  </outline>
</glyph>
<glyph name="gravecmb" format="2">
  <unicode hex="0300"/>
  <anchor x="0" y="517" name="_above"/>
  <anchor x="0" y="728" name="above"/>
  <anchor x="0" y="517" name="_aboveright"/>
  <outline>
    <contour>
      <point x="-33.0" y="640.0" type="move"/>
      <point x="-64.0" y="687.0" type="line"/>
    </contour>
    <contour>
      <point x="-181.0" y="747.0" type="move"/>
      <point x="-64.0" y="687.0" type="line"/>
      <point x="-25.0" y="747.0" type="line"/>
    </contour>
    <contour>
      <point x="73.0" y="580.0" type="move"/>
      <point x="-33.0" y="640.0" type="line"/>
      <point x="-60.0" y="580.0" type="line"/>
    </contour>
  </outline>
</glyph>
<glyph name="circumflexcmb" format="2">
  <unicode hex="0302"/>
  <anchor x="0" y="517" name="_above"/>
  <anchor x="0" y="718" name="above"/>
  <anchor x="154" y="670" name="aboveright"/>
  <outline>
    <contour>
      <point x="61.0" y="640.0" type="move"/>
      <point x="2" y="695" type="line"/>
      <point x="-59.0" y="640.0" type="line"/>
    </contour>
    <contour>
      <point x="-51.0" y="580.0" type="move"/>
      <point x="-59.0" y="640.0" type="line"/>
      <point x="-200.0" y="580.0" type="line"/>
    </contour>
    <contour>
      <point x="202.0" y="580.0" type="move"/>
      <point x="61.0" y="640.0" type="line"/>
      <point x="53.0" y="580.0" type="line"/>
    </contour>
    <contour>
      <point x="2.0" y="761.0" type="move"/>
      <point x="2.0" y="695.0" type="line"/>
      <point x="2.0" y="629.0" type="line"/>
    </contour>
  </outline>
</glyph>
<glyph name="tildecmb" format="2">
  <unicode hex="0303"/>
  <anchor x="0.3999999999999999" y="517" name="_above"/>
  <anchor x="0" y="736" name="above"/>
  <outline>
    <contour>
      <point x="-121" y="624" type="move" smooth="yes"/>
      <point x="-114" y="668"/>
      <point x="-91" y="688"/>
      <point x="-58" y="688" type="curve" smooth="yes"/>
      <point x="-32" y="688"/>
      <point x="-13" y="673"/>
      <point x="5" y="659" type="curve" smooth="yes"/>
      <point x="23" y="645"/>
      <point x="41" y="632"/>
      <point x="66" y="632" type="curve" smooth="yes"/>
      <point x="100" y="632"/>
      <point x="123" y="653"/>
      <point x="129" y="696" type="curve" smooth="yes"/>
    </contour>
    <contour>
      <point x="-82.0" y="578.0" type="move"/>
      <point x="-121.0" y="624.0" type="line"/>
      <point x="-163.0" y="578.0" type="line"/>
    </contour>
    <contour>
      <point x="90.0" y="742.0" type="move"/>
      <point x="129.0" y="696.0" type="line"/>
      <point x="171.0" y="742.0" type="line"/>
    </contour>
  </outline>
</glyph>
<glyph name="macroncmb" format="2">
  <unicode hex="0304"/>
  <anchor x="0" y="517" name="_above"/>
  <anchor x="0" y="694" name="above"/>
  <outline>
    <contour>
      <point x="-166" y="701" type="move"/>
      <point x="-106.0" y="640.0" type="line"/>
      <point x="-166.0" y="580.0" type="line"/>
    </contour>
    <contour>
      <point x="-106.0" y="640.0" type="move"/>
      <point x="107.0" y="640.0" type="line"/>
    </contour>
    <contour>
      <point x="167.0" y="580.0" type="move"/>
      <point x="107.0" y="640.0" type="line"/>
      <point x="167.0" y="701.0" type="line"/>
    </contour>
  </outline>
</glyph>
<glyph name="brevecmb" format="2">
  <unicode hex="0306"/>
  <anchor x="0" y="517" name="_above"/>
  <anchor x="0" y="718" name="above"/>
  <outline>
    <contour>
      <point x="111" y="694" type="move" smooth="yes"/>
      <point x="95" y="651"/>
      <point x="58" y="624"/>
      <point x="0" y="624" type="curve" smooth="yes"/>
      <point x="-58" y="624"/>
      <point x="-95" y="651"/>
      <point x="-111" y="694" type="curve" smooth="yes"/>
    </contour>
    <contour>
      <point x="65.0" y="744.0" type="move"/>
      <point x="111.0" y="694.0" type="line"/>
      <point x="173.0" y="744.0" type="line"/>
    </contour>
    <contour>
      <point x="-173.0" y="744.0" type="move"/>
      <point x="-111.0" y="694.0" type="line"/>
      <point x="-65.0" y="744.0" type="line"/>
    </contour>
  </outline>
</glyph>
<glyph name="dieresiscmb" format="2">
  <unicode hex="0308"/>
  <anchor x="0" y="517" name="_above"/>
  <anchor x="0" y="744" name="above"/>
  <outline>
    <contour>
      <point x="-200.0" y="748.0" type="move"/>
      <point x="-120.0" y="668.0" type="line"/>
      <point x="-39.0" y="587.0" type="line"/>
    </contour>
    <contour>
      <point x="-39.0" y="748.0" type="move"/>
      <point x="-120.0" y="668.0" type="line"/>
      <point x="-200.0" y="587.0" type="line"/>
    </contour>
    <contour>
      <point x="40.0" y="748.0" type="move"/>
      <point x="120.0" y="668.0" type="line"/>
      <point x="201.0" y="587.0" type="line"/>
    </contour>
    <contour>
      <point x="201.0" y="748.0" type="move"/>
      <point x="120.0" y="668.0" type="line"/>
      <point x="40.0" y="587.0" type="line"/>
    </contour>
  </outline>
</glyph>
<glyph name="hookabovecmb" format="2">
  <unicode hex="0309"/>
  <anchor x="0" y="517" name="_above"/>
  <anchor x="0" y="793" name="above"/>
  <anchor x="0" y="517" name="_aboveright"/>
  <outline>
    <contour>
      <point x="-17" y="607" type="move" smooth="yes"/>
      <point x="29" y="619"/>
      <point x="59" y="643"/>
      <point x="59" y="688" type="curve" smooth="yes"/>
      <point x="59" y="739"/>
      <point x="15" y="764"/>
      <point x="-44" y="761" type="curve" smooth="yes"/>
    </contour>
    <contour>
      <point x="-94.0" y="798.0" type="move"/>
      <point x="-44.0" y="761.0" type="line"/>
      <point x="-94.0" y="708.0" type="line"/>
    </contour>
    <contour>
      <point x="-67.0" y="639.0" type="move"/>
      <point x="-17.0" y="607.0" type="line"/>
      <point x="-67.0" y="558.0" type="line"/>
    </contour>
  </outline>
</glyph>
<glyph name="ringabovecmb" format="2">
  <unicode hex="030A"/>
  <anchor x="0" y="517" name="_above"/>
  <anchor x="0" y="708" name="above"/>
  <outline>
    <contour>
      <point x="-1" y="595" type="curve" smooth="yes"/>
      <point x="-53" y="595"/>
      <point x="-89" y="629"/>
      <point x="-89" y="678" type="curve" smooth="yes"/>
      <point x="-89" y="726"/>
      <point x="-53" y="760"/>
      <point x="-1" y="760" type="curve" smooth="yes"/>
      <point x="52" y="760"/>
      <point x="90" y="726"/>
      <point x="90" y="678" type="curve" smooth="yes"/>
      <point x="90" y="629"/>
      <point x="52" y="595"/>
    </contour>
  </outline>
</glyph>
<glyph name="hungarumlautcmb" format="2">
  <unicode hex="030B"/>
  <anchor x="0" y="517" name="_above"/>
  <anchor x="0" y="728" name="above"/>
  <outline>
    <contour>
      <point x="-64.0" y="640.0" type="move" name="BEEMXAGM"/>
      <point x="-36.0" y="687.0" type="line" name="IJDKZHSY"/>
    </contour>
    <contour>
      <point x="-75.0" y="747.0" type="move" name="SAPQDGXV"/>
      <point x="-36.0" y="687.0" type="line" name="KZBMBEJH"/>
      <point x="76.0" y="747.0" type="line" name="LFCFBFPN"/>
    </contour>
    <contour>
      <point x="-36.0" y="580.0" type="move" name="WCKXPIUP"/>
      <point x="-64.0" y="640.0" type="line" name="BMSPAZPC"/>
      <point x="-165.0" y="580.0" type="line" name="OHNOUIHW"/>
    </contour>
    <contour>
      <point x="111.0" y="640.0" type="move" name="VLPNVQLZ"/>
      <point x="144.0" y="687.0" type="line" name="XVWULOQU"/>
    </contour>
    <contour>
      <point x="111.0" y="747.0" type="move" name="HHKCAAZK"/>
      <point x="144.0" y="687.0" type="line" name="QHOBFESC"/>
      <point x="262.0" y="747.0" type="line" name="QVPJOZPB"/>
    </contour>
    <contour>
      <point x="133.0" y="580.0" type="move" name="OXNKPHNI"/>
      <point x="111.0" y="640.0" type="line" name="GGDUYOAG"/>
      <point x="4.0" y="580.0" type="line" name="WMTSPNRM"/>
    </contour>
  </outline>
</glyph>
<glyph name="caroncmb" format="2">
  <unicode hex="030C"/>
  <anchor x="0" y="517" name="_above"/>
  <anchor x="0" y="728" name="above"/>
  <outline>
    <contour>
      <point x="-69.0" y="697.0" type="move" name="SBDVHQHF"/>
      <point x="2" y="632" type="line" name="MSLGYHUC"/>
      <point x="73.0" y="697.0" type="line" name="OZJLFZTV"/>
    </contour>
    <contour>
      <point x="-199.0" y="747.0" type="move" name="LKICVLYF"/>
      <point x="-69.0" y="697.0" type="line" name="IHNAWHKZ"/>
      <point x="-50.0" y="747.0" type="line" name="WVCUXQKU"/>
    </contour>
    <contour>
      <point x="54.0" y="747.0" type="move" name="FIDXMJJT"/>
      <point x="73.0" y="697.0" type="line" name="GOWNOTDR"/>
      <point x="203.0" y="747.0" type="line" name="BNMKJBEN"/>
    </contour>
    <contour>
      <point x="2.0" y="698.0" type="move" name="HMWPVGCA"/>
      <point x="2.0" y="632.0" type="line" name="TMEBOASS"/>
      <point x="2.0" y="566.0" type="line" name="CZJGTPDP"/>
    </contour>
  </outline>
</glyph>
<glyph name="gravedoublecmb" format="2">
  <unicode hex="030F"/>
  <anchor x="0" y="517" name="_above"/>
  <anchor x="0" y="728" name="above"/>
  <outline>
    <contour>
      <point x="36.0" y="687.0" type="move"/>
      <point x="64.0" y="640.0" type="line"/>
    </contour>
    <contour>
      <point x="-76.0" y="747.0" type="move"/>
      <point x="36.0" y="687.0" type="line"/>
      <point x="75.0" y="747.0" type="line"/>
    </contour>
    <contour>
      <point x="165.0" y="580.0" type="move"/>
      <point x="64.0" y="640.0" type="line"/>
      <point x="36.0" y="580.0" type="line"/>
    </contour>
    <contour>
      <point x="-144.0" y="687.0" type="move"/>
      <point x="-111.0" y="640.0" type="line"/>
    </contour>
    <contour>
      <point x="-262.0" y="747.0" type="move"/>
      <point x="-144.0" y="687.0" type="line"/>
      <point x="-111.0" y="747.0" type="line"/>
    </contour>
    <contour>
      <point x="-4.0" y="580.0" type="move"/>
      <point x="-111.0" y="640.0" type="line"/>
      <point x="-133.0" y="580.0" type="line"/>
    </contour>
  </outline>
</glyph>
<glyph name="invertedbrevecmb" format="2">
  <unicode hex="0311"/>
  <anchor x="0" y="517" name="_above"/>
  <anchor x="0" y="735" name="above"/>
  <outline>
    <contour>
      <point x="-111.0" y="630.0" type="move" smooth="yes"/>
      <point x="-95.0" y="673.0"/>
      <point x="-58.0" y="700.0"/>
      <point x="0.0" y="700.0" type="curve" smooth="yes"/>
      <point x="58.0" y="700.0"/>
      <point x="95.0" y="673.0"/>
      <point x="111.0" y="630.0" type="curve" smooth="yes"/>
    </contour>
    <contour>
      <point x="-65.0" y="580.0" type="move"/>
      <point x="-111.0" y="630.0" type="line"/>
      <point x="-173.0" y="580.0" type="line"/>
    </contour>
    <contour>
      <point x="173.0" y="580.0" type="move"/>
      <point x="111.0" y="630.0" type="line"/>
      <point x="65.0" y="580.0" type="line"/>
    </contour>
  </outline>
</glyph>
<glyph name="commaturnedabovecmb" format="2">
  <unicode hex="0312"/>
  <anchor x="0" y="517" name="_above"/>
  <anchor x="0" y="725" name="above"/>
  <outline>
    <contour>
      <point x="-11" y="640" type="move" smooth="yes"/>
      <point x="-4" y="692"/>
      <point x="28" y="740"/>
      <point x="103" y="771" type="curve"/>
    </contour>
    <contour>
      <point x="68.0" y="580.0" type="move"/>
      <point x="-11.0" y="640.0" type="line"/>
      <point x="-89.0" y="580.0" type="line"/>
    </contour>
  </outline>
</glyph>
<glyph name="horncmb" format="2">
  <unicode hex="031B"/>
  <anchor x="0" y="517" name="horn"/>
  <outline>
    <contour>
      <point x="182" y="592" type="move" smooth="yes" name="JZHJEFAC"/>
      <point x="173" y="522" name="OBGHQOPU"/>
      <point x="129" y="482" name="IJTQBZAP"/>
      <point x="34" y="475" type="curve" name="PWUHPLGG"/>
    </contour>
    <contour>
      <point x="112.0" y="652.0" type="move" name="BREVLGAS"/>
      <point x="182.0" y="592.0" type="line" name="EKPYHYHX"/>
      <point x="253.0" y="652.0" type="line" name="CPNROXOB"/>
    </contour>
  </outline>
</glyph>
<glyph name="dieresisbelowcmb" format="2">
  <unicode hex="0324"/>
  <anchor x="0" y="0" name="_below"/>
  <anchor x="0" y="-211" name="below"/>
  <outline>
    <contour>
      <point x="-200.0" y="-60.0" type="move" name="HBBTTZKQ"/>
      <point x="-120.0" y="-141.0" type="line" name="ZWCVXOXN"/>
      <point x="-39.0" y="-221.0" type="line" name="YAQFDSOW"/>
    </contour>
    <contour>
      <point x="-39.0" y="-60.0" type="move" name="FGRAIQZZ"/>
      <point x="-120.0" y="-141.0" type="line" name="RGVGAQSW"/>
      <point x="-200.0" y="-221.0" type="line" name="CGJAYZOS"/>
    </contour>
    <contour>
      <point x="40.0" y="-60.0" type="move" name="YSXFFEJT"/>
      <point x="120.0" y="-141.0" type="line" name="RBJZYEPN"/>
      <point x="201.0" y="-221.0" type="line" name="NHPFIAYY"/>
    </contour>
    <contour>
      <point x="201.0" y="-60.0" type="move" name="XVXLDZYF"/>
      <point x="120.0" y="-141.0" type="line" name="ALZGAMYZ"/>
      <point x="40.0" y="-221.0" type="line" name="QPDVJYGH"/>
    </contour>
  </outline>
</glyph>
<glyph name="commaaccentbelowcmb" format="2">
  <unicode hex="0326"/>
  <anchor x="0" y="0" name="_below"/>
  <anchor x="0" y="-218" name="below"/>
  <outline>
    <contour>
      <point x="-105" y="-252" type="move"/>
      <point x="-30" y="-221"/>
      <point x="2" y="-173"/>
      <point x="9" y="-121" type="curve" smooth="yes"/>
    </contour>
    <contour>
      <point x="-70.0" y="-61.0" type="move"/>
      <point x="9.0" y="-121.0" type="line"/>
      <point x="87.0" y="-61.0" type="line"/>
    </contour>
  </outline>
</glyph>
<glyph name="cedillacmb" format="2">
  <unicode hex="0327"/>
  <anchor x="-3" y="0" name="_below"/>
  <anchor x="-3" y="-230" name="below"/>
  <outline>
    <contour>
      <point x="-22" y="22" type="move"/>
      <point x="-24" y="-31"/>
      <point x="2" y="-50"/>
      <point x="27" y="-67" type="curve" smooth="yes"/>
      <point x="50" y="-82"/>
      <point x="72" y="-95"/>
      <point x="72" y="-129" type="curve" smooth="yes"/>
      <point x="72" y="-171"/>
      <point x="42" y="-195"/>
      <point x="-6" y="-195" type="curve" smooth="yes"/>
      <point x="-26" y="-195"/>
      <point x="-50" y="-191"/>
      <point x="-76" y="-183" type="curve" smooth="yes"/>
    </contour>
    <contour>
      <point x="-126.0" y="-107.0" type="move"/>
      <point x="-76.0" y="-183.0" type="line"/>
      <point x="-126.0" y="-220.0" type="line"/>
    </contour>
  </outline>
</glyph>
<glyph name="ogonekcmb" format="2">
  <unicode hex="0328"/>
  <anchor x="0" y="0" name="_below"/>
  <anchor x="113" y="21" name="ogonek"/>
  <anchor x="0" y="-171" name="below"/>
  <outline>
    <contour>
      <point x="84" y="44" type="move"/>
      <point x="-14" y="16"/>
      <point x="-48" y="-16"/>
      <point x="-48" y="-59" type="curve" smooth="yes"/>
      <point x="-48" y="-102"/>
      <point x="-12" y="-128"/>
      <point x="50" y="-119" type="curve" smooth="yes"/>
    </contour>
    <contour>
      <point x="103.0" y="-158.0" type="move"/>
      <point x="50.0" y="-119.0" type="line"/>
      <point x="113.0" y="-45.0" type="line"/>
    </contour>
  </outline>
</glyph>
<glyph name="belowbrevecmb" format="2">
  <unicode hex="032E"/>
  <anchor x="0" y="0" name="_below"/>
  <anchor x="0" y="-240" name="below"/>
  <outline>
    <contour>
      <point x="111.0" y="-118.0" type="move" smooth="yes"/>
      <point x="95.0" y="-161.0"/>
      <point x="58.0" y="-188.0"/>
      <point x="0.0" y="-188.0" type="curve" smooth="yes"/>
      <point x="-58.0" y="-188.0"/>
      <point x="-95.0" y="-161.0"/>
      <point x="-111.0" y="-118.0" type="curve" smooth="yes"/>
    </contour>
    <contour>
      <point x="65.0" y="-68.0" type="move"/>
      <point x="111.0" y="-118.0" type="line"/>
      <point x="173.0" y="-68.0" type="line"/>
    </contour>
    <contour>
      <point x="-173.0" y="-68.0" type="move"/>
      <point x="-111.0" y="-118.0" type="line"/>
      <point x="-65.0" y="-68.0" type="line"/>
    </contour>
  </outline>
</glyph>
<glyph name="macronbelowcmb" format="2">
  <unicode hex="0331"/>
  <anchor x="0" y="0" name="_below"/>
  <anchor x="0" y="-183" name="below"/>
  <outline>
    <contour>
      <point x="-166.0" y="-63.0" type="move" name="BCEYOVFG"/>
      <point x="-106.0" y="-124.0" type="line" name="HFXNAZXU"/>
      <point x="-166.0" y="-184.0" type="line" name="JJEXYVLF"/>
    </contour>
    <contour>
      <point x="-106.0" y="-124.0" type="move" name="QPFYVPJF"/>
      <point x="107.0" y="-124.0" type="line" name="SERGJNAH"/>
    </contour>
    <contour>
      <point x="167.0" y="-184.0" type="move" name="PWSAGMAO"/>
      <point x="107.0" y="-124.0" type="line" name="DSKUFBVB"/>
      <point x="167.0" y="-63.0" type="line" name="TWLOCJHA"/>
    </contour>
  </outline>
</glyph>
<glyph name="Germandbls" format="2">
  <advance width="647"/>
  <unicode hex="1E9E"/>
  <outline>
    <contour>
      <point x="146" y="62" type="move" name="ADPNVFPA"/>
      <point x="146" y="436" type="line" smooth="yes" name="GSQAMOHV"/>
      <point x="146" y="546" name="FMSLCPDR"/>
      <point x="200" y="617" name="PSPBARZG"/>
      <point x="302" y="617" type="curve" smooth="yes" name="DUTLXKSN"/>
      <point x="504" y="617" type="line" name="ZHGYIJHL"/>
      <point x="369" y="363" type="line" name="ENVYVCVE"/>
      <point x="485" y="337" name="JXXILVDS"/>
      <point x="546" y="291" name="NGQGEHSZ"/>
      <point x="546" y="198" type="curve" smooth="yes" name="BSZEYGQA"/>
      <point x="546" y="94" name="CGJWEFCH"/>
      <point x="470" y="38" name="XCBAMZHA"/>
      <point x="339" y="65" type="curve" smooth="yes" name="BCLSFEAZ"/>
    </contour>
    <contour>
      <point x="244.0" y="0.0" type="move" name="YXGHWLTF"/>
      <point x="146.0" y="62.0" type="line" name="LAACJQDB"/>
      <point x="47.0" y="0.0" type="line" name="MSHQYFCO"/>
    </contour>
    <contour>
      <point x="277.0" y="3.0" type="move" name="XHKOZASS"/>
      <point x="339.0" y="65.0" type="line" name="CRONQJIY"/>
      <point x="277.0" y="163.0" type="line" name="RNVJLUPO"/>
    </contour>
    <contour>
      <point x="616.0" y="680.0" type="move" name="CIIHKUUR"/>
      <point x="504.0" y="617.0" type="line" name="OKUDCZLR"/>
      <point x="393.0" y="554.0" type="line" name="SXWCKCAK"/>
    </contour>
    <contour>
      <point x="466.0" y="399.0" type="move" name="EDUKDXMY"/>
      <point x="369.0" y="363.0" type="line" name="IBWXQJNH"/>
      <point x="270.0" y="323.0" type="line" name="JPJKYNSK"/>
    </contour>
  </outline>
</glyph>
<glyph name="gnrl:hyphen" format="2">
  <advance width="340"/>
  <unicode hex="2010"/>
  <outline>
    <contour>
      <point x="243" y="335" type="move" name="RTCEFKAU"/>
      <point x="97" y="302" type="line" name="ZSFYJKKA"/>
    </contour>
    <contour>
      <point x="35" y="226" type="move" name="ERXSPNJE"/>
      <point x="97" y="302" type="line" name="NGYHDOZU"/>
      <point x="35" y="351" type="line" name="PFLILDAC"/>
    </contour>
    <contour>
      <point x="305" y="411" type="move" name="ARPLPCEY"/>
      <point x="243" y="335" type="line" name="LVQDJYOE"/>
      <point x="305" y="286" type="line" name="EJGQMHQS"/>
    </contour>
  </outline>
</glyph>
<glyph name="dagger" format="2">
  <advance width="415"/>
  <unicode hex="2020"/>
  <outline>
    <contour>
      <point x="55" y="514" type="line"/>
      <point x="350" y="514" type="line"/>
      <point x="350" y="612" type="line"/>
      <point x="55" y="612" type="line"/>
    </contour>
    <contour>
      <point x="207" y="185" type="line"/>
      <point x="280.0" y="534.0" type="line"/>
      <point x="260" y="730" type="line"/>
      <point x="155" y="730" type="line"/>
      <point x="135.0" y="534.0" type="line"/>
    </contour>
  </outline>
</glyph>
<glyph name="daggerdbl" format="2">
  <advance width="415"/>
  <unicode hex="2021"/>
  <outline>
    <contour>
      <point x="107.0" y="563.0" type="move" name="OMPSXEZN"/>
      <point x="208.0" y="563.0" type="line" name="MJBJBPUZ"/>
      <point x="298.0" y="563.0" type="line" name="TUXFDILO"/>
    </contour>
    <contour>
      <point x="208" y="678" type="move" name="DPFFUGAU"/>
      <point x="208" y="563" type="line" name="UHGFOGGJ"/>
      <point x="205" y="509" name="HJTNLUMI"/>
      <point x="203" y="460" name="LJCMMLTE"/>
      <point x="204" y="413" type="curve" smooth="yes" name="RKOSOOIN"/>
      <point x="206" y="324" name="GFUWRSSN"/>
      <point x="217" y="240" name="IQKKWUEQ"/>
      <point x="237" y="145" type="curve" name="EXCPGZHZ"/>
    </contour>
    <contour>
      <point x="55.0" y="514.0" type="move" name="YKSBPDZL"/>
      <point x="107.0" y="563.0" type="line" name="SJSBMLGJ"/>
      <point x="55.0" y="612.0" type="line" name="EVCDMOCG"/>
    </contour>
    <contour>
      <point x="350.0" y="612.0" type="move" name="WICAUYPZ"/>
      <point x="298.0" y="563.0" type="line" name="OUFOSSRC"/>
      <point x="350.0" y="514.0" type="line" name="UDHPOCXN"/>
    </contour>
    <contour>
      <point x="155.0" y="730.0" type="move" name="RNPIGPCV"/>
      <point x="208.0" y="678.0" type="line" name="SHAUIKSO"/>
      <point x="260.0" y="730.0" type="line" name="NFJPETTB"/>
    </contour>
    <contour>
      <point x="135.0" y="514.0" type="move" name="LESFMYZG"/>
      <point x="208.0" y="563.0" type="line" name="ELTWUNTF"/>
      <point x="272.0" y="612.0" type="line" name="GIZIOGZC"/>
    </contour>
    <contour>
      <point x="143.0" y="612.0" type="move" name="YBLTRSBO"/>
      <point x="208.0" y="563.0" type="line" name="TSCPRSGW"/>
      <point x="280.0" y="514.0" type="line" name="TRXTWCDM"/>
    </contour>
    <contour>
      <point x="107.0" y="413.0" type="move" name="JKMWPWQR"/>
      <point x="204.0" y="413.0" type="line" name="RRFOCQVD"/>
      <point x="298.0" y="413.0" type="line" name="QHIRAOWW"/>
    </contour>
    <contour>
      <point x="55.0" y="364.0" type="move" name="MSNZBQTW"/>
      <point x="107.0" y="413.0" type="line" name="BJSBVSJM"/>
      <point x="55.0" y="462.0" type="line" name="JFTOHTSZ"/>
    </contour>
    <contour>
      <point x="350.0" y="462.0" type="move" name="MBARBXGZ"/>
      <point x="298.0" y="413.0" type="line" name="XUMRFYCT"/>
      <point x="350.0" y="364.0" type="line" name="QNQMNCEV"/>
    </contour>
    <contour>
      <point x="143.0" y="364.0" type="move" name="GGQCZMEZ"/>
      <point x="204.0" y="413.0" type="line" name="FTORLSPN"/>
      <point x="280.0" y="462.0" type="line" name="TYWPPXQM"/>
    </contour>
    <contour>
      <point x="135.0" y="462.0" type="move" name="BRCCVABS"/>
      <point x="204.0" y="413.0" type="line" name="HJJUHHDY"/>
      <point x="268.0" y="364.0" type="line" name="FXUMOFGI"/>
    </contour>
  </outline>
</glyph>
<glyph name="minute" format="2">
  <advance width="268"/>
  <unicode hex="2032"/>
  <outline>
    <contour>
      <point x="38" y="398" type="curve"/>
      <point x="114" y="680" type="line"/>
      <point x="283" y="680" type="line"/>
      <point x="249" y="567"/>
      <point x="166" y="453"/>
    </contour>
  </outline>
</glyph>
<glyph name="second" format="2">
  <advance width="488"/>
  <unicode hex="2033"/>
  <outline>
    <contour>
      <point x="38" y="398" type="curve"/>
      <point x="114" y="680" type="line"/>
      <point x="283" y="680" type="line"/>
      <point x="249" y="567"/>
      <point x="166" y="453"/>
    </contour>
    <contour>
      <point x="258" y="398" type="curve"/>
      <point x="334" y="680" type="line"/>
      <point x="503" y="680" type="line"/>
      <point x="469" y="567"/>
      <point x="386" y="453"/>
    </contour>
  </outline>
</glyph>
<glyph name="colonmonetary" format="2">
  <advance width="566"/>
  <unicode hex="20A1"/>
  <outline>
    <contour>
      <point x="434" y="577" type="move" smooth="yes" name="BQTLKEHC"/>
      <point x="419" y="582" name="BNRGXBDI"/>
      <point x="403" y="586" name="MKOMZGMW"/>
      <point x="387" y="588" type="curve" smooth="yes" name="QWKPDZRH"/>
      <point x="328" y="598" name="CCTHAURQ"/>
      <point x="270" y="590" name="UABHQSHY"/>
      <point x="225" y="566" type="curve" smooth="yes" name="LDYYPALK"/>
      <point x="150" y="527" name="DCYVMRGC"/>
      <point x="105" y="445" name="INTFPGIX"/>
      <point x="105" y="338" type="curve" smooth="yes" name="EKOLTGAC"/>
      <point x="105" y="258" name="BLMFZGUV"/>
      <point x="130" y="193" name="SDKICNHT"/>
      <point x="174" y="148" type="curve" smooth="yes" name="JJOTRGWL"/>
      <point x="212" y="111" name="IGBFGTVY"/>
      <point x="265" y="88" name="CGFOMDSX"/>
      <point x="328" y="86" type="curve" smooth="yes" name="VABMECKP"/>
      <point x="364" y="86" name="QAGEKMPZ"/>
      <point x="401.0" y="91.0" name="LCSEUFVM"/>
      <point x="434.0" y="102.0" type="curve" smooth="yes" name="CILXLOEO"/>
    </contour>
    <contour>
      <point x="400.0" y="698.0" type="move" name="APPIHRUV"/>
      <point x="387" y="588" type="line" name="NSPCXVKV"/>
      <point x="328" y="86" type="line" name="UVAQZKZA"/>
      <point x="314.0" y="-28.0" type="line" name="UKAKDPBX"/>
    </contour>
    <contour>
      <point x="240.0" y="698.0" type="move" name="YEVSPOHQ"/>
      <point x="225" y="566" type="line" name="IZEAJKLJ"/>
    </contour>
    <contour>
      <point x="174" y="148" type="move" name="AFUHVWPG"/>
      <point x="154.0" y="-28.0" type="line" name="PRTCBWYD"/>
    </contour>
    <contour>
      <point x="300.0" y="750.0" type="move" name="VDSQMIOV"/>
      <point x="240.0" y="698.0" type="line" name="UTPZTJGX"/>
      <point x="191.0" y="750.0" type="line" name="WVOYXDNR"/>
    </contour>
    <contour>
      <point x="460.0" y="750.0" type="move" name="VBMVJHDE"/>
      <point x="400.0" y="698.0" type="line" name="SQXDBFJT"/>
      <point x="351.0" y="750.0" type="line" name="YMAEBHNA"/>
    </contour>
    <contour>
      <point x="496.0" y="473.0" type="move" name="KVWHQAFL"/>
      <point x="434.0" y="577.0" type="line" name="DNHGXJJH"/>
      <point x="496.0" y="624.0" type="line" name="LOPLDUGW"/>
    </contour>
    <contour>
      <point x="496.0" y="54.0" type="move" name="QNUOUWCO"/>
      <point x="434.0" y="102.0" type="line" name="HTPMDUIG"/>
      <point x="496.0" y="205.0" type="line" name="WCHDWDTX"/>
    </contour>
    <contour>
      <point x="254.0" y="-80.0" type="move" name="WWQBYIJJ"/>
      <point x="314.0" y="-28.0" type="line" name="EJGAQTZV"/>
      <point x="363.0" y="-80.0" type="line" name="CMVPWHWC"/>
    </contour>
    <contour>
      <point x="94.0" y="-80.0" type="move" name="ASZZUROD"/>
      <point x="154.0" y="-28.0" type="line" name="BDFFXYCQ"/>
      <point x="203.0" y="-80.0" type="line" name="LBFLODAI"/>
    </contour>
    <contour>
      <point x="289.0" y="651.0" type="move" name="LSPKHGII"/>
      <point x="225.0" y="566.0" type="line" name="CDUKDOHG"/>
      <point x="175.0" y="613.0" type="line" name="VCKZOVMW"/>
    </contour>
    <contour>
      <point x="447.0" y="641.0" type="move" name="HHDGGHOI"/>
      <point x="387.0" y="588.0" type="line" name="RKTFFKKN"/>
      <point x="325.0" y="530.0" type="line" name="MGCOQPHD"/>
    </contour>
    <contour>
      <point x="432.0" y="511.0" type="move" name="ZNZNVFQC"/>
      <point x="387.0" y="588.0" type="line" name="IVGCSVQF"/>
      <point x="340.0" y="654.0" type="line" name="MTKSOCKL"/>
    </contour>
    <contour>
      <point x="116.0" y="109.0" type="move" name="PIONVXNF"/>
      <point x="174.0" y="148.0" type="line" name="QJVHZVON"/>
      <point x="217.0" y="44.0" type="line" name="VEAHHRSN"/>
    </contour>
    <contour>
      <point x="282.0" y="158.0" type="move" name="HCMAMZTL"/>
      <point x="328.0" y="86.0" type="line" name="VHUSDIPF"/>
      <point x="375.0" y="25.0" type="line" name="GUUPLCVT"/>
    </contour>
    <contour>
      <point x="267.0" y="31.0" type="move" name="FHNCJZVN"/>
      <point x="328.0" y="86.0" type="line" name="TFCFNCGG"/>
      <point x="390.0" y="155.0" type="line" name="XEBTNVNO"/>
    </contour>
  </outline>
</glyph>
<glyph name="naira" format="2">
  <advance width="671"/>
  <unicode hex="20A6"/>
  <outline>
    <contour>
      <point x="592" y="0" type="line"/>
      <point x="580" y="50"/>
      <point x="575" y="95"/>
      <point x="575" y="349" type="curve" smooth="yes"/>
      <point x="575" y="589"/>
      <point x="582" y="641"/>
      <point x="602" y="680" type="curve"/>
      <point x="415" y="680" type="line"/>
      <point x="435" y="641"/>
      <point x="442" y="589"/>
      <point x="442" y="349" type="curve" smooth="yes"/>
      <point x="442" y="204" type="line"/>
      <point x="498" y="195" type="line"/>
      <point x="223" y="680" type="line"/>
      <point x="67" y="680" type="line"/>
      <point x="87" y="641"/>
      <point x="94" y="589"/>
      <point x="94" y="349" type="curve" smooth="yes"/>
      <point x="94" y="95"/>
      <point x="87" y="40"/>
      <point x="67" y="0" type="curve"/>
      <point x="254" y="0" type="line"/>
      <point x="234" y="40"/>
      <point x="227" y="95"/>
      <point x="227" y="349" type="curve" smooth="yes"/>
      <point x="227" y="496" type="line"/>
      <point x="172" y="496" type="line"/>
      <point x="456" y="0" type="line"/>
    </contour>
    <contour>
      <point x="257" y="493" type="line"/>
      <point x="35" y="493" type="line"/>
      <point x="35" y="398" type="line"/>
      <point x="157" y="398" type="line"/>
      <point x="197" y="408" type="line"/>
      <point x="471" y="408" type="line"/>
      <point x="511" y="398" type="line"/>
      <point x="636" y="398" type="line"/>
      <point x="636" y="493" type="line"/>
      <point x="511" y="493" type="line"/>
      <point x="471" y="503" type="line"/>
      <point x="297" y="503" type="line"/>
    </contour>
    <contour>
      <point x="406" y="188" type="line"/>
      <point x="636" y="188" type="line"/>
      <point x="636" y="283" type="line"/>
      <point x="506" y="283" type="line"/>
      <point x="466" y="273" type="line"/>
      <point x="200" y="273" type="line"/>
      <point x="160" y="283" type="line"/>
      <point x="35" y="283" type="line"/>
      <point x="35" y="188" type="line"/>
      <point x="160" y="188" type="line"/>
      <point x="200" y="178" type="line"/>
      <point x="366" y="178" type="line"/>
    </contour>
  </outline>
</glyph>
<glyph name="won" format="2">
  <advance width="711"/>
  <unicode hex="20A9"/>
  <outline>
    <contour>
      <point x="67" y="352" type="move" name="SRAJGUKT"/>
      <point x="172" y="352" type="line" name="QCBBDUUH"/>
      <point x="303" y="352" type="line" name="PRZQKZPU"/>
      <point x="414" y="352" type="line" name="EPQKFXGQ"/>
      <point x="542" y="352" type="line" name="NYBPGKYC"/>
      <point x="644.0" y="352.0" type="line" name="UDGSFHEF"/>
    </contour>
    <contour>
      <point x="282" y="0" type="move" name="NQNDEADG"/>
      <point x="235" y="60" type="line" name="CSPTAXME"/>
      <point x="178" y="0" type="line" name="LZTXBRKJ"/>
    </contour>
    <contour>
      <point x="22" y="680" type="move" name="ENZPPGDI"/>
      <point x="118" y="618" type="line" name="JJSZQVHY"/>
      <point x="199" y="680" type="line" name="CKQUVUJX"/>
    </contour>
    <contour>
      <point x="306" y="680" type="move" name="BFMBBCHY"/>
      <point x="359" y="608" type="line" name="TLWZMZUB"/>
      <point x="416" y="680" type="line" name="SZNAGLPM"/>
    </contour>
    <contour>
      <point x="5.0" y="407.0" type="move" name="BOHBJVAY"/>
      <point x="67.0" y="352.0" type="line" name="VGLYCXZN"/>
      <point x="5.0" y="297.0" type="line" name="MGDGOUQO"/>
    </contour>
    <contour>
      <point x="535" y="0" type="move" name="QYNRAFZZ"/>
      <point x="480" y="60" type="line" name="GFCPLOWQ"/>
      <point x="431" y="0" type="line" name="RDVRJOGF"/>
    </contour>
    <contour>
      <point x="118" y="618" type="move" smooth="yes" name="ETRINQMD"/>
      <point x="118" y="618" name="BBKZNGCP"/>
      <point x="118" y="618" name="FUTGYKUB"/>
      <point x="118" y="618" type="curve" smooth="yes" name="YSSJLMLX"/>
      <point x="126" y="570" name="KLYROUER"/>
      <point x="141" y="491" name="RNTPYMHS"/>
      <point x="172" y="352" type="curve" name="QGBDHJBO"/>
      <point x="235" y="60" type="line" name="RZQCGNXL"/>
      <point x="303" y="352" type="line" name="NYDCVZIN"/>
      <point x="336" y="493" name="GWPSHQBD"/>
      <point x="351" y="561" name="QKLFUSME"/>
      <point x="359" y="608" type="curve" name="DLJYDNPI"/>
      <point x="365" y="559" name="TEUUDFOQ"/>
      <point x="377" y="506" name="CAAHIWIC"/>
      <point x="414" y="352" type="curve" smooth="yes" name="JRJAWZMM"/>
      <point x="480" y="60" type="line" name="HTKWIYHR"/>
      <point x="542" y="352" type="line" name="SPPKYNBY"/>
      <point x="573" y="497" name="QMGJZSWJ"/>
      <point x="589" y="572" name="LNHPWHON"/>
      <point x="597" y="618" type="curve" smooth="yes" name="GYERJVBT"/>
    </contour>
    <contour>
      <point x="706.0" y="297.0" type="move" name="IPDGTXNN"/>
      <point x="644.0" y="352.0" type="line" name="YWHMUBQI"/>
      <point x="706.0" y="407.0" type="line" name="XKBUALPJ"/>
    </contour>
    <contour>
      <point x="520" y="680" type="move" name="AVZJNLPR"/>
      <point x="597" y="618" type="line" name="VMAFGALJ"/>
      <point x="690" y="680" type="line" name="RJCUMWGS"/>
    </contour>
    <contour>
      <point x="542.0" y="352.0" type="move" name="FRVEXIEZ"/>
    </contour>
    <contour>
      <point x="542.0" y="352.0" type="move" name="TNOYPRTR"/>
      <point x="617.0" y="407.0" type="line" name="UCEMOUSP"/>
    </contour>
    <contour>
      <point x="94.0" y="407.0" type="move" name="DQZBJTEF"/>
      <point x="172.0" y="352.0" type="line" name="BVQCEQOA"/>
    </contour>
    <contour>
      <point x="542.0" y="352.0" type="move" name="SLMUFVHX"/>
      <point x="478.0" y="297.0" type="line" name="KTWMSOQR"/>
      <point x="414.0" y="352.0" type="line" name="NBFVSJBH"/>
      <point x="357.0" y="407.0" type="line" name="DJILGVDO"/>
      <point x="303.0" y="352.0" type="line" name="KWIZHFBG"/>
      <point x="241.0" y="297.0" type="line" name="OPCKBNBB"/>
      <point x="172.0" y="352.0" type="line" name="SZJRTRBB"/>
    </contour>
    <contour>
      <point x="119" y="297" type="move" name="WWLMCYCD"/>
      <point x="172" y="352" type="line" name="OTRDXCOI"/>
      <point x="227" y="407" type="line" name="WTGZPQYG"/>
    </contour>
    <contour>
      <point x="492.0" y="407.0" type="move" name="UOEONRQK"/>
      <point x="542.0" y="352.0" type="line" name="TRQOAGRE"/>
      <point x="592.0" y="297.0" type="line" name="FKFCGBIT"/>
    </contour>
    <contour>
      <point x="241" y="297" type="move" name="USOEVKSC"/>
      <point x="235" y="60" type="line" name="RUPBCGVD"/>
    </contour>
    <contour>
      <point x="478" y="297" type="move" name="OJHGNSMD"/>
      <point x="480" y="60" type="line" name="UQWZGOVK"/>
    </contour>
    <contour>
      <point x="366" y="297" type="move" name="YQLFITER"/>
      <point x="414.0" y="352.0" type="line" name="SXHJPJRK"/>
      <point x="462.0" y="407.0" type="line" name="JSWZKZIY"/>
    </contour>
    <contour>
      <point x="260" y="407" type="move" name="EGKWFIUA"/>
      <point x="303.0" y="352.0" type="line" name="ACZKZQCY"/>
      <point x="347" y="297" type="line" name="YYRCLNPQ"/>
    </contour>
    <contour>
      <point x="359" y="608" type="move" name="NOTHCYKD"/>
      <point x="357" y="407" type="line" name="OSJHATKA"/>
    </contour>
  </outline>
</glyph>
<glyph name="dong" format="2">
  <advance width="528"/>
  <unicode hex="20AB"/>
  <outline>
    <contour>
      <point x="270.0" y="586.0" type="move" name="ZYLBYVGS"/>
      <point x="446.0" y="586.0" type="line" name="TELSNEEZ"/>
    </contour>
    <contour>
      <point x="380.0" y="186.0" type="move" name="RMMPJVJN"/>
      <point x="380.0" y="634.0" type="line" name="ALHUCCCP"/>
    </contour>
    <contour>
      <point x="249" y="184" type="curve" smooth="yes" name="ZIASMOYK"/>
      <point x="173" y="184" name="QIPMDMNY"/>
      <point x="118" y="235" name="MFXUQJHI"/>
      <point x="118" y="319" type="curve" smooth="yes" name="HSMSGVCS"/>
      <point x="118" y="404" name="UPJZVZEY"/>
      <point x="175" y="452" name="VUJLGXTW"/>
      <point x="249" y="452" type="curve" smooth="yes" name="YFFFHBCT"/>
      <point x="322" y="452" name="FARREGIT"/>
      <point x="380" y="403" name="YIFCSMKW"/>
      <point x="380" y="319" type="curve" smooth="yes" name="YWENUTRQ"/>
      <point x="380" y="236" name="OWJCLVWZ"/>
      <point x="322" y="184" name="BTSQTRJV"/>
    </contour>
    <contour>
      <point x="426.0" y="46.0" type="move" name="EEMJDXHN"/>
      <point x="92.0" y="46.0" type="line" name="RWDCFNZG"/>
    </contour>
    <contour>
      <point x="448" y="140" type="move" name="CKQUVUJX"/>
      <point x="380.0" y="186.0" type="line" name="JJSZQVHY"/>
      <point x="312" y="140" type="line" name="ENZPPGDI"/>
    </contour>
    <contour>
      <point x="312.0" y="680.0" type="move" name="JQVWSEAY"/>
      <point x="380.0" y="634.0" type="line" name="AECHHHOZ"/>
      <point x="448.0" y="680.0" type="line" name="VFIDGFLE"/>
    </contour>
    <contour>
      <point x="312.0" y="630.0" type="move" name="TYVAYLZT"/>
      <point x="380.0" y="586.0" type="line" name="FCJOCGZI"/>
      <point x="448.0" y="630.0" type="line" name="CZRNAQDY"/>
    </contour>
    <contour>
      <point x="218.0" y="630.0" type="move" name="BOHBJVAY"/>
      <point x="270.0" y="586.0" type="line" name="VGLYCXZN"/>
      <point x="218.0" y="542.0" type="line" name="MGDGOUQO"/>
    </contour>
    <contour>
      <point x="498.0" y="542.0" type="move" name="YYKGNMXO"/>
      <point x="446.0" y="586.0" type="line" name="MQCPUWJP"/>
      <point x="498.0" y="630.0" type="line" name="MGLPRQUR"/>
    </contour>
    <contour>
      <point x="40.0" y="93.0" type="move" name="OUNRVTIX"/>
      <point x="92.0" y="46.0" type="line" name="RXZNUIVQ"/>
      <point x="40.0" y="0.0" type="line" name="TTDKPYHX"/>
    </contour>
    <contour>
      <point x="478.0" y="0.0" type="move" name="IXBRCUPZ"/>
      <point x="426.0" y="46.0" type="line" name="ONPAYWCT"/>
      <point x="478.0" y="93.0" type="line" name="NFHBYONZ"/>
    </contour>
    <contour>
      <point x="312" y="157" type="move" name="BZMAHGEO"/>
      <point x="353" y="185" name="UXRKKJLZ"/>
      <point x="380" y="242" name="KRESCTFF"/>
      <point x="380" y="319" type="curve" name="HMQBFHEL"/>
      <point x="380" y="396" name="NQSCJDKB"/>
      <point x="353" y="453" name="UQUHPQTP"/>
      <point x="312" y="481" type="curve" name="ZTMSOHZQ"/>
    </contour>
    <contour>
      <point x="448.0" y="542.0" type="move" name="LXALZECJ"/>
      <point x="380.0" y="586.0" type="line" name="MSBRTOOJ"/>
      <point x="312.0" y="542.0" type="line" name="MLUCKSSM"/>
    </contour>
  </outline>
</glyph>
<glyph name="indianrupee" format="2">
  <advance width="547"/>
  <unicode hex="20B9"/>
  <outline>
    <contour>
      <point x="450" y="610" type="move" smooth="yes" name="YYCXABQP"/>
      <point x="356" y="615" name="JGBZNMDZ"/>
      <point x="148" y="618" name="KPDKZWCR"/>
      <point x="102" y="618" type="curve" name="UAWGHPXV"/>
      <point x="293" y="618" name="BDUTTSLY"/>
      <point x="364" y="544" name="SNYWRWRO"/>
      <point x="364" y="418" type="curve" smooth="yes" name="CIXJSAQK"/>
      <point x="364" y="319" name="KCUHOBSX"/>
      <point x="294" y="244" name="GJQPRYPV"/>
      <point x="179" y="237" type="curve" name="JBPRAABT"/>
      <point x="345" y="62" type="line" name="CAAALYZA"/>
    </contour>
    <contour>
      <point x="459.0" y="418.0" type="move" name="BJOAFSHP"/>
      <point x="364.0" y="418.0" type="line" name="NOKDXTQE"/>
      <point x="93.0" y="418.0" type="line" name="LXTNWIZT"/>
    </contour>
    <contour>
      <point x="512.0" y="467.0" type="move" name="UQDVGEKV"/>
      <point x="459.0" y="418.0" type="line" name="VREXZJCA"/>
      <point x="512.0" y="369.0" type="line" name="PPHZPIDG"/>
    </contour>
    <contour>
      <point x="527.0" y="0.0" type="move" name="RCSUHBON"/>
      <point x="345.0" y="62.0" type="line" name="QAOIOWZM"/>
      <point x="276.0" y="0.0" type="line" name="ELRINLQJ"/>
    </contour>
    <contour>
      <point x="512.0" y="680.0" type="move" name="BKCRMQFL"/>
      <point x="450.0" y="610.0" type="line" name="DDEHMDUV"/>
      <point x="512.0" y="529.0" type="line" name="AJMPJLIP"/>
    </contour>
    <contour>
      <point x="40.0" y="534.0" type="move" name="NFAVSYCY"/>
      <point x="102.0" y="618.0" type="line" name="TTBWBQDX"/>
      <point x="40.0" y="680.0" type="line" name="DXBTFTIT"/>
    </contour>
    <contour>
      <point x="286.0" y="467.0" type="move" name="IEACXAFW"/>
      <point x="364.0" y="418.0" type="line" name="GALEWCJP"/>
      <point x="431.0" y="369.0" type="line" name="MLBIVYTI"/>
    </contour>
    <contour>
      <point x="436.0" y="467.0" type="move" name="WKYOLYAQ"/>
      <point x="364.0" y="418.0" type="line" name="ADXZOCUY"/>
      <point x="280.0" y="369.0" type="line" name="TJLVLQQO"/>
    </contour>
    <contour>
      <point x="40.0" y="369.0" type="move" name="JLFOLSIM"/>
      <point x="93.0" y="418.0" type="line" name="YPNXTEPE"/>
      <point x="40.0" y="467.0" type="line" name="GHCYIOOE"/>
    </contour>
    <contour>
      <point x="298.0" y="199.0" type="move" name="JVZGCKRY"/>
      <point x="179.0" y="237.0" type="line" name="GCYZNSFN"/>
      <point x="30.0" y="305.0" type="line" name="BHUGAYCJ"/>
    </contour>
    <contour>
      <point x="102" y="618" type="move" name="ZOIFFCZA"/>
      <point x="220" y="618" name="GNNUHFWP"/>
      <point x="350" y="600" name="NNDIUMKC"/>
      <point x="409" y="553" type="curve" name="MTCIIJIH"/>
    </contour>
  </outline>
</glyph>
<glyph name="numero" format="2">
  <advance width="1071"/>
  <unicode hex="2116"/>
  <outline>
    <contour>
      <point x="498.0" y="618.0" type="move" name="ADSQEKBC"/>
      <point x="498.0" y="57.0" type="line" name="HMGMGFGL"/>
      <point x="150.0" y="628.0" type="line" name="OIYQYYFU"/>
      <point x="150.0" y="62.0" type="line" name="ASYXOURB"/>
    </contour>
    <contour>
      <point x="841" y="312" type="curve" smooth="yes" name="AMWCBMOH"/>
      <point x="757" y="312" name="RAKKTUOA"/>
      <point x="697" y="382" name="WOFIIIIZ"/>
      <point x="697" y="478" type="curve" smooth="yes" name="FRHCEEXU"/>
      <point x="697" y="574" name="GIXDMZHO"/>
      <point x="757" y="644" name="FTPFZTMA"/>
      <point x="841" y="644" type="curve" smooth="yes" name="ZHJGAEXG"/>
      <point x="924" y="644" name="XLPRPWFI"/>
      <point x="985" y="574" name="FFVZXZCN"/>
      <point x="985" y="478" type="curve" smooth="yes" name="SFPXXOYR"/>
      <point x="985" y="382" name="EGLOORPW"/>
      <point x="924" y="312" name="PGEJFBRE"/>
    </contour>
    <contour>
      <point x="974.0" y="148.0" type="move" name="KETPOHJM"/>
      <point x="709.0" y="148.0" type="line" name="WOXPCPLG"/>
    </contour>
    <contour>
      <point x="244.0" y="0.0" type="move" name="VSXLDNKZ"/>
      <point x="150.0" y="62.0" type="line" name="SUKSFYIY"/>
      <point x="57" y="0" type="line" name="HDGFSUZS"/>
    </contour>
    <contour>
      <point x="405.0" y="680.0" type="move" name="ZLEMENNY"/>
      <point x="498.0" y="618.0" type="line" name="OXQATKAG"/>
      <point x="592.0" y="680.0" type="line" name="BUSIROAB"/>
    </contour>
    <contour>
      <point x="57.0" y="680.0" type="move" name="JYHUHSXA"/>
      <point x="150.0" y="628.0" type="line" name="OHDQCNUI"/>
      <point x="213.0" y="680.0" type="line" name="YQCUMHNN"/>
    </contour>
    <contour>
      <point x="582.0" y="0.0" type="move" name="AXQSEQZU"/>
      <point x="498.0" y="57.0" type="line" name="FIQCBHOY"/>
      <point x="446.0" y="0.0" type="line" name="ZJLCBJAV"/>
    </contour>
    <contour>
      <point x="432.0" y="294.0" type="move" name="UJWXPRAI"/>
      <point x="498.0" y="57.0" type="line" name="ZMFESRGD"/>
    </contour>
    <contour>
      <point x="150.0" y="628.0" type="move" name="HJJKALEJ"/>
      <point x="217.0" y="400.0" type="line" name="EQSWRIWZ"/>
    </contour>
    <contour>
      <point x="656.0" y="93.0" type="move" name="VVXRKYTT"/>
      <point x="709.0" y="148.0" type="line" name="JWXZNKWH"/>
      <point x="656.0" y="202.0" type="line" name="APXYFJNB"/>
    </contour>
    <contour>
      <point x="1026.0" y="202.0" type="move" name="WIRGANPJ"/>
      <point x="974.0" y="148.0" type="line" name="TQCTGWEH"/>
      <point x="1026.0" y="93.0" type="line" name="IQWDVQEH"/>
    </contour>
  </outline>
</glyph>
<glyph name="trademark" format="2">
  <advance width="816"/>
  <unicode hex="2122"/>
  <outline>
    <contour>
      <point x="263" y="637" type="move" smooth="yes" name="OAFGIXVW"/>
      <point x="238" y="639" name="MNIEBEPU"/>
      <point x="207" y="640" name="KAVAARDU"/>
      <point x="169" y="640" type="curve" smooth="yes" name="ABSGZKAH"/>
      <point x="130" y="640" name="CNIAPDQA"/>
      <point x="99" y="639" name="LQGJILWL"/>
      <point x="74" y="637" type="curve" smooth="yes" name="BGJRRBKE"/>
    </contour>
    <contour>
      <point x="169.0" y="640.0" type="move" name="ZNXFWYVM"/>
      <point x="169.0" y="392.0" type="line" name="TZYVVZAJ"/>
    </contour>
    <contour>
      <point x="402.0" y="392.0" type="move" name="VYAXZAAB"/>
      <point x="402" y="633" type="line" name="CLXCDOTY"/>
      <point x="471" y="633" type="line" name="WWTXQTDT"/>
      <point x="565" y="387" type="line" name="CGDFDPHG"/>
      <point x="663" y="633" type="line" name="KKUFBARO"/>
      <point x="730" y="633" type="line" name="BLINVKJP"/>
      <point x="730.0" y="392.0" type="line" name="GKOHNTII"/>
    </contour>
    <contour>
      <point x="230.0" y="340.0" type="move" name="KOJIMKWT"/>
      <point x="169.0" y="392.0" type="line" name="JVOHTAMY"/>
      <point x="108.0" y="340.0" type="line" name="RYQUQNTU"/>
    </contour>
    <contour>
      <point x="459.0" y="340.0" type="move" name="HCOMVXSL"/>
      <point x="402.0" y="392.0" type="line" name="SFNYENCA"/>
      <point x="346.0" y="340.0" type="line" name="KNUDVRCT"/>
    </contour>
    <contour>
      <point x="788.0" y="340.0" type="move" name="UUBHXYTK"/>
      <point x="730.0" y="392.0" type="line" name="FCVYVPHX"/>
      <point x="671.0" y="340.0" type="line" name="UENAIGCZ"/>
    </contour>
    <contour>
      <point x="594.0" y="340.0" type="move" name="XBTAIYOG"/>
      <point x="565.0" y="387.0" type="line" name="KRDDREGZ"/>
      <point x="533.0" y="340.0" type="line" name="VXSBDAAE"/>
    </contour>
    <contour>
      <point x="25.0" y="582.0" type="move" name="YCESFXOV"/>
      <point x="74.0" y="637.0" type="line" name="MRHXFBDS"/>
      <point x="25.0" y="680.0" type="line" name="XEGDMACY"/>
    </contour>
    <contour>
      <point x="312.0" y="680.0" type="move" name="VKNTBNLA"/>
      <point x="263.0" y="637.0" type="line" name="TDINBZWN"/>
      <point x="312.0" y="582.0" type="line" name="VVQFHFNO"/>
    </contour>
    <contour>
      <point x="122" y="599" type="move" name="PWNWKJUJ"/>
      <point x="169.0" y="640.0" type="line" name="VUKDDBYY"/>
      <point x="215.0" y="599.0" type="line" name="IRUHLQZT"/>
    </contour>
    <contour>
      <point x="346.0" y="680.0" type="move" name="RQWLXILT"/>
      <point x="402.0" y="633.0" type="line" name="FNGBBXVV"/>
      <point x="445.0" y="585.0" type="line" name="PMAJCZVS"/>
      <point x="471.0" y="633.0" type="line" name="HJGBTWWA"/>
      <point x="510" y="680" type="line" name="CTPSDJKA"/>
    </contour>
    <contour>
      <point x="629.0" y="680.0" type="move" name="AZIMSLCJ"/>
      <point x="663.0" y="633.0" type="line" name="CIPBRFBG"/>
      <point x="686.0" y="589.0" type="line" name="LRJNPPHE"/>
      <point x="730.0" y="633.0" type="line" name="ZORCJJWT"/>
      <point x="788.0" y="680.0" type="line" name="UADFPYIJ"/>
    </contour>
    <contour>
      <point x="568" y="485" type="move" name="CMDFVYAL"/>
      <point x="565.0" y="387.0" type="line" name="RKBXSNMG"/>
    </contour>
  </outline>
</glyph>
<glyph name="arrowup" format="2">
  <advance width="676"/>
  <unicode hex="2191"/>
  <outline>
    <contour>
      <point x="670.0" y="239.0" type="move" name="RXYACUZC"/>
      <point x="535.0" y="320.0" name="OGMVGVFK"/>
      <point x="426.0" y="409.0" name="AELMXEYU"/>
      <point x="333.0" y="513.0" type="curve" name="UTLRKEQC"/>
      <point x="239.0" y="409.0" name="EXVRHSVR"/>
      <point x="141.0" y="320.0" name="MGOLNTHB"/>
      <point x="6.0" y="239.0" type="curve" name="QVGUXTQJ"/>
    </contour>
    <contour>
      <point x="333.0" y="645.0" type="move" name="MCHVBBDS"/>
      <point x="333.0" y="513.0" type="line" name="VEFCEOIH"/>
      <point x="333.0" y="62.0" type="line" name="QPHYUFCK"/>
    </contour>
    <contour>
      <point x="420.0" y="0.0" type="move" name="VAZHSFHT"/>
      <point x="333.0" y="62.0" type="line" name="VDMDVTLL"/>
      <point x="245.0" y="0.0" type="line" name="LSEOJCJB"/>
    </contour>
    <contour>
      <point x="392.0" y="361.0" type="move" name="JEJRUKMR"/>
      <point x="333.0" y="513.0" type="line" name="DVHGCLJS"/>
      <point x="273.0" y="354.0" type="line" name="KLONTXGP"/>
    </contour>
  </outline>
</glyph>
<glyph name="arrowdown" format="2">
  <advance width="676"/>
  <unicode hex="2193"/>
  <outline>
    <contour>
      <point x="6.0" y="397.0" type="move" name="QVGUXTQJ"/>
      <point x="141.0" y="316.0" name="MGOLNTHB"/>
      <point x="239.0" y="227.0" name="EXVRHSVR"/>
      <point x="333.0" y="123.0" type="curve" name="UTLRKEQC"/>
      <point x="426.0" y="227.0" name="AELMXEYU"/>
      <point x="535.0" y="316.0" name="OGMVGVFK"/>
      <point x="670.0" y="397.0" type="curve" name="RXYACUZC"/>
    </contour>
    <contour>
      <point x="333.0" y="574.0" type="move" name="QPHYUFCK"/>
      <point x="333.0" y="123.0" type="line" name="VEFCEOIH"/>
      <point x="333.0" y="-9.0" type="line" name="MCHVBBDS"/>
    </contour>
    <contour>
      <point x="245.0" y="636.0" type="move" name="LSEOJCJB"/>
      <point x="333.0" y="574.0" type="line" name="VDMDVTLL"/>
      <point x="420.0" y="636.0" type="line" name="VAZHSFHT"/>
    </contour>
    <contour>
      <point x="273.0" y="282.0" type="move" name="KLONTXGP"/>
      <point x="333.0" y="123.0" type="line" name="DVHGCLJS"/>
      <point x="392.0" y="275.0" type="line" name="JEJRUKMR"/>
    </contour>
  </outline>
</glyph>
<glyph name="bulletoperator" format="2">
  <advance width="291"/>
  <unicode hex="2219"/>
  <outline>
    <contour>
      <point x="65" y="410" type="move" name="JHZPYSGX"/>
      <point x="145" y="330" type="line" name="SPZNVLRZ"/>
      <point x="226" y="249" type="line" name="EWEGOKCW"/>
    </contour>
    <contour>
      <point x="65" y="249" type="move" name="PHNGTFYJ"/>
      <point x="145" y="330" type="line" name="QXRCYFJA"/>
      <point x="226" y="410" type="line" name="NQZWNOPH"/>
    </contour>
  </outline>
</glyph>
<glyph name="approxequal" format="2">
  <advance width="490"/>
  <unicode hex="2248"/>
  <outline>
    <contour>
      <point x="148.0" y="331.0" type="line"/>
      <point x="148.0" y="378.54716981132077"/>
      <point x="160.0" y="394.0"/>
      <point x="181.0" y="394.0" type="curve" smooth="yes"/>
      <point x="222.0" y="394.0"/>
      <point x="252.0" y="327.0"/>
      <point x="330.0" y="327.0" type="curve" smooth="yes"/>
      <point x="403.0" y="327.0"/>
      <point x="460.0" y="388.0"/>
      <point x="440.0" y="527.0" type="curve"/>
      <point x="342" y="527" type="line"/>
      <point x="342.0" y="479.45283018867923"/>
      <point x="330.0" y="464.0"/>
      <point x="309" y="464.0" type="curve" smooth="yes"/>
      <point x="268.0" y="464.0"/>
      <point x="238.0" y="531.0"/>
      <point x="160" y="531.0" type="curve" smooth="yes"/>
      <point x="87" y="531"/>
      <point x="30.0" y="470"/>
      <point x="50" y="331" type="curve"/>
    </contour>
    <contour>
      <point x="148.0" y="90.0" type="line"/>
      <point x="148.0" y="137.54716981132077"/>
      <point x="160.0" y="153.0"/>
      <point x="181.0" y="153.0" type="curve" smooth="yes"/>
      <point x="222.0" y="153.0"/>
      <point x="252.0" y="86.0"/>
      <point x="330.0" y="86.0" type="curve" smooth="yes"/>
      <point x="403.0" y="86.0"/>
      <point x="460.0" y="147.0"/>
      <point x="440.0" y="286.0" type="curve"/>
      <point x="342" y="286" type="line"/>
      <point x="342.0" y="238.45283018867923"/>
      <point x="330.0" y="223.0"/>
      <point x="309" y="223.0" type="curve" smooth="yes"/>
      <point x="268.0" y="223.0"/>
      <point x="238.0" y="290.0"/>
      <point x="160" y="290.0" type="curve" smooth="yes"/>
      <point x="87" y="290"/>
      <point x="30.0" y="229"/>
      <point x="50" y="90" type="curve"/>
    </contour>
  </outline>
</glyph>
<glyph name="lessequal" format="2">
  <advance width="447"/>
  <unicode hex="2264"/>
  <outline>
    <contour>
      <point x="335.0" y="115.0" type="move" name="ZBNGDNSP"/>
      <point x="102.0" y="115.0" type="line" name="LMPJVHAP"/>
    </contour>
    <contour>
      <point x="335" y="517" type="move" name="UOYIFIGD"/>
      <point x="129" y="412" type="line" name="BHDRZVUW"/>
      <point x="335.0" y="307.0" type="line" name="ZPLRJWAO"/>
    </contour>
    <contour>
      <point x="397.0" y="613.0" type="move" name="UOFBULOU"/>
      <point x="335.0" y="517.0" type="line" name="MYPZCTWF"/>
      <point x="397.0" y="485.0" type="line" name="NJNWDDNY"/>
    </contour>
    <contour>
      <point x="15.0" y="411.0" type="move" name="QXYZNXAC"/>
      <point x="129.0" y="412.0" type="line" name="QZDZSNFR"/>
      <point x="246.0" y="413.0" type="line" name="OZCJQGLK"/>
    </contour>
    <contour>
      <point x="397.0" y="339.0" type="move" name="GKNWWFWZ"/>
      <point x="335.0" y="307.0" type="line" name="PNYRCSBB"/>
      <point x="397.0" y="209.0" type="line" name="XVNPIBKE"/>
    </contour>
    <contour>
      <point x="40.0" y="50.0" type="move" name="ABHQBCWC"/>
      <point x="102.0" y="115.0" type="line" name="FNLSIUGI"/>
      <point x="40.0" y="180.0" type="line" name="DRJJTAUP"/>
    </contour>
    <contour>
      <point x="397.0" y="180.0" type="move" name="ZOOHSMHW"/>
      <point x="335.0" y="115.0" type="line" name="BDBSFWMJ"/>
      <point x="397.0" y="50.0" type="line" name="WJQDZZOK"/>
    </contour>
  </outline>
</glyph>
<glyph name="greaterequal" format="2">
  <advance width="447"/>
  <unicode hex="2265"/>
  <outline>
    <contour>
      <point x="345.0" y="115.0" type="move" name="LMPJVHAP"/>
      <point x="112.0" y="115.0" type="line" name="ZBNGDNSP"/>
    </contour>
    <contour>
      <point x="112.0" y="307.0" type="move" name="ZPLRJWAO"/>
      <point x="318.0" y="412.0" type="line" name="BHDRZVUW"/>
      <point x="112.0" y="517.0" type="line" name="UOYIFIGD"/>
    </contour>
    <contour>
      <point x="50.0" y="485.0" type="move" name="NJNWDDNY"/>
      <point x="112.0" y="517.0" type="line" name="MYPZCTWF"/>
      <point x="50.0" y="613.0" type="line" name="UOFBULOU"/>
    </contour>
    <contour>
      <point x="201.0" y="413.0" type="move" name="OZCJQGLK"/>
      <point x="318.0" y="412.0" type="line" name="QZDZSNFR"/>
      <point x="432.0" y="411.0" type="line" name="QXYZNXAC"/>
    </contour>
    <contour>
      <point x="50.0" y="209.0" type="move" name="XVNPIBKE"/>
      <point x="112.0" y="307.0" type="line" name="PNYRCSBB"/>
      <point x="50.0" y="339.0" type="line" name="GKNWWFWZ"/>
    </contour>
    <contour>
      <point x="407.0" y="180.0" type="move" name="DRJJTAUP"/>
      <point x="345.0" y="115.0" type="line" name="FNLSIUGI"/>
      <point x="407.0" y="50.0" type="line" name="ABHQBCWC"/>
    </contour>
    <contour>
      <point x="50.0" y="50.0" type="move" name="WJQDZZOK"/>
      <point x="112.0" y="115.0" type="line" name="BDBSFWMJ"/>
      <point x="50.0" y="180.0" type="line" name="ZOOHSMHW"/>
    </contour>
  </outline>
</glyph>
<glyph name="bracketangleleft" format="2">
  <advance width="381"/>
  <unicode hex="27E8"/>
  <outline>
    <contour>
      <point x="100" y="439" type="line"/>
      <point x="340" y="0" type="line"/>
      <point x="190" y="0" type="line"/>
      <point x="0" y="339" type="line"/>
      <point x="192" y="680" type="line"/>
      <point x="341" y="680" type="line"/>
      <point x="100" y="242" type="line"/>
    </contour>
  </outline>
</glyph>
<glyph name="caroncmb.alt" format="2">
  <anchor x="-125" y="517" name="right"/>
  <outline>
    <contour>
      <point x="-97" y="499" type="move"/>
      <point x="-21" y="554"/>
      <point x="12" y="611"/>
      <point x="18" y="670" type="curve" smooth="yes"/>
    </contour>
    <contour>
      <point x="-62.0" y="730.0" type="move"/>
      <point x="18.0" y="670.0" type="line"/>
      <point x="95.0" y="730.0" type="line"/>
    </contour>
  </outline>
</glyph>
